<svg version="1.1" xmlns="http://www.w3.org/2000/svg" xmlns:xlink="http://www.w3.org/1999/xlink" x="0px" y="0px"
	 width="103px" height="28px" viewBox="0 0 103 28" enable-background="new 0 0 103 28" xml:space="preserve" focusable="false">
<path fill="#A0A8B1" d="M92.107,23.308l-1.479-3.503c-0.094-0.209-0.183-0.378-0.266-0.505c-0.086-0.127-0.174-0.222-0.27-0.291
	c-0.096-0.066-0.198-0.11-0.311-0.13c-0.109-0.017-0.232-0.026-0.374-0.026h-0.83l0.578-1.277h6.231l-0.577,1.277H93.72
	c-0.104,0-0.175,0.01-0.211,0.026c-0.037,0.02-0.054,0.056-0.054,0.106c0,0.075,0.016,0.147,0.051,0.224
	c0.033,0.078,0.073,0.167,0.119,0.273l1.117,2.565l3.266-2.645c0.162-0.131,0.285-0.234,0.363-0.31
	c0.076-0.071,0.114-0.124,0.114-0.156c0-0.025-0.01-0.046-0.032-0.062c-0.018-0.017-0.056-0.023-0.115-0.023h-1.822l0.583-1.277
	h5.902l-0.587,1.277h-1.008c-0.087,0-0.174,0.004-0.256,0.015c-0.081,0.011-0.171,0.034-0.26,0.067
	c-0.094,0.034-0.192,0.084-0.301,0.145c-0.108,0.064-0.232,0.15-0.37,0.26l-5.015,4.002l-1.057,2.236
	c-0.07,0.152-0.127,0.284-0.166,0.39c-0.037,0.109-0.057,0.21-0.057,0.305c0,0.174,0.111,0.26,0.331,0.26h1.88l-0.601,1.274h-7.705
	l0.602-1.274h1.488c0.153,0,0.281-0.019,0.385-0.052c0.103-0.034,0.188-0.082,0.258-0.146c0.068-0.063,0.13-0.138,0.18-0.223
	c0.054-0.087,0.104-0.185,0.156-0.287L92.107,23.308z M82.216,18.854c0.342,0,0.658,0.023,0.949,0.072
	c0.295,0.053,0.551,0.136,0.768,0.252c0.219,0.115,0.388,0.269,0.507,0.463c0.123,0.191,0.184,0.434,0.184,0.725
	c0,0.29-0.061,0.554-0.184,0.79c-0.119,0.239-0.301,0.44-0.546,0.611c-0.241,0.169-0.546,0.297-0.908,0.39
	c-0.366,0.093-0.795,0.14-1.284,0.14h-3.013l1.617-3.442H82.216z M78.174,27.807l0.584-1.276h-1.411
	c-0.011,0-0.037-0.001-0.077-0.006c-0.043-0.004-0.083-0.021-0.128-0.043c-0.046-0.024-0.088-0.063-0.125-0.114
	c-0.037-0.052-0.059-0.126-0.059-0.221c0-0.046,0.016-0.126,0.047-0.233c0.03-0.111,0.075-0.233,0.137-0.363l0.948-1.996
	l2.237,0.019c0.27,0.218,0.521,0.508,0.763,0.869c0.241,0.355,0.483,0.739,0.725,1.141c0.244,0.404,0.497,0.803,0.762,1.202
	c0.261,0.392,0.55,0.735,0.863,1.022h3.825l0.586-1.276h-1.535c-0.121-0.093-0.249-0.214-0.387-0.364s-0.28-0.316-0.424-0.499
	c-0.147-0.183-0.296-0.375-0.447-0.574c-0.153-0.196-0.307-0.394-0.463-0.583c-0.159-0.19-0.313-0.373-0.471-0.545
	c-0.158-0.169-0.315-0.316-0.47-0.44c0.563-0.028,1.109-0.116,1.637-0.268c0.526-0.147,0.99-0.356,1.393-0.626
	c0.403-0.271,0.722-0.596,0.964-0.979c0.24-0.383,0.361-0.827,0.361-1.327c0-0.484-0.104-0.899-0.309-1.248
	c-0.206-0.346-0.504-0.632-0.896-0.852c-0.391-0.222-0.872-0.385-1.436-0.491c-0.57-0.105-1.215-0.157-1.944-0.157h-8.037
	l-0.593,1.277h1.747c0.136,0,0.24,0.021,0.318,0.065c0.076,0.046,0.113,0.119,0.113,0.226c0,0.12-0.049,0.284-0.144,0.488
	l-2.907,6.19c-0.045,0.104-0.093,0.2-0.14,0.289c-0.048,0.085-0.109,0.159-0.182,0.222c-0.075,0.065-0.161,0.112-0.262,0.147
	c-0.103,0.033-0.228,0.049-0.38,0.049h-1.458l-0.592,1.276H78.174z M67.528,18.854c0.441,0,0.846,0.054,1.216,0.16
	c0.37,0.108,0.686,0.272,0.947,0.493c0.266,0.221,0.469,0.501,0.616,0.844c0.146,0.342,0.221,0.744,0.221,1.211
	c0,0.577-0.076,1.101-0.228,1.571c-0.153,0.47-0.36,0.887-0.628,1.256c-0.266,0.368-0.577,0.688-0.938,0.953
	c-0.358,0.269-0.747,0.491-1.166,0.667c-0.423,0.174-0.86,0.308-1.322,0.393c-0.462,0.087-0.923,0.129-1.383,0.129h-3.059
	l3.62-7.677H67.528z M73.845,21.724c0-0.638-0.119-1.21-0.355-1.725c-0.235-0.512-0.584-0.947-1.047-1.308
	c-0.462-0.359-1.035-0.634-1.717-0.828c-0.679-0.191-1.465-0.287-2.357-0.287h-7.865l-0.593,1.277h1.762
	c0.277,0,0.416,0.086,0.416,0.26c0,0.099-0.021,0.207-0.06,0.315c-0.039,0.115-0.094,0.238-0.158,0.376l-2.834,6.019
	c-0.052,0.104-0.099,0.199-0.147,0.289c-0.048,0.085-0.106,0.158-0.178,0.222c-0.071,0.065-0.157,0.112-0.259,0.146
	c-0.101,0.034-0.228,0.05-0.381,0.05h-1.458l-0.591,1.276h9.052c0.768,0,1.517-0.05,2.251-0.148
	c0.731-0.101,1.422-0.255,2.072-0.466c0.651-0.211,1.247-0.476,1.793-0.8c0.544-0.322,1.012-0.711,1.403-1.163
	c0.394-0.451,0.698-0.968,0.921-1.547C73.734,23.1,73.845,22.449,73.845,21.724 M59.985,17.576h-5.604l-0.535,1.274
	c0.366,0,0.671,0.012,0.918,0.032c0.247,0.022,0.441,0.058,0.591,0.106c0.147,0.05,0.252,0.121,0.315,0.209
	c0.064,0.091,0.096,0.206,0.096,0.347c0,0.074-0.011,0.159-0.029,0.255c-0.019,0.097-0.042,0.198-0.07,0.305
	c-0.028,0.105-0.06,0.21-0.099,0.314c-0.036,0.104-0.071,0.203-0.104,0.291l-1.496,3.727l-4.037-6.86h-4.604l-0.563,1.274H45.6
	c0.437,0,0.768,0.042,0.994,0.126c0.229,0.084,0.341,0.236,0.341,0.459c0,0.059-0.011,0.122-0.034,0.195
	c-0.023,0.073-0.042,0.128-0.05,0.158l-2.2,5.048c-0.108,0.258-0.208,0.479-0.297,0.664c-0.094,0.182-0.188,0.337-0.287,0.458
	c-0.097,0.126-0.208,0.225-0.334,0.299c-0.123,0.079-0.271,0.135-0.443,0.175c-0.17,0.039-0.373,0.064-0.611,0.078
	c-0.237,0.013-0.516,0.019-0.839,0.019l-0.528,1.278h6.116l0.533-1.278c-0.364,0-0.672-0.007-0.923-0.024
	c-0.251-0.02-0.455-0.055-0.607-0.106c-0.155-0.054-0.266-0.126-0.332-0.214c-0.065-0.089-0.097-0.205-0.097-0.347
	c0-0.074,0.008-0.159,0.027-0.257c0.02-0.098,0.042-0.196,0.07-0.297c0.028-0.104,0.06-0.206,0.094-0.312
	c0.037-0.105,0.073-0.202,0.109-0.294l1.858-4.678l4.478,7.807h1.456l2.882-7.264c0.101-0.26,0.195-0.488,0.28-0.678
	c0.087-0.188,0.172-0.345,0.261-0.465c0.088-0.125,0.186-0.225,0.292-0.299c0.104-0.071,0.231-0.127,0.379-0.162
	c0.147-0.038,0.323-0.062,0.527-0.072c0.203-0.011,0.449-0.018,0.734-0.018L59.985,17.576z M29.077,18.852h1.192
	c0.264,0,0.475,0.031,0.629,0.094c0.154,0.064,0.23,0.163,0.23,0.299c0,0.027-0.002,0.062-0.014,0.099
	c-0.01,0.036-0.019,0.065-0.027,0.093l-1.84,4.267c-0.113,0.257-0.202,0.507-0.264,0.752c-0.064,0.244-0.097,0.488-0.097,0.729
	c0,0.44,0.114,0.838,0.343,1.188c0.229,0.352,0.558,0.646,0.988,0.889c0.433,0.24,0.96,0.426,1.583,0.552
	C32.421,27.938,33.128,28,33.918,28c0.944,0,1.764-0.073,2.456-0.221c0.691-0.149,1.285-0.364,1.783-0.646
	c0.496-0.284,0.91-0.634,1.236-1.047c0.325-0.411,0.595-0.886,0.806-1.415l1.824-4.607c0.099-0.246,0.194-0.448,0.291-0.604
	c0.096-0.159,0.215-0.281,0.357-0.372c0.142-0.088,0.32-0.151,0.541-0.185c0.217-0.034,0.499-0.052,0.842-0.052h0.301l0.575-1.276
	h-6.526l-0.574,1.276h0.978c0.286,0,0.527,0.015,0.725,0.043c0.199,0.03,0.363,0.081,0.491,0.154
	c0.126,0.075,0.222,0.172,0.278,0.294c0.06,0.118,0.088,0.268,0.088,0.446c0,0.101-0.015,0.227-0.048,0.379
	c-0.03,0.151-0.074,0.289-0.128,0.408l-1.354,3.399c-0.155,0.393-0.345,0.742-0.571,1.045c-0.22,0.301-0.492,0.555-0.807,0.764
	c-0.318,0.208-0.688,0.364-1.108,0.468c-0.422,0.106-0.911,0.157-1.464,0.157c-0.452,0-0.856-0.03-1.213-0.093
	c-0.36-0.064-0.663-0.164-0.914-0.304c-0.25-0.138-0.442-0.32-0.576-0.539c-0.136-0.222-0.204-0.488-0.204-0.806
	c0-0.108,0.008-0.225,0.027-0.347c0.017-0.119,0.04-0.24,0.069-0.357c0.029-0.118,0.063-0.229,0.1-0.332
	c0.036-0.102,0.071-0.192,0.106-0.272l1.685-4.002c0.069-0.165,0.175-0.289,0.323-0.376c0.149-0.087,0.351-0.13,0.612-0.13h0.992
	l0.559-1.276h-6.841L29.077,18.852z M19.67,23.355l3.63-4.326h0.153l0.362,4.326H19.67z M29.023,26.53h-0.95
	c-0.188,0-0.347-0.014-0.474-0.045c-0.125-0.034-0.228-0.084-0.307-0.158c-0.079-0.075-0.141-0.171-0.18-0.293
	c-0.04-0.12-0.072-0.272-0.093-0.457l-0.871-8.001h-3.497l-7.164,8.294c-0.159,0.195-0.354,0.354-0.582,0.476
	c-0.228,0.123-0.526,0.185-0.89,0.185h-0.577l-0.571,1.276h6.054l0.587-1.276h-1.749c-0.099,0-0.17-0.024-0.216-0.073
	c-0.047-0.051-0.068-0.112-0.068-0.186c0-0.136,0.058-0.288,0.177-0.457c0.118-0.168,0.249-0.344,0.392-0.522l0.548-0.664h5.338
	c0.004,0.108,0.013,0.229,0.027,0.369c0.012,0.142,0.022,0.285,0.031,0.431c0.005,0.145,0.014,0.282,0.022,0.416
	c0.008,0.13,0.012,0.244,0.012,0.339c0,0.044-0.007,0.087-0.02,0.127c-0.013,0.042-0.038,0.08-0.072,0.116
	c-0.036,0.033-0.087,0.062-0.154,0.082c-0.066,0.021-0.155,0.03-0.262,0.03l-1.178,0.018l-0.585,1.251h6.686L29.023,26.53z
	 M11.482,17.576H4.254l-0.563,1.274h1.764c0.207,0,0.311,0.09,0.311,0.262c0,0.1-0.017,0.201-0.053,0.307
	c-0.036,0.106-0.089,0.233-0.156,0.386l-2.662,5.906c-0.083,0.181-0.167,0.323-0.25,0.429c-0.085,0.109-0.173,0.191-0.265,0.25
	c-0.091,0.057-0.19,0.096-0.293,0.115c-0.104,0.018-0.216,0.024-0.335,0.024H0.563L0,27.808h12.495l1.701-3.909h-1.274
	c-0.178,0.345-0.377,0.671-0.594,0.984c-0.218,0.316-0.479,0.597-0.786,0.841c-0.306,0.243-0.665,0.441-1.078,0.585
	c-0.414,0.149-0.903,0.221-1.47,0.221H5.47l3.139-6.969c0.051-0.104,0.097-0.201,0.144-0.284c0.05-0.091,0.106-0.163,0.172-0.229
	c0.063-0.063,0.145-0.111,0.242-0.144c0.097-0.035,0.217-0.054,0.362-0.054h1.397L11.482,17.576z"/>
<path fill="#001641" d="M90.27,1.57l-1.83,4.295h3.409c0.554,0,1.036-0.056,1.449-0.174c0.412-0.113,0.757-0.277,1.032-0.487
	c0.271-0.21,0.479-0.464,0.616-0.761s0.206-0.625,0.206-0.987c0-0.362-0.068-0.662-0.206-0.902
	c-0.138-0.241-0.328-0.434-0.574-0.579c-0.248-0.145-0.535-0.249-0.866-0.311c-0.333-0.063-0.689-0.094-1.074-0.094H90.27z
	 M79.655,12.75l0.671-1.596h1.648c0.171,0,0.315-0.022,0.427-0.063c0.115-0.042,0.214-0.105,0.296-0.183
	c0.084-0.077,0.153-0.172,0.206-0.278c0.056-0.109,0.107-0.229,0.16-0.36l3.287-7.724c0.108-0.255,0.164-0.458,0.164-0.61
	c0-0.13-0.045-0.223-0.13-0.279c-0.084-0.057-0.206-0.085-0.36-0.085h-1.974l0.669-1.569h9.09c0.824,0,1.556,0.066,2.197,0.196
	c0.641,0.132,1.185,0.335,1.627,0.61c0.443,0.276,0.78,0.63,1.013,1.064c0.232,0.43,0.348,0.95,0.348,1.553
	c0,0.624-0.137,1.175-0.408,1.654c-0.271,0.478-0.635,0.884-1.089,1.22c-0.456,0.333-0.98,0.595-1.576,0.783
	c-0.596,0.186-1.213,0.296-1.854,0.33c0.177,0.154,0.354,0.339,0.531,0.551c0.177,0.214,0.357,0.437,0.534,0.675
	c0.177,0.238,0.35,0.479,0.521,0.728c0.171,0.247,0.341,0.485,0.507,0.713c0.165,0.23,0.327,0.436,0.48,0.62
	c0.155,0.187,0.301,0.338,0.438,0.455h1.735l-0.66,1.596h-4.325c-0.357-0.36-0.682-0.785-0.981-1.277
	c-0.297-0.496-0.584-0.994-0.858-1.497c-0.274-0.504-0.547-0.98-0.819-1.43c-0.271-0.447-0.558-0.809-0.861-1.083l-2.534-0.02
	l-1.072,2.488c-0.068,0.163-0.121,0.312-0.152,0.449c-0.035,0.138-0.054,0.234-0.054,0.295c0,0.116,0.021,0.208,0.064,0.273
	s0.092,0.112,0.142,0.142c0.052,0.03,0.101,0.047,0.146,0.053c0.045,0.007,0.074,0.01,0.086,0.01h1.597L87.87,12.75H79.655z
	 M83.306,0l-1.561,3.692h-1.444c0.035-0.099,0.072-0.216,0.114-0.35c0.039-0.135,0.076-0.275,0.114-0.423
	c0.037-0.148,0.066-0.295,0.092-0.438c0.02-0.146,0.034-0.271,0.034-0.376c0-0.111-0.026-0.203-0.074-0.271
	c-0.048-0.068-0.114-0.123-0.195-0.162c-0.08-0.039-0.174-0.064-0.282-0.08c-0.107-0.013-0.226-0.019-0.352-0.019h-5.217
	l-1.631,3.875h2.702c0.24,0,0.441-0.024,0.602-0.075c0.16-0.048,0.299-0.127,0.421-0.235c0.118-0.107,0.229-0.242,0.324-0.407
	c0.1-0.163,0.207-0.364,0.327-0.598h1.279l-1.999,4.745h-1.308c0.064-0.165,0.132-0.356,0.209-0.576
	c0.072-0.219,0.108-0.451,0.108-0.692c0-0.231-0.055-0.388-0.167-0.468c-0.108-0.083-0.248-0.125-0.416-0.125h-2.786l-1.762,4.138
	h5.27c0.447,0,0.829-0.05,1.147-0.152c0.315-0.103,0.593-0.243,0.831-0.426c0.237-0.185,0.443-0.407,0.619-0.668
	c0.175-0.262,0.342-0.551,0.502-0.866h1.511l-1.546,3.708H63.9l0.685-1.596h1.443c0.144,0,0.276-0.01,0.4-0.035
	c0.127-0.023,0.245-0.07,0.354-0.139c0.107-0.075,0.212-0.18,0.313-0.313c0.1-0.133,0.194-0.313,0.288-0.535l3.039-7.127
	c0.078-0.188,0.136-0.355,0.17-0.495c0.033-0.142,0.052-0.278,0.052-0.407c0-0.166-0.058-0.293-0.176-0.388
	c-0.117-0.098-0.286-0.144-0.502-0.144l-1.605,0.009L69.031,0H83.306z M51.558,12.75l0.672-1.596h1.648
	c0.171,0,0.313-0.022,0.428-0.063c0.115-0.042,0.212-0.105,0.292-0.183c0.081-0.077,0.147-0.172,0.202-0.278
	c0.054-0.109,0.11-0.229,0.165-0.36l3.204-7.508c0.078-0.189,0.14-0.351,0.184-0.482c0.044-0.13,0.066-0.259,0.066-0.383
	c0-0.11-0.039-0.192-0.114-0.247c-0.073-0.052-0.171-0.079-0.29-0.079h-1.392c-0.407,0-0.745,0.035-1.016,0.101
	c-0.273,0.065-0.513,0.192-0.722,0.379c-0.209,0.186-0.404,0.449-0.584,0.788c-0.181,0.337-0.383,0.78-0.615,1.327h-1.44
	l1.665-4.164h14.626l-1.758,4.164h-1.4c0.058-0.157,0.113-0.326,0.171-0.503c0.057-0.177,0.109-0.35,0.156-0.519
	c0.045-0.167,0.082-0.326,0.114-0.478c0.032-0.151,0.049-0.278,0.049-0.383c0-0.21-0.078-0.381-0.228-0.513
	c-0.152-0.13-0.428-0.198-0.83-0.198H62.88c-0.172,0-0.314,0.021-0.429,0.065c-0.114,0.042-0.211,0.103-0.292,0.182
	c-0.08,0.078-0.146,0.173-0.202,0.28c-0.054,0.107-0.108,0.228-0.168,0.358L58.59,9.964c-0.082,0.191-0.142,0.351-0.184,0.487
	c-0.044,0.135-0.065,0.26-0.065,0.379c0,0.215,0.122,0.323,0.368,0.323h2.097l-0.671,1.596H51.558z M41.5,12.75l0.687-1.596h1.571
	c0.113,0,0.19-0.01,0.23-0.033c0.042-0.025,0.06-0.065,0.06-0.123c0-0.095-0.021-0.189-0.066-0.291
	c-0.048-0.101-0.104-0.214-0.173-0.339l-1.374-2.474l-3.57,2.641c-0.131,0.099-0.235,0.176-0.31,0.235
	c-0.073,0.06-0.129,0.107-0.165,0.142c-0.038,0.036-0.063,0.064-0.069,0.085c-0.009,0.019-0.012,0.039-0.012,0.058
	c0,0.033,0.009,0.057,0.029,0.073c0.02,0.017,0.061,0.025,0.125,0.025h2.198l-0.652,1.596h-7.382l0.686-1.596h1.613
	c0.099,0,0.19-0.008,0.281-0.025c0.087-0.016,0.182-0.047,0.283-0.092c0.1-0.046,0.21-0.108,0.33-0.187
	c0.12-0.08,0.263-0.178,0.43-0.296l5.416-3.989L39.5,2.761c-0.167-0.275-0.301-0.492-0.402-0.648
	c-0.105-0.158-0.201-0.276-0.289-0.357c-0.088-0.082-0.183-0.134-0.284-0.155c-0.1-0.019-0.227-0.03-0.381-0.03h-0.926l0.643-1.569
	h6.806l-0.72,1.569h-1.211c-0.115,0-0.194,0.014-0.236,0.035c-0.043,0.023-0.065,0.068-0.065,0.133c0,0.092,0.023,0.187,0.071,0.29
	c0.044,0.101,0.104,0.21,0.179,0.33l1.364,2.412l3.52-2.569c0.133-0.099,0.234-0.178,0.308-0.235
	c0.075-0.06,0.131-0.108,0.167-0.144c0.039-0.036,0.062-0.064,0.069-0.083c0.009-0.019,0.013-0.039,0.013-0.06
	c0-0.031-0.01-0.058-0.028-0.079c-0.021-0.019-0.063-0.03-0.125-0.03h-1.916l0.654-1.569h6.577L52.651,1.57h-1.144
	c-0.096,0-0.189,0.011-0.279,0.03c-0.088,0.021-0.183,0.054-0.282,0.1c-0.101,0.046-0.212,0.108-0.335,0.187
	c-0.123,0.079-0.265,0.177-0.425,0.294l-5.383,3.961l2.181,3.822c0.161,0.274,0.293,0.493,0.399,0.655
	c0.106,0.158,0.202,0.28,0.292,0.357c0.088,0.079,0.183,0.127,0.282,0.148c0.102,0.019,0.229,0.029,0.383,0.029h1.407l-0.652,1.596
	H41.5z M36.651,0l-1.563,3.693h-1.44c0.034-0.1,0.071-0.217,0.11-0.351c0.041-0.135,0.079-0.275,0.116-0.423
	c0.037-0.148,0.067-0.295,0.091-0.438c0.021-0.146,0.034-0.271,0.034-0.376c0-0.111-0.024-0.202-0.072-0.271
	c-0.051-0.069-0.115-0.123-0.194-0.163c-0.081-0.039-0.175-0.064-0.282-0.08c-0.111-0.013-0.227-0.019-0.354-0.019h-5.219
	l-1.631,3.875h2.704c0.24,0,0.441-0.024,0.602-0.075c0.159-0.048,0.299-0.127,0.419-0.235c0.12-0.107,0.229-0.242,0.326-0.407
	c0.097-0.161,0.206-0.364,0.327-0.597h1.279l-2,4.744H28.6c0.063-0.163,0.131-0.356,0.206-0.574
	c0.074-0.221,0.112-0.451,0.112-0.694c0-0.23-0.056-0.388-0.17-0.468c-0.11-0.081-0.249-0.125-0.414-0.125h-2.79l-1.762,4.138h5.273
	c0.446,0,0.827-0.05,1.145-0.152c0.317-0.103,0.596-0.243,0.833-0.426c0.238-0.185,0.444-0.407,0.618-0.667
	c0.174-0.263,0.341-0.552,0.502-0.867h1.511L32.12,12.75H17.244l0.688-1.596h1.441c0.142,0,0.276-0.01,0.403-0.034
	c0.126-0.024,0.243-0.071,0.353-0.14c0.107-0.075,0.213-0.177,0.312-0.313c0.1-0.133,0.197-0.313,0.289-0.535l3.038-7.125
	c0.08-0.19,0.137-0.356,0.172-0.496c0.034-0.143,0.05-0.278,0.05-0.408c0-0.166-0.058-0.293-0.175-0.388
	c-0.118-0.097-0.285-0.144-0.502-0.144l-1.605,0.009L22.377,0H36.651z M10.711,1.572l-4.093,9.583h3.458
	c0.523,0,1.043-0.054,1.563-0.162c0.521-0.108,1.02-0.271,1.495-0.492c0.473-0.22,0.915-0.495,1.321-0.831
	c0.407-0.333,0.76-0.731,1.06-1.188c0.3-0.458,0.537-0.981,0.708-1.568c0.171-0.585,0.259-1.241,0.259-1.962
	c0-0.582-0.083-1.087-0.249-1.511c-0.167-0.428-0.398-0.777-0.696-1.052c-0.297-0.275-0.655-0.481-1.072-0.615
	c-0.417-0.132-0.876-0.202-1.374-0.202H10.711z M20.243,5.168c0,0.904-0.125,1.717-0.373,2.441c-0.25,0.725-0.595,1.367-1.04,1.93
	c-0.443,0.564-0.973,1.047-1.587,1.448c-0.615,0.403-1.291,0.734-2.026,0.999c-0.733,0.261-1.518,0.453-2.343,0.579
	c-0.828,0.125-1.675,0.185-2.546,0.185H0.098l0.669-1.596h1.647c0.173,0,0.317-0.022,0.43-0.064
	c0.114-0.042,0.212-0.103,0.292-0.182c0.08-0.079,0.147-0.172,0.201-0.281c0.054-0.109,0.111-0.227,0.168-0.36l3.202-7.507
	c0.073-0.172,0.132-0.325,0.18-0.466C6.935,2.153,6.956,2.02,6.956,1.896c0-0.214-0.158-0.324-0.472-0.324H4.493l0.669-1.569h8.892
	c1.007,0,1.896,0.118,2.666,0.357c0.769,0.24,1.416,0.583,1.94,1.034c0.523,0.447,0.918,0.99,1.183,1.628
	C20.109,3.66,20.243,4.375,20.243,5.168 M101.388,11.282c0.075,0,0.127-0.021,0.164-0.06c0.035-0.042,0.055-0.095,0.055-0.163
	c0-0.06-0.021-0.106-0.057-0.139c-0.041-0.036-0.098-0.05-0.178-0.05h-0.22v0.413H101.388z M102.093,12.139h-0.443l-0.323-0.589
	h-0.174v0.589h-0.403v-1.55h0.659c0.205,0,0.353,0.042,0.452,0.128c0.098,0.084,0.146,0.2,0.146,0.341
	c0,0.116-0.028,0.21-0.085,0.285c-0.059,0.076-0.136,0.129-0.232,0.165L102.093,12.139z M100.197,11.362
	c0,0.159,0.031,0.309,0.093,0.448c0.063,0.141,0.146,0.26,0.251,0.365c0.105,0.104,0.227,0.186,0.369,0.246
	c0.14,0.061,0.289,0.09,0.448,0.09c0.16,0,0.312-0.029,0.451-0.09c0.143-0.06,0.262-0.142,0.367-0.246
	c0.105-0.104,0.187-0.224,0.247-0.365c0.061-0.139,0.09-0.289,0.09-0.448c0-0.157-0.029-0.306-0.09-0.445
	c-0.061-0.14-0.142-0.263-0.247-0.366c-0.105-0.105-0.225-0.186-0.367-0.247c-0.14-0.059-0.291-0.089-0.451-0.089
	c-0.105,0-0.207,0.012-0.306,0.04c-0.099,0.029-0.19,0.066-0.277,0.116c-0.085,0.05-0.164,0.11-0.234,0.18
	c-0.071,0.069-0.131,0.147-0.184,0.232c-0.052,0.085-0.09,0.176-0.117,0.274C100.212,11.156,100.197,11.257,100.197,11.362
	 M99.962,11.361c0-0.19,0.036-0.369,0.109-0.539c0.074-0.166,0.175-0.314,0.303-0.438c0.125-0.126,0.272-0.225,0.442-0.295
	c0.168-0.074,0.35-0.109,0.542-0.109c0.129,0,0.252,0.016,0.369,0.048c0.118,0.033,0.23,0.079,0.332,0.14
	c0.104,0.059,0.197,0.132,0.282,0.216c0.087,0.082,0.157,0.175,0.22,0.281c0.061,0.099,0.107,0.209,0.141,0.329
	c0.03,0.117,0.049,0.24,0.049,0.367c0,0.19-0.035,0.372-0.109,0.54c-0.074,0.168-0.172,0.315-0.3,0.44
	c-0.126,0.126-0.272,0.226-0.441,0.298c-0.169,0.072-0.349,0.108-0.542,0.108c-0.192,0-0.374-0.036-0.542-0.108
	c-0.17-0.072-0.317-0.172-0.442-0.298c-0.128-0.125-0.229-0.272-0.303-0.44C99.998,11.733,99.962,11.552,99.962,11.361"/>
</svg>