                                <svg version="1.1" xmlns="http://www.w3.org/2000/svg" xmlns:xlink="http://www.w3.org/1999/xlink" x="0px" y="0px"
	 width="167.596px" height="38.478px" viewBox="0 0 167.596 38.478" enable-background="new 0 0 167.596 38.478"
	 xml:space="preserve" focusable="false">
<path fill="#011E41" d="M0,19.2v19.2h19.2h19.2V19.2V0H19.2H0V19.2z M20.5,2.1c0.7,0.1,2,0.2,2.2,0.3c0.1,0,0.1,0.1,0.1,0.7
	c-0.2,3.6-1.8,7.1-4.6,9.9c-3,3-6.9,4.8-11,5.2c-0.3,0-1.6,0.1-2.8,0.1H2.1l0-0.5C2.3,15.7,3,13.5,4,11.6c1.8-3.5,4.8-6.4,8.3-8
	C14.9,2.4,17.8,1.9,20.5,2.1z M25.5,3.3c6,2.4,10.2,7.9,10.8,14.4c0.1,1,0,3.2-0.1,4.1c-0.4,2.7-1.5,5.4-3.1,7.5
	c-2,2.7-4.8,4.8-7.9,6c-0.3,0.1-0.5,0.2-0.5,0.2c-0.1-0.1,0-32.5,0-32.5C24.7,3,25.1,3.1,25.5,3.3z M7.2,20.2
	c5.8,0.5,11.4,4.3,14,9.4c0.9,1.8,1.5,3.8,1.6,5.7l0,0.7l-0.3,0.1c-1.2,0.3-3.2,0.4-4.5,0.3c-5.4-0.4-10.3-3.3-13.2-7.8
	c-1.6-2.4-2.5-5.1-2.7-8.1l0-0.3h2.2C5.6,20.2,6.9,20.2,7.2,20.2z M48.1,10.8c0,4.6,0,7.1,0.1,7.4c0.1,1,0.4,1.8,0.9,2.5
	c0.7,1.1,1.8,1.8,3.4,2.1c0.5,0.1,0.8,0.1,4.1,0.1l3.6,0v-1.5v-1.5l-3.3,0c-3,0-3.3,0-3.6-0.1c-1-0.3-1.5-0.8-1.8-1.8
	c-0.1-0.3-0.1-0.5-0.1-1.8v-1.5l4,0l4,0V13v-1.5l-4,0l-4,0l0-2.3l0-2.2h4.3h4.3V5.4V3.9H54h-5.9V10.8z M62.4,13.4v9.5H64h1.6v-9.5
	V3.9H64h-1.6V13.4z M98.7,10.4c0,4.1,0,6.8,0.1,7.2c0.2,2.3,1.1,3.8,2.7,4.6c0.8,0.4,1.6,0.6,2.8,0.6l0.7,0v-1.5v-1.5l-0.4,0
	c-0.8-0.1-1.3-0.3-1.8-0.7c-0.3-0.3-0.5-0.6-0.7-1.1c-0.1-0.3-0.1-0.5-0.1-3.1l0-2.8h1.5h1.5v-1.5V9.1h-1.5H102V6.5V3.9h-1.6h-1.6
	V10.4z M133.6,13.4v9.5h1.6h1.6v-9.5V3.9h-1.6h-1.6V13.4z M90.5,8.7c-3.4,0.3-6.2,2.7-6.8,6c-0.1,0.7-0.1,2.2,0.1,2.9
	c0.6,2.8,2.8,5,5.8,5.6c0.8,0.2,2.3,0.2,3.1,0c0.9-0.2,1.8-0.5,2.6-1c0.4-0.2,1.1-0.8,1.3-1l0.2-0.2l-1-1.1l-1-1.1L94.4,19
	c-1,0.9-2.1,1.3-3.4,1.2c-0.6,0-0.8-0.1-1.2-0.2c-1.3-0.4-2.2-1.4-2.7-2.8c-0.2-0.6-0.2-1.7-0.1-2.4c0.4-1.8,1.7-2.9,3.5-3.2
	c0.5-0.1,1.3,0,1.8,0.1c0.6,0.1,1.4,0.6,1.9,1l0.4,0.4l0.6-0.6c0.3-0.3,0.8-0.8,1-1.1l0.5-0.5l-0.4-0.4C94.8,9.2,92.8,8.5,90.5,8.7z
	 M74.4,8.7c-3.3,0.3-5.7,2.3-6.4,5.5c-0.1,0.5-0.1,0.7-0.1,1.8c0,1,0,1.3,0.1,1.7c0.5,2.7,2.3,4.6,5,5.2c1.5,0.4,3.3,0.4,4.8-0.1
	c1-0.3,2.1-0.9,2.9-1.7l0.4-0.4l-1-1l-1-1L78.8,19c-0.9,0.8-1.7,1.2-2.9,1.4c-0.4,0.1-0.7,0.1-1.2,0c-2.1-0.2-3.3-1.4-3.6-3.3l0-0.2
	h5.4h5.4l0-0.6c0.2-2.2-0.6-4.2-2-5.6C78.5,9.2,76.6,8.5,74.4,8.7z M76.1,11.6c0.6,0.2,1.1,0.4,1.5,0.8c0.6,0.5,0.9,1.2,1,1.8l0,0.3
	l-3.7,0l-3.7,0v-0.2c0-0.3,0.2-0.9,0.5-1.2c0.5-0.8,1.5-1.4,2.5-1.6C74.7,11.5,75.6,11.5,76.1,11.6z M122.9,8.8
	c-0.8,0.1-1.5,0.3-2.2,0.7c-2.7,1.3-4.2,3.8-4,6.8c0.1,1.8,0.7,3.3,1.9,4.6c1.4,1.4,3.2,2.2,5.2,2.3c1.4,0.1,2.5-0.2,3.7-0.8
	c3.2-1.6,4.7-5,3.8-8.4c-0.2-0.6-0.6-1.6-1-2.1c-1.1-1.6-2.7-2.7-4.7-3.1C125,8.7,123.6,8.7,122.9,8.8z M125.1,11.8
	c0.2,0,0.6,0.2,0.9,0.3c0.4,0.2,0.6,0.3,1,0.8c0.6,0.6,0.8,0.9,1,1.6c0.3,1,0.3,1.9,0,2.9c-0.2,0.7-0.5,1.1-1.1,1.6
	c-0.6,0.6-1.1,0.9-1.9,1.1c-0.6,0.2-1.6,0.2-2.2,0c-1.3-0.4-2.2-1.1-2.7-2.3c-0.3-0.7-0.4-1.1-0.4-1.9c0-0.8,0.1-1.2,0.4-1.9
	C121.1,12.3,123.1,11.3,125.1,11.8z M114.4,8.9c-0.9,0.1-1.7,0.4-2.4,0.9c-0.4,0.3-0.8,0.7-1,1.1l-0.1,0.2l0-1v-1h-1.6h-1.6V16v6.9
	h1.6h1.6l0-4l0-4l0.1-0.4c0.2-0.7,0.4-1,0.9-1.5c0.5-0.4,0.9-0.7,1.5-0.9c0.4-0.1,0.6-0.1,1.3-0.1c0.4,0,0.9,0,1.1,0.1l0.2,0.1v-1.6
	c0-1.5,0-1.6-0.1-1.6C115.8,8.9,114.8,8.8,114.4,8.9z M139.4,13.6c0,4.9,0,5,0.3,5.9c0.6,1.9,2.2,3.1,4.4,3.6c0.8,0.2,2.5,0.1,3.3,0
	c2.3-0.5,3.9-1.9,4.4-4c0.2-0.8,0.2-1.6,0.2-5.8V9.1h-1.7h-1.7v4.3c0,4.1,0,4.3-0.1,4.8c-0.1,0.6-0.3,0.9-0.7,1.3
	c-0.5,0.5-1.2,0.8-2.1,0.8c-1,0-1.7-0.3-2.3-0.8c-0.3-0.4-0.5-0.7-0.6-1.2c-0.1-0.4-0.1-0.6-0.1-4.7V9.1h-1.6h-1.6V13.6z M154.1,9.2
	c0,0,1.1,1.5,2.4,3.2c1.3,1.7,2.3,3.2,2.3,3.2c0,0-1.2,1.7-2.6,3.6c-1.4,2-2.6,3.6-2.6,3.6c0,0,0.8,0,1.8,0h1.7l1.7-2.4
	c1.7-2.4,1.7-2.4,1.8-2.3c0.1,0.1,0.8,1.2,1.7,2.4c0.9,1.3,1.7,2.3,1.7,2.3c0,0,0.8,0,1.8,0l1.7,0l-2.5-3.5
	c-1.4-1.9-2.6-3.6-2.6-3.6c-0.1-0.1,0-0.3,2.2-3.3c1.3-1.7,2.3-3.2,2.4-3.2c0-0.1-0.3-0.1-1.7-0.1l-1.8,0l-1.5,2
	c-0.8,1.1-1.5,2-1.5,2c0,0-0.7-0.9-1.5-2l-1.5-2h-1.8C154.3,9.1,154,9.1,154.1,9.2z M71.2,28c-0.5,0.1-1.1,0.5-1.5,0.8
	c-0.4,0.4-0.7,0.8-0.9,1.4c-0.1,0.3-0.1,0.5-0.1,1.1c0,0.7,0,0.8,0.1,1.1c0.2,0.6,0.5,1,0.9,1.4c0.7,0.7,1.5,1,2.6,0.9
	c1.5-0.1,2.7-1,3.2-2.5c0.1-0.2,0.1-0.5,0.1-0.9c0-1.2-0.5-2.2-1.5-2.8c-0.6-0.4-1.1-0.6-1.9-0.6C71.7,27.9,71.4,28,71.2,28z
	 M72.9,29.3c0.8,0.4,1.3,1.1,1.3,2c0,0.9-0.5,1.7-1.3,2c-0.5,0.2-1.1,0.2-1.6,0c-0.5-0.2-1-0.7-1.1-1.1c-0.2-0.5-0.2-1.3,0-1.7
	c0.1-0.4,0.5-0.8,0.8-1C71.5,29.1,72.3,29.1,72.9,29.3z M102.1,28c-0.6,0.2-1,0.6-1.2,1c-0.2,0.4-0.2,1,0,1.5
	c0.3,0.5,0.6,0.8,1.6,1.2c1.1,0.4,1.3,0.6,1.3,1c0,1-1.7,1-2.3,0c-0.1-0.1-0.2-0.3-0.2-0.3c0,0-0.3,0.1-0.5,0.3l-0.5,0.3l0.2,0.3
	c0.5,0.9,1.7,1.4,2.9,1.3c0.9-0.1,1.5-0.5,1.8-1.1c0.1-0.3,0.1-0.4,0.1-0.8c0-0.4,0-0.6-0.1-0.8c-0.3-0.6-0.7-0.9-2-1.4
	c-0.9-0.4-1.1-0.6-0.9-1c0.3-0.6,1.4-0.5,1.7,0.2c0.1,0.1,0.1,0.1,0.6-0.2l0.5-0.3l-0.2-0.3c-0.2-0.3-0.5-0.5-0.9-0.7
	c-0.3-0.1-0.4-0.2-0.9-0.2C102.6,27.9,102.3,28,102.1,28z M112.1,28c-1.1,0.4-1.6,1.3-1.3,2.3c0.2,0.7,0.6,1,1.7,1.5
	c1.1,0.4,1.3,0.6,1.3,1.1c-0.1,0.4-0.4,0.6-1,0.6c-0.3,0-0.5,0-0.7-0.1c-0.3-0.1-0.7-0.5-0.8-0.7l-0.1-0.1l-0.3,0.2
	c-0.2,0.1-0.4,0.3-0.5,0.3l-0.2,0.1l0.1,0.3c0.5,1,1.8,1.5,3.2,1.3c0.5-0.1,0.9-0.3,1.2-0.6c0.3-0.3,0.4-0.7,0.4-1.2
	c0-1.1-0.4-1.6-2-2.2c-0.8-0.3-1-0.4-1.1-0.6c-0.2-0.4,0.1-0.7,0.6-0.8c0.4,0,0.7,0.1,1,0.4l0.2,0.2l0.5-0.3
	c0.3-0.2,0.5-0.4,0.5-0.4c0,0-0.1-0.2-0.3-0.4c-0.2-0.2-0.4-0.4-0.7-0.5c-0.3-0.2-0.4-0.2-1-0.2C112.6,27.9,112.3,28,112.1,28z
	 M130.5,28c-1,0.3-1.9,1-2.3,1.9c-0.2,0.3-0.3,1-0.3,1.4c0,1,0.5,2.1,1.3,2.7c0.7,0.5,1.4,0.7,2.2,0.7c1,0,1.8-0.3,2.5-1
	c0.5-0.5,0.7-0.9,0.9-1.5c0.2-0.8,0.1-1.7-0.3-2.5c-0.3-0.5-0.9-1.1-1.4-1.4c-0.2-0.1-0.6-0.2-0.8-0.3
	C131.9,27.9,130.9,27.9,130.5,28z M132.3,29.4c0.7,0.3,1.1,0.9,1.2,1.6c0.1,0.6-0.2,1.5-0.6,1.9c-0.5,0.4-1.2,0.7-1.8,0.5
	c-0.9-0.2-1.6-0.8-1.7-1.8c-0.2-1.1,0.5-2.2,1.6-2.5C131.3,29.1,131.9,29.2,132.3,29.4z M48.1,31.3v3.3h0.7h0.7v-1.1v-1.1h0.7
	c0.4,0,0.8,0,1-0.1c0.7-0.1,1.2-0.6,1.5-1.2c0.2-0.4,0.2-0.4,0.2-1c0-0.6,0-0.6-0.2-0.9c-0.2-0.4-0.6-0.8-1-1l-0.3-0.2l-1.6,0
	l-1.6,0L48.1,31.3L48.1,31.3z M51,29.4c0.3,0.2,0.4,0.4,0.4,0.7c0,0.3,0,0.4-0.1,0.5c-0.2,0.4-0.4,0.4-1.2,0.4h-0.7v-0.9v-0.9l0.7,0
	C50.8,29.3,50.9,29.3,51,29.4z M58.4,31.3v3.3h0.7h0.7v-1.1v-1.1h0.5h0.5l0.7,1.1l0.7,1.1h0.8h0.8l-0.1-0.2c0-0.1-0.4-0.7-0.8-1.3
	c-0.6-1-0.7-1.2-0.6-1.2c0.2-0.1,0.6-0.6,0.8-0.8c0.6-1.1,0.2-2.4-0.9-2.9l-0.3-0.2L60,28l-1.6,0L58.4,31.3L58.4,31.3z M61.4,29.4
	c0.5,0.4,0.5,1.3-0.1,1.6c-0.2,0.1-0.3,0.1-0.9,0.1h-0.7v-0.9v-0.9l0.7,0C61.2,29.3,61.3,29.3,61.4,29.4z M81.2,31.3v3.3h0.7h0.7
	v-1.4v-1.4h1.2H85v-0.6v-0.6h-1.2h-1.2V30v-0.7h1.4h1.4v-0.6V28h-2.1h-2.1V31.3z M90.9,30.6l0,2.6l0.2,0.3c0.3,0.6,0.7,0.9,1.3,1
	c0.2,0,0.8,0.1,1.5,0.1h1.2V34v-0.6l-1.2,0c-1,0-1.2,0-1.3-0.1c-0.3-0.1-0.4-0.4-0.4-0.9l0-0.5h1.3h1.3v-0.6v-0.6h-1.3h-1.3v-0.6
	v-0.6h1.4h1.4v-0.6V28H93h-2.1L90.9,30.6z M120.9,31.3v3.3h0.7h0.7v-3.3V28h-0.7h-0.7V31.3z M140.6,31.3v3.3h0.7h0.7v-2
	c0-1.1,0-2,0-2c0,0,0.7,0.9,1.5,2l1.5,2h0.7h0.7v-3.3V28h-0.7h-0.7v2.1c0,1.2,0,2.1,0,2.1c0,0-0.7-0.9-1.5-2.1l-1.5-2.1h-0.7h-0.7
	V31.3z M153.2,31.2c-0.8,1.8-1.5,3.2-1.5,3.3c0,0.1,0,0.1,0.7,0.1h0.7l0.3-0.7c0.2-0.4,0.3-0.7,0.4-0.7c0-0.1,0.4-0.1,1.2-0.1h1.2
	l0.3,0.7l0.3,0.7h0.7h0.7l-0.5-1c-0.3-0.6-0.9-2-1.5-3.3l-1-2.3H155h-0.4L153.2,31.2z M155.4,31.5l0.2,0.4H155c-0.3,0-0.6,0-0.6-0.1
	c0,0,0.1-0.3,0.3-0.7l0.3-0.6l0.1,0.3C155.2,30.9,155.3,31.2,155.4,31.5z M163.7,31.3v3.3h2h2V34v-0.6l-1.3,0l-1.3,0l0-2.7l0-2.7
	h-0.7h-0.7V31.3z"/>
</svg>
       