<?xml version="1.0" encoding="utf-8"?>
<!-- Generator: Adobe Illustrator 16.0.0, SVG Export Plug-In . SVG Version: 6.00 Build 0)  -->
<!DOCTYPE svg PUBLIC "-//W3C//DTD SVG 1.1//EN" "http://www.w3.org/Graphics/SVG/1.1/DTD/svg11.dtd">
<svg version="1.1" id="Layer_1" xmlns="http://www.w3.org/2000/svg" xmlns:xlink="http://www.w3.org/1999/xlink" x="0px" y="0px"
	 width="96px" height="59px" viewBox="0 0 96 59" enable-background="new 0 0 96 59" xml:space="preserve">
<g>
	<defs>
		<polygon id="SVGID_1_" points="21.649,16.571 4.418,12.212 12.882,28.114 0.562,41.136 18.306,41.617 23.218,59 32.502,43.586 
			46.973,45.678 30.661,39.188 23.624,55.417 21.342,37.583 4.378,39.546 17.526,28.792 7.172,14.475 22.943,21.05 30.524,4.74 
			32.001,15.241 34.258,12.939 30.929,1.159 		"/>
	</defs>
	<clipPath id="SVGID_2_">
		<use xlink:href="#SVGID_1_"  overflow="visible"/>
	</clipPath>
	
		<linearGradient id="SVGID_3_" gradientUnits="userSpaceOnUse" x1="-0.1118" y1="58.5327" x2="0.8885" y2="58.5327" gradientTransform="matrix(-38.4274 -4.1722 -4.1722 38.4274 282.1528 -2217.6304)">
		<stop  offset="0" style="stop-color:#DCDDDD"/>
		<stop  offset="0.1868" style="stop-color:#DCDDDD"/>
		<stop  offset="0.4363" style="stop-color:#E5E5E5"/>
		<stop  offset="0.8783" style="stop-color:#FAFAFA"/>
		<stop  offset="1" style="stop-color:#FFFFFF"/>
	</linearGradient>
	<polygon clip-path="url(#SVGID_2_)" fill="url(#SVGID_3_)" points="46.432,64.075 -5.531,58.326 1.103,-3.916 53.065,1.833 	"/>
</g>
<g>
	<defs>
		<polygon id="SVGID_4_" points="31.648,0 21.873,15.093 4.793,10.156 12.736,26.334 0,38.933 17.719,40.011 22.066,57.55 
			31.845,42.458 46.239,45.036 30.147,38 22.587,53.984 20.885,36.082 3.866,37.474 17.356,27.168 7.473,12.511 23.022,19.614 
			31.125,3.565 32.261,14.111 34.593,11.886 		"/>
	</defs>
	<clipPath id="SVGID_5_">
		<use xlink:href="#SVGID_4_"  overflow="visible"/>
	</clipPath>
	
		<linearGradient id="SVGID_6_" gradientUnits="userSpaceOnUse" x1="-0.1069" y1="58.5229" x2="0.8906" y2="58.5229" gradientTransform="matrix(46.3446 0 0 -46.3446 4.9817 2740.9958)">
		<stop  offset="0" style="stop-color:#FEEE50"/>
		<stop  offset="0.13" style="stop-color:#E09D00"/>
		<stop  offset="0.48" style="stop-color:#FBF6AF"/>
		<stop  offset="0.58" style="stop-color:#D38B02"/>
		<stop  offset="0.82" style="stop-color:#F8F283"/>
		<stop  offset="0.91" style="stop-color:#ED7000"/>
		<stop  offset="1" style="stop-color:#FEEE00"/>
	</linearGradient>
	<rect clip-path="url(#SVGID_5_)" fill="url(#SVGID_6_)" width="46.239" height="57.55"/>
</g>
<g>
	<defs>
		<rect id="SVGID_7_" width="96" height="59"/>
	</defs>
	<clipPath id="SVGID_8_">
		<use xlink:href="#SVGID_7_"  overflow="visible"/>
	</clipPath>
	<path clip-path="url(#SVGID_8_)" fill="#DFB200" d="M56.049,36.594c-0.63,0-1.145-0.229-1.55-0.641
		c-0.582-0.592-0.565-1.324-0.565-2.337c0-1.012-0.017-1.742,0.565-2.334c0.405-0.41,0.92-0.642,1.55-0.642
		c1.074,0,1.913,0.625,2.114,1.851h-1.137c-0.113-0.469-0.403-0.831-0.97-0.831c-0.306,0-0.558,0.115-0.717,0.304
		c-0.219,0.247-0.284,0.527-0.284,1.652c0,1.128,0.065,1.408,0.284,1.653c0.159,0.19,0.411,0.306,0.717,0.306
		c0.566,0,0.856-0.363,0.97-0.831h1.137C57.962,35.969,57.114,36.594,56.049,36.594"/>
	<path clip-path="url(#SVGID_8_)" fill="#DFB200" d="M62.61,35.954c-0.403,0.411-0.896,0.64-1.55,0.64s-1.153-0.229-1.558-0.64
		c-0.582-0.593-0.565-1.324-0.565-2.336s-0.017-1.743,0.565-2.335c0.404-0.411,0.904-0.642,1.558-0.642s1.146,0.23,1.55,0.642
		c0.582,0.592,0.572,1.323,0.572,2.335S63.192,35.361,62.61,35.954 M61.779,31.973c-0.161-0.189-0.411-0.312-0.719-0.312
		c-0.307,0-0.565,0.122-0.726,0.312c-0.219,0.247-0.274,0.518-0.274,1.645s0.056,1.397,0.274,1.645
		c0.16,0.19,0.419,0.313,0.726,0.313c0.308,0,0.558-0.122,0.719-0.313c0.218-0.247,0.282-0.518,0.282-1.645
		S61.997,32.22,61.779,31.973"/>
	<polygon clip-path="url(#SVGID_8_)" fill="#DFB200" points="67.726,36.546 65.45,32.951 65.45,36.546 64.329,36.546 64.329,30.689 
		65.327,30.689 67.605,34.275 67.605,30.689 68.727,30.689 68.727,36.546 	"/>
	<path clip-path="url(#SVGID_8_)" fill="#DFB200" d="M71.647,36.594c-0.872,0-1.534-0.189-2.099-0.773l0.727-0.739
		c0.363,0.371,0.856,0.494,1.39,0.494c0.659,0,1.015-0.256,1.015-0.724c0-0.206-0.056-0.379-0.176-0.495
		c-0.113-0.106-0.244-0.163-0.508-0.204l-0.695-0.1c-0.492-0.073-0.856-0.229-1.114-0.485c-0.274-0.278-0.411-0.657-0.411-1.15
		c0-1.045,0.758-1.776,2-1.776c0.791,0,1.365,0.197,1.857,0.682l-0.709,0.717c-0.364-0.354-0.8-0.403-1.181-0.403
		c-0.596,0-0.888,0.338-0.888,0.74c0,0.148,0.049,0.304,0.17,0.419c0.113,0.105,0.298,0.198,0.533,0.229l0.678,0.1
		c0.525,0.073,0.856,0.223,1.099,0.451c0.306,0.296,0.442,0.724,0.442,1.242C73.777,35.954,72.849,36.594,71.647,36.594"/>
	<path clip-path="url(#SVGID_8_)" fill="#DFB200" d="M76.859,36.594c-1.179,0-2.115-0.814-2.115-2.057v-3.849h1.123v3.809
		c0,0.675,0.389,1.078,0.992,1.078c0.605,0,1.001-0.403,1.001-1.078v-3.809h1.114v3.849C78.974,35.78,78.038,36.594,76.859,36.594"
		/>
	<polygon clip-path="url(#SVGID_8_)" fill="#DFB200" points="84.308,36.546 84.308,33.132 83.209,35.354 82.451,35.354 
		81.345,33.132 81.345,36.546 80.223,36.546 80.223,30.689 81.33,30.689 82.83,33.856 84.324,30.689 85.43,30.689 85.43,36.546 	"/>
	<polygon clip-path="url(#SVGID_8_)" fill="#DFB200" points="86.768,36.546 86.768,30.689 90.553,30.689 90.553,31.711 
		87.89,31.711 87.89,33.083 90.157,33.083 90.157,34.103 87.89,34.103 87.89,35.526 90.553,35.526 90.553,36.546 	"/>
	<path clip-path="url(#SVGID_8_)" fill="#DFB200" d="M94.702,36.546l-1.123-2.336h-0.808v2.336h-1.122V30.69h2.252
		c1.172,0,1.864,0.815,1.864,1.792c0,0.822-0.491,1.333-1.049,1.539L96,36.546H94.702z M93.829,31.711h-1.058v1.545h1.058
		c0.492,0,0.814-0.32,0.814-0.774C94.643,32.031,94.321,31.711,93.829,31.711"/>
	<polygon clip-path="url(#SVGID_8_)" fill="#FFFFFF" points="26.021,23.118 26.021,23.708 24.362,23.708 24.362,28.122 
		23.685,28.122 23.685,23.708 22.027,23.708 22.027,23.118 	"/>
	<path clip-path="url(#SVGID_8_)" fill="#FFFFFF" d="M26.274,23.108h0.606v1.86c0.142-0.183,0.271-0.312,0.383-0.386
		c0.194-0.129,0.435-0.193,0.724-0.193c0.518,0,0.869,0.185,1.052,0.555c0.101,0.202,0.151,0.482,0.151,0.841v2.336h-0.616v-2.299
		c0-0.268-0.033-0.463-0.1-0.588c-0.109-0.2-0.314-0.3-0.614-0.3c-0.248,0-0.475,0.087-0.676,0.262
		c-0.204,0.175-0.304,0.505-0.304,0.991v1.934h-0.606V23.108z"/>
	<path clip-path="url(#SVGID_8_)" fill="#FFFFFF" d="M32.012,24.57c0.238,0.121,0.419,0.278,0.542,0.469
		c0.12,0.183,0.2,0.397,0.24,0.641c0.036,0.167,0.053,0.437,0.053,0.806h-2.611c0.01,0.374,0.096,0.672,0.254,0.898
		c0.16,0.225,0.407,0.337,0.742,0.337c0.312,0,0.562-0.106,0.747-0.318c0.107-0.122,0.182-0.265,0.226-0.427h0.589
		c-0.016,0.133-0.068,0.283-0.155,0.447c-0.088,0.164-0.186,0.299-0.294,0.403c-0.182,0.182-0.407,0.304-0.674,0.368
		c-0.145,0.036-0.308,0.054-0.489,0.054c-0.443,0-0.818-0.165-1.126-0.496c-0.307-0.331-0.462-0.793-0.462-1.388
		c0-0.586,0.156-1.062,0.466-1.428c0.311-0.365,0.717-0.548,1.217-0.548C31.529,24.389,31.775,24.45,32.012,24.57 M32.224,25.996
		c-0.024-0.266-0.081-0.479-0.168-0.637c-0.164-0.296-0.436-0.443-0.818-0.443c-0.274,0-0.504,0.102-0.689,0.305
		c-0.185,0.204-0.284,0.462-0.295,0.775H32.224z"/>
	<path clip-path="url(#SVGID_8_)" fill="#FFFFFF" d="M35.032,23.118h2.119c0.577,0,0.987,0.174,1.232,0.523
		c0.144,0.207,0.214,0.445,0.214,0.715c0,0.315-0.088,0.575-0.266,0.776c-0.091,0.107-0.223,0.205-0.396,0.293
		c0.254,0.098,0.443,0.208,0.569,0.331c0.222,0.218,0.333,0.519,0.333,0.903c0,0.322-0.099,0.614-0.299,0.875
		c-0.298,0.391-0.772,0.586-1.42,0.586h-2.087V23.118z M36.9,25.233c0.283,0,0.502-0.04,0.659-0.119
		c0.248-0.125,0.37-0.351,0.37-0.676c0-0.327-0.13-0.549-0.393-0.663c-0.148-0.063-0.368-0.096-0.66-0.096h-1.194v1.554H36.9z
		 M37.127,27.531c0.41,0,0.704-0.12,0.878-0.36c0.11-0.151,0.165-0.334,0.165-0.549c0-0.362-0.161-0.607-0.481-0.739
		c-0.17-0.07-0.396-0.105-0.676-0.105h-1.33v1.753H37.127z"/>
	<path clip-path="url(#SVGID_8_)" fill="#FFFFFF" d="M41.468,24.57c0.237,0.121,0.418,0.278,0.542,0.469
		c0.12,0.183,0.2,0.397,0.24,0.641c0.036,0.167,0.053,0.437,0.053,0.806h-2.611c0.011,0.374,0.096,0.672,0.255,0.898
		c0.16,0.225,0.406,0.337,0.741,0.337c0.312,0,0.562-0.106,0.748-0.318c0.105-0.122,0.181-0.265,0.225-0.427h0.589
		c-0.015,0.133-0.068,0.283-0.155,0.447c-0.088,0.164-0.186,0.299-0.293,0.403c-0.183,0.182-0.407,0.304-0.675,0.368
		c-0.144,0.036-0.306,0.054-0.488,0.054c-0.444,0-0.819-0.165-1.127-0.496c-0.308-0.331-0.462-0.793-0.462-1.388
		c0-0.586,0.155-1.062,0.466-1.428c0.31-0.365,0.716-0.548,1.217-0.548C40.985,24.389,41.23,24.45,41.468,24.57 M41.678,25.996
		c-0.024-0.266-0.081-0.479-0.169-0.637c-0.164-0.296-0.436-0.443-0.818-0.443c-0.274,0-0.503,0.102-0.688,0.305
		c-0.186,0.204-0.283,0.462-0.295,0.775H41.678z"/>
	<path clip-path="url(#SVGID_8_)" fill="#FFFFFF" d="M43.153,26.977c0.018,0.201,0.069,0.356,0.152,0.463
		c0.153,0.194,0.419,0.291,0.797,0.291c0.226,0,0.424-0.048,0.595-0.146c0.172-0.099,0.257-0.25,0.257-0.456
		c0-0.156-0.068-0.273-0.206-0.354c-0.088-0.05-0.262-0.108-0.52-0.174l-0.484-0.123c-0.308-0.077-0.535-0.163-0.682-0.258
		c-0.262-0.167-0.392-0.396-0.392-0.689c0-0.346,0.124-0.625,0.369-0.839c0.246-0.213,0.577-0.32,0.992-0.32
		c0.542,0,0.935,0.161,1.175,0.483c0.149,0.205,0.224,0.425,0.219,0.661h-0.57c-0.012-0.137-0.061-0.263-0.146-0.375
		c-0.14-0.162-0.381-0.241-0.725-0.241c-0.229,0-0.403,0.043-0.521,0.132c-0.118,0.089-0.177,0.207-0.177,0.351
		c0,0.158,0.078,0.285,0.232,0.381c0.091,0.057,0.224,0.107,0.399,0.15l0.402,0.099c0.437,0.107,0.73,0.21,0.878,0.31
		c0.235,0.158,0.352,0.403,0.352,0.74c0,0.326-0.121,0.606-0.365,0.843c-0.244,0.237-0.615,0.355-1.112,0.355
		c-0.538,0-0.918-0.123-1.14-0.369c-0.224-0.246-0.344-0.55-0.36-0.912H43.153z"/>
	<path clip-path="url(#SVGID_8_)" fill="#FFFFFF" d="M46.062,23.462h0.606v1.008h0.58v0.508h-0.58v2.371
		c0,0.126,0.043,0.21,0.129,0.253c0.047,0.025,0.126,0.038,0.237,0.038c0.029,0,0.061-0.001,0.095-0.003
		c0.035-0.002,0.074-0.007,0.119-0.015v0.499c-0.07,0.021-0.142,0.034-0.216,0.043c-0.075,0.008-0.157,0.012-0.244,0.012
		c-0.282,0-0.474-0.073-0.575-0.218c-0.101-0.146-0.151-0.335-0.151-0.57v-2.408h-0.481v-0.508h0.481V23.462z"/>
	<path clip-path="url(#SVGID_8_)" fill="#FFFFFF" d="M49.265,23.118h2.118c0.578,0,0.987,0.174,1.231,0.523
		c0.145,0.207,0.217,0.445,0.217,0.715c0,0.315-0.09,0.575-0.268,0.776c-0.09,0.107-0.223,0.205-0.396,0.293
		c0.255,0.098,0.442,0.208,0.569,0.331c0.222,0.218,0.333,0.519,0.333,0.903c0,0.322-0.1,0.614-0.298,0.875
		c-0.299,0.391-0.771,0.586-1.422,0.586h-2.086V23.118z M51.133,25.233c0.281,0,0.501-0.04,0.659-0.119
		c0.246-0.125,0.368-0.351,0.368-0.676c0-0.327-0.13-0.549-0.393-0.663c-0.147-0.063-0.367-0.096-0.658-0.096h-1.194v1.554H51.133z
		 M51.359,27.531c0.411,0,0.703-0.12,0.878-0.36c0.111-0.151,0.165-0.334,0.165-0.549c0-0.362-0.16-0.607-0.48-0.739
		c-0.17-0.07-0.396-0.105-0.678-0.105h-1.328v1.753H51.359z"/>
	<path clip-path="url(#SVGID_8_)" fill="#FFFFFF" d="M53.503,24.47h0.58v0.621c0.047-0.121,0.161-0.269,0.344-0.441
		c0.183-0.173,0.392-0.261,0.63-0.261c0.011,0,0.03,0.002,0.057,0.004c0.027,0.003,0.072,0.007,0.137,0.015v0.635
		c-0.035-0.007-0.068-0.012-0.099-0.014c-0.029-0.003-0.063-0.004-0.099-0.004c-0.303,0-0.535,0.1-0.698,0.3
		c-0.165,0.2-0.245,0.43-0.245,0.69v2.107h-0.606V24.47z"/>
	<path clip-path="url(#SVGID_8_)" fill="#FFFFFF" d="M57.413,25.919c0.137-0.018,0.229-0.076,0.276-0.175
		c0.025-0.055,0.041-0.132,0.041-0.235c0-0.208-0.074-0.359-0.218-0.452c-0.146-0.094-0.354-0.141-0.623-0.141
		c-0.313,0-0.536,0.085-0.665,0.257c-0.074,0.095-0.12,0.237-0.144,0.424h-0.562c0.011-0.451,0.153-0.767,0.428-0.943
		c0.276-0.176,0.594-0.266,0.956-0.266c0.42,0,0.762,0.084,1.025,0.249c0.26,0.168,0.391,0.423,0.391,0.767v2.097
		c0,0.064,0.012,0.114,0.038,0.152c0.027,0.04,0.081,0.059,0.163,0.059c0.026,0,0.058-0.002,0.091-0.005
		c0.034-0.004,0.07-0.01,0.109-0.016v0.448c-0.096,0.028-0.168,0.044-0.218,0.052c-0.048,0.007-0.115,0.01-0.2,0.01
		c-0.211,0-0.361-0.074-0.455-0.223c-0.051-0.08-0.084-0.19-0.105-0.334c-0.122,0.163-0.297,0.304-0.527,0.424
		c-0.228,0.119-0.48,0.179-0.757,0.179c-0.33,0-0.601-0.103-0.811-0.307c-0.209-0.204-0.314-0.461-0.314-0.771
		c0-0.337,0.103-0.599,0.31-0.785c0.207-0.186,0.478-0.3,0.813-0.344L57.413,25.919z M56.146,27.57
		c0.127,0.102,0.276,0.152,0.451,0.152c0.212,0,0.416-0.048,0.612-0.146c0.335-0.162,0.502-0.431,0.502-0.809v-0.493
		c-0.072,0.049-0.167,0.09-0.281,0.124c-0.116,0.033-0.229,0.055-0.34,0.068l-0.361,0.043c-0.219,0.028-0.382,0.073-0.492,0.136
		c-0.188,0.106-0.281,0.275-0.281,0.507C55.956,27.33,56.02,27.469,56.146,27.57"/>
	<path clip-path="url(#SVGID_8_)" fill="#FFFFFF" d="M59.035,24.47h0.58v0.521c0.168-0.214,0.346-0.369,0.536-0.462
		c0.188-0.093,0.398-0.141,0.628-0.141c0.506,0,0.848,0.181,1.025,0.542c0.097,0.197,0.145,0.481,0.145,0.849v2.342h-0.604v-2.299
		c0-0.222-0.032-0.402-0.098-0.539c-0.107-0.228-0.301-0.34-0.581-0.34c-0.142,0-0.259,0.014-0.351,0.044
		c-0.164,0.049-0.309,0.15-0.433,0.299c-0.102,0.12-0.166,0.246-0.196,0.374s-0.045,0.312-0.045,0.551v1.911h-0.606V24.47z"/>
	<path clip-path="url(#SVGID_8_)" fill="#FFFFFF" d="M64.534,24.582c0.106,0.067,0.227,0.185,0.36,0.352v-1.825h0.58v5.013H64.93
		V27.62c-0.139,0.222-0.304,0.382-0.495,0.481c-0.188,0.099-0.408,0.148-0.651,0.148c-0.397,0-0.74-0.171-1.03-0.512
		c-0.29-0.343-0.436-0.797-0.436-1.365c0-0.531,0.133-0.991,0.398-1.381c0.263-0.389,0.642-0.584,1.134-0.584
		C64.122,24.407,64.349,24.465,64.534,24.582 M63.185,27.325c0.162,0.266,0.42,0.397,0.777,0.397c0.277,0,0.505-0.123,0.683-0.369
		c0.18-0.245,0.268-0.598,0.268-1.056c0-0.463-0.091-0.807-0.275-1.029c-0.184-0.224-0.411-0.335-0.681-0.335
		c-0.303,0-0.545,0.119-0.733,0.358c-0.186,0.237-0.281,0.585-0.281,1.047C62.942,26.731,63.024,27.06,63.185,27.325"/>
	<path clip-path="url(#SVGID_8_)" fill="#FFFFFF" d="M70.323,24.84c0.315,0.312,0.476,0.771,0.476,1.379
		c0,0.587-0.141,1.073-0.419,1.455c-0.281,0.383-0.713,0.574-1.299,0.574c-0.491,0-0.879-0.169-1.168-0.507
		c-0.287-0.339-0.432-0.794-0.432-1.365c0-0.612,0.152-1.099,0.455-1.462c0.303-0.363,0.711-0.544,1.223-0.544
		C69.618,24.371,70.005,24.527,70.323,24.84 M69.954,27.26c0.146-0.308,0.22-0.65,0.22-1.027c0-0.34-0.054-0.617-0.159-0.832
		c-0.167-0.335-0.457-0.504-0.868-0.504c-0.363,0-0.627,0.143-0.794,0.43c-0.164,0.286-0.247,0.631-0.247,1.036
		c0,0.388,0.083,0.712,0.247,0.971c0.167,0.259,0.429,0.388,0.788,0.388C69.536,27.722,69.806,27.568,69.954,27.26"/>
	<path clip-path="url(#SVGID_8_)" fill="#FFFFFF" d="M71.416,23.92v0.569h-0.499v0.481h0.499v3.151h0.607V24.97h0.588v-0.481h-0.588
		c0-0.391,0.017-0.634,0.052-0.729c0.035-0.095,0.143-0.143,0.324-0.143c0.024,0,0.051,0.001,0.078,0.003
		c0.026,0.002,0.07,0.008,0.134,0.016v-0.563c-0.052-0.007-0.097-0.011-0.137-0.014s-0.079-0.006-0.117-0.006
		c-0.4,0-0.671,0.105-0.811,0.313C71.468,23.482,71.424,23.667,71.416,23.92"/>
	<path clip-path="url(#SVGID_8_)" fill="#FFFFFF" d="M74.637,23.462h0.604v1.008h0.58v0.508h-0.58v2.371
		c0,0.126,0.044,0.21,0.13,0.253c0.047,0.025,0.126,0.038,0.237,0.038c0.029,0,0.061-0.001,0.095-0.003
		c0.034-0.002,0.074-0.007,0.118-0.015v0.499c-0.068,0.021-0.142,0.034-0.216,0.043c-0.075,0.008-0.156,0.012-0.244,0.012
		c-0.282,0-0.474-0.073-0.574-0.218c-0.102-0.146-0.15-0.335-0.15-0.57v-2.408h-0.481v-0.508h0.481V23.462z"/>
	<path clip-path="url(#SVGID_8_)" fill="#FFFFFF" d="M76.15,23.108h0.605v1.86c0.143-0.183,0.271-0.312,0.383-0.386
		c0.193-0.129,0.435-0.193,0.724-0.193c0.518,0,0.869,0.185,1.053,0.555c0.101,0.202,0.15,0.482,0.15,0.841v2.336H78.45v-2.299
		c0-0.268-0.033-0.463-0.1-0.588c-0.11-0.2-0.314-0.3-0.615-0.3c-0.248,0-0.475,0.087-0.675,0.262
		c-0.204,0.175-0.305,0.505-0.305,0.991v1.934H76.15V23.108z"/>
	<path clip-path="url(#SVGID_8_)" fill="#FFFFFF" d="M81.888,24.57c0.236,0.121,0.419,0.278,0.542,0.469
		c0.121,0.183,0.199,0.397,0.239,0.641c0.036,0.167,0.054,0.437,0.054,0.806h-2.611c0.011,0.374,0.096,0.672,0.254,0.898
		c0.16,0.225,0.407,0.337,0.741,0.337c0.313,0,0.562-0.106,0.748-0.318c0.106-0.122,0.182-0.265,0.226-0.427h0.589
		c-0.016,0.133-0.066,0.283-0.154,0.447c-0.087,0.164-0.186,0.299-0.294,0.403c-0.183,0.182-0.407,0.304-0.676,0.368
		c-0.144,0.036-0.307,0.054-0.487,0.054c-0.442,0-0.819-0.165-1.127-0.496c-0.308-0.331-0.463-0.793-0.463-1.388
		c0-0.586,0.156-1.062,0.467-1.428c0.31-0.365,0.716-0.548,1.218-0.548C81.405,24.389,81.65,24.45,81.888,24.57 M82.099,25.996
		c-0.024-0.266-0.08-0.479-0.169-0.637c-0.163-0.296-0.437-0.443-0.818-0.443c-0.273,0-0.502,0.102-0.689,0.305
		c-0.185,0.204-0.281,0.462-0.294,0.775H82.099z"/>
	<path clip-path="url(#SVGID_8_)" fill="#DFB200" d="M25.743,31.247c0.34,0.333,0.528,0.712,0.566,1.136h-0.651
		c-0.073-0.319-0.216-0.57-0.432-0.757c-0.214-0.186-0.517-0.277-0.906-0.277c-0.474,0-0.858,0.171-1.149,0.517
		c-0.291,0.345-0.437,0.873-0.437,1.585c0,0.585,0.132,1.058,0.395,1.421c0.264,0.363,0.656,0.546,1.178,0.546
		c0.481,0,0.846-0.192,1.098-0.576c0.132-0.202,0.233-0.467,0.298-0.797h0.651c-0.058,0.528-0.247,0.97-0.569,1.327
		c-0.385,0.43-0.906,0.645-1.56,0.645c-0.564,0-1.039-0.176-1.421-0.528c-0.505-0.466-0.756-1.184-0.756-2.156
		c0-0.736,0.189-1.342,0.568-1.813c0.41-0.514,0.975-0.77,1.695-0.77C24.927,30.748,25.404,30.914,25.743,31.247"/>
	<path clip-path="url(#SVGID_8_)" fill="#DFB200" d="M26.86,30.993h0.606v1.86c0.142-0.185,0.27-0.313,0.383-0.387
		c0.194-0.128,0.434-0.193,0.723-0.193c0.518,0,0.869,0.186,1.052,0.556c0.101,0.2,0.151,0.481,0.151,0.839v2.339H29.16v-2.3
		c0-0.268-0.033-0.465-0.099-0.589c-0.11-0.199-0.314-0.3-0.614-0.3c-0.249,0-0.475,0.087-0.677,0.262
		c-0.203,0.176-0.304,0.506-0.304,0.992v1.935H26.86V30.993z"/>
	<path clip-path="url(#SVGID_8_)" fill="#DFB200" d="M32.986,32.605c0.316,0.313,0.475,0.773,0.475,1.381
		c0,0.586-0.14,1.072-0.419,1.454c-0.28,0.384-0.711,0.574-1.299,0.574c-0.489,0-0.878-0.169-1.165-0.508
		c-0.289-0.339-0.433-0.793-0.433-1.364c0-0.611,0.152-1.099,0.456-1.461c0.303-0.362,0.71-0.544,1.222-0.544
		C32.282,32.137,32.669,32.293,32.986,32.605 M32.617,35.027c0.146-0.309,0.22-0.65,0.22-1.027c0-0.341-0.053-0.619-0.158-0.832
		c-0.168-0.336-0.457-0.505-0.868-0.505c-0.363,0-0.628,0.145-0.794,0.43c-0.166,0.286-0.249,0.632-0.249,1.037
		c0,0.388,0.083,0.711,0.249,0.971c0.167,0.259,0.428,0.388,0.788,0.388C32.2,35.488,32.47,35.334,32.617,35.027"/>
	<path clip-path="url(#SVGID_8_)" fill="#DFB200" d="M34.285,34.744c0.018,0.2,0.069,0.355,0.152,0.462
		c0.152,0.194,0.419,0.291,0.798,0.291c0.225,0,0.423-0.048,0.593-0.146c0.172-0.099,0.258-0.249,0.258-0.455
		c0-0.154-0.069-0.273-0.207-0.355c-0.087-0.049-0.261-0.106-0.52-0.173l-0.482-0.122c-0.309-0.078-0.536-0.164-0.682-0.26
		c-0.262-0.165-0.391-0.396-0.391-0.689c0-0.345,0.122-0.624,0.368-0.838c0.246-0.214,0.576-0.32,0.992-0.32
		c0.544,0,0.935,0.16,1.175,0.484c0.149,0.203,0.224,0.425,0.219,0.66h-0.57c-0.012-0.139-0.061-0.264-0.146-0.378
		c-0.14-0.16-0.381-0.24-0.727-0.24c-0.229,0-0.402,0.045-0.52,0.134c-0.119,0.088-0.177,0.205-0.177,0.35
		c0,0.159,0.076,0.286,0.232,0.382c0.09,0.056,0.224,0.105,0.399,0.149l0.402,0.1c0.436,0.106,0.729,0.209,0.878,0.309
		c0.235,0.158,0.352,0.404,0.352,0.741c0,0.324-0.122,0.605-0.365,0.842s-0.615,0.354-1.114,0.354c-0.536,0-0.917-0.123-1.139-0.369
		c-0.224-0.245-0.343-0.55-0.359-0.911H34.285z"/>
	<path clip-path="url(#SVGID_8_)" fill="#DFB200" d="M39.283,32.336c0.237,0.121,0.418,0.278,0.542,0.47
		c0.12,0.183,0.2,0.396,0.24,0.64c0.035,0.168,0.053,0.438,0.053,0.807h-2.612c0.012,0.374,0.097,0.673,0.256,0.897
		c0.16,0.226,0.406,0.338,0.741,0.338c0.313,0,0.562-0.105,0.748-0.317c0.107-0.123,0.181-0.265,0.226-0.427h0.588
		c-0.016,0.134-0.066,0.283-0.155,0.446c-0.087,0.164-0.186,0.299-0.294,0.403c-0.181,0.181-0.407,0.304-0.674,0.367
		c-0.144,0.036-0.307,0.055-0.489,0.055c-0.443,0-0.818-0.166-1.126-0.495c-0.308-0.332-0.462-0.794-0.462-1.39
		c0-0.585,0.155-1.062,0.466-1.427c0.312-0.365,0.717-0.549,1.218-0.549C38.8,32.155,39.044,32.216,39.283,32.336 M39.493,33.763
		c-0.024-0.267-0.081-0.479-0.168-0.638c-0.164-0.296-0.436-0.443-0.818-0.443c-0.273,0-0.502,0.102-0.688,0.305
		s-0.284,0.462-0.295,0.776H39.493z"/>
	<path clip-path="url(#SVGID_8_)" fill="#DFB200" d="M40.611,32.346h0.58v0.52c0.168-0.215,0.347-0.368,0.536-0.462
		c0.189-0.093,0.398-0.14,0.628-0.14c0.505,0,0.847,0.181,1.025,0.543c0.097,0.196,0.146,0.48,0.146,0.849v2.342H42.92v-2.301
		c0-0.223-0.032-0.401-0.097-0.538c-0.106-0.228-0.3-0.341-0.581-0.341c-0.143,0-0.26,0.015-0.351,0.045
		c-0.164,0.049-0.309,0.148-0.434,0.3c-0.1,0.12-0.165,0.245-0.194,0.373c-0.03,0.128-0.045,0.312-0.045,0.55v1.912h-0.607V32.346z"
		/>
	<path clip-path="url(#SVGID_8_)" fill="#DFB200" d="M45.711,30.875h0.587v1.798c0.132-0.175,0.289-0.309,0.472-0.398
		c0.183-0.092,0.381-0.137,0.595-0.137c0.446,0,0.808,0.156,1.085,0.47c0.277,0.314,0.416,0.776,0.416,1.388
		c0,0.58-0.138,1.063-0.41,1.445c-0.273,0.384-0.654,0.574-1.139,0.574c-0.271,0-0.5-0.066-0.688-0.2
		c-0.11-0.081-0.229-0.209-0.356-0.385v0.574h-0.562V30.875z M48.001,35.072c0.161-0.265,0.24-0.614,0.24-1.05
		c0-0.387-0.079-0.706-0.24-0.959c-0.162-0.254-0.398-0.381-0.711-0.381c-0.274,0-0.514,0.103-0.719,0.313
		c-0.206,0.207-0.308,0.55-0.308,1.027c0,0.347,0.042,0.626,0.126,0.841c0.157,0.405,0.452,0.607,0.883,0.607
		C47.598,35.47,47.84,35.337,48.001,35.072"/>
	<path clip-path="url(#SVGID_8_)" fill="#DFB200" d="M51.531,32.237h0.665c-0.085,0.233-0.273,0.768-0.565,1.602
		c-0.219,0.626-0.402,1.138-0.548,1.533c-0.347,0.934-0.592,1.502-0.735,1.708c-0.142,0.205-0.387,0.307-0.733,0.307
		c-0.085,0-0.149-0.003-0.195-0.011c-0.046-0.007-0.103-0.019-0.169-0.037v-0.563c0.104,0.031,0.181,0.048,0.227,0.055
		c0.046,0.008,0.087,0.011,0.123,0.011c0.112,0,0.193-0.019,0.246-0.056c0.052-0.038,0.095-0.084,0.131-0.139
		c0.012-0.019,0.053-0.112,0.12-0.28c0.069-0.168,0.12-0.293,0.151-0.376l-1.323-3.754h0.681l0.959,2.972L51.531,32.237z"/>
	<path clip-path="url(#SVGID_8_)" fill="#FFFFFF" d="M33.675,20.037c0.017-0.509,0.084-1.031,0.866-1.581l0.673-0.475
		c0.315-0.224,0.585-0.481,0.597-0.889c0.011-0.487-0.321-0.841-0.883-0.841c-0.585,0-0.871,0.417-0.877,0.882h-0.354
		c-0.011-0.601,0.416-1.237,1.254-1.237c0.815,0,1.287,0.556,1.259,1.196c-0.028,0.648-0.439,0.963-0.832,1.237l-0.657,0.458
		c-0.332,0.223-0.54,0.579-0.613,0.928h2.164v0.32H33.675z"/>
	<path clip-path="url(#SVGID_8_)" fill="#FFFFFF" d="M39.47,18.033c0,1.243-0.506,2.125-1.433,2.125
		c-0.928,0-1.423-0.882-1.423-2.125c0-1.231,0.495-2.113,1.423-2.113C38.964,15.92,39.47,16.802,39.47,18.033 M39.037,18.033
		c0-1.002-0.343-1.757-1-1.757c-0.646,0-0.996,0.755-0.996,1.757c0,1.014,0.35,1.77,0.996,1.77
		C38.694,19.803,39.037,19.046,39.037,18.033"/>
	<path clip-path="url(#SVGID_8_)" fill="#FFFFFF" d="M40.786,20.071v-3.034h-0.809v-0.31c0.219,0,0.41-0.057,0.618-0.201
		c0.151-0.114,0.27-0.315,0.281-0.526h0.286v4.071H40.786z"/>
	<path clip-path="url(#SVGID_8_)" fill="#FFFFFF" d="M45.617,19.937v-0.346h2.074v-1.177h0.393v1.177h2.074v0.346H45.617z
		 M48.712,17.621c0.397,0.391,0.95,0.681,1.172,0.748l-0.264,0.279c-0.185-0.055-0.67-0.301-1.063-0.664
		c-0.337-0.318-0.609-0.747-0.671-0.972c-0.062,0.225-0.336,0.653-0.671,0.972c-0.392,0.363-0.877,0.609-1.063,0.664l-0.263-0.279
		c0.222-0.067,0.774-0.357,1.171-0.748c0.367-0.357,0.619-0.865,0.619-1.334v-0.401h0.413v0.401
		C48.093,16.756,48.346,17.264,48.712,17.621"/>
	<path clip-path="url(#SVGID_8_)" fill="#FFFFFF" d="M50.709,19.517v-3.374h0.388v1.222h1.454v-1.222h0.381v3.374H50.709z
		 M52.551,17.716h-1.454v1.456h1.454V17.716z M53.975,15.668h0.388v4.911h-0.388V15.668z"/>
	<path clip-path="url(#SVGID_8_)" fill="#FFFFFF" d="M57.757,19.58c-0.17-0.112-0.449-0.318-0.732-0.692
		c-0.264-0.346-0.402-0.72-0.449-0.893c-0.041,0.161-0.177,0.519-0.429,0.87c-0.294,0.413-0.593,0.687-0.846,0.859l-0.304-0.284
		c0.283-0.184,0.648-0.491,0.901-0.881c0.274-0.414,0.47-1.01,0.47-1.53v-0.451h-1.088v-0.352h2.615v0.352h-1.114v0.451
		c0,0.513,0.166,1.094,0.443,1.485c0.27,0.384,0.563,0.62,0.785,0.742L57.757,19.58z M58.964,18.028v2.551h-0.387v-4.911h0.387
		v2.003h0.743v0.356H58.964z"/>
	<path clip-path="url(#SVGID_8_)" fill="#FFFFFF" d="M61.416,19.53l-1.481,0.005v-0.352l1.503-0.005
		c0.67-0.011,1.51-0.056,1.908-0.117v0.357C63.015,19.463,62.034,19.512,61.416,19.53 M61.477,18.396
		c-0.737,0-1.259-0.547-1.259-1.205c0-0.658,0.521-1.199,1.259-1.199c0.739,0,1.259,0.541,1.259,1.199
		C62.736,17.85,62.216,18.396,61.477,18.396 M61.477,16.343c-0.552,0-0.862,0.39-0.862,0.849c0,0.463,0.311,0.848,0.862,0.848
		s0.856-0.385,0.856-0.848C62.333,16.733,62.029,16.343,61.477,16.343 M63.526,15.668h0.387v4.911h-0.387V15.668z"/>
	<path clip-path="url(#SVGID_8_)" fill="#FFFFFF" d="M69.056,18.553c-0.154-0.079-0.558-0.375-0.82-0.676
		c-0.212-0.24-0.377-0.502-0.454-0.73c-0.066,0.235-0.202,0.501-0.434,0.787c-0.269,0.335-0.599,0.58-0.847,0.708l-0.268-0.267
		c0.274-0.135,0.671-0.424,0.939-0.803c0.257-0.358,0.412-0.849,0.412-1.295v-0.458h0.397v0.458c0,0.451,0.17,0.948,0.418,1.244
		c0.274,0.324,0.712,0.653,0.918,0.737L69.056,18.553z M67.199,20.467v-1.518h0.381v1.177h2.863v0.341H67.199z M69.944,19.233V17.18
		h-1.063v-0.352h1.063v-1.161h0.382v3.565H69.944z"/>
	<path clip-path="url(#SVGID_8_)" fill="#FFFFFF" d="M72.405,18.419c-0.563,0.028-1.187,0.018-1.218,0.018V15.98h1.765v0.352h-1.378
		v0.692H72.9v0.34h-1.326v0.72l0.846-0.011c0.342-0.017,0.666-0.051,0.872-0.083v0.339C73.101,18.363,72.823,18.396,72.405,18.419
		 M74.608,20.579v-1.25h-2.941v-0.346h3.328v1.596H74.608z M74.634,18.687v-1.406h-0.671v1.406h-0.378v-2.935h0.378v1.171h0.671
		v-1.255h0.376v3.019H74.634z"/>
	<path clip-path="url(#SVGID_8_)" fill="#FFFFFF" d="M44.058,17.564c-0.091,0.115-0.197,0.2-0.315,0.254
		c0.229,0.101,0.395,0.249,0.499,0.444c0.095,0.169,0.143,0.378,0.143,0.627c0,0.379-0.109,0.671-0.327,0.877
		c-0.222,0.212-0.542,0.318-0.962,0.318c-0.425,0-0.748-0.105-0.969-0.318c-0.214-0.206-0.321-0.498-0.321-0.877
		c0-0.242,0.046-0.451,0.137-0.627c0.103-0.191,0.262-0.339,0.476-0.444c-0.118-0.051-0.22-0.135-0.304-0.254
		c-0.118-0.17-0.177-0.374-0.177-0.612c0-0.295,0.078-0.53,0.235-0.703c0.194-0.216,0.502-0.325,0.923-0.325
		c0.405,0,0.707,0.109,0.905,0.325c0.168,0.177,0.253,0.411,0.253,0.703C44.253,17.19,44.187,17.394,44.058,17.564 M42.384,18.245
		c-0.153,0.163-0.229,0.378-0.229,0.645c0,0.26,0.076,0.471,0.229,0.633c0.169,0.176,0.405,0.265,0.711,0.265
		c0.294,0,0.527-0.088,0.699-0.265c0.16-0.166,0.243-0.377,0.246-0.633c0-0.264-0.08-0.478-0.24-0.645
		c-0.169-0.18-0.403-0.27-0.705-0.27C42.793,17.975,42.557,18.065,42.384,18.245 M42.482,16.421c-0.13,0.13-0.194,0.307-0.194,0.53
		c0,0.22,0.064,0.394,0.194,0.52c0.142,0.137,0.346,0.205,0.614,0.205c0.264,0,0.467-0.068,0.612-0.205
		c0.138-0.126,0.207-0.3,0.207-0.52c0-0.223-0.069-0.4-0.207-0.53c-0.146-0.133-0.349-0.2-0.612-0.2
		C42.828,16.221,42.624,16.288,42.482,16.421"/>
</g>
</svg>
