<?xml version="1.0" encoding="utf-8"?>
<!-- Generator: Adobe Illustrator 16.0.0, SVG Export Plug-In . SVG Version: 6.00 Build 0)  -->
<!DOCTYPE svg PUBLIC "-//W3C//DTD SVG 1.1//EN" "http://www.w3.org/Graphics/SVG/1.1/DTD/svg11.dtd">
<svg version="1.1" id="Layer_1" xmlns="http://www.w3.org/2000/svg" xmlns:xlink="http://www.w3.org/1999/xlink" x="0px" y="0px"
	 width="59px" height="59px" viewBox="0 0 59 59" enable-background="new 0 0 59 59" xml:space="preserve">
<g>
	<defs>
		<rect id="SVGID_1_" width="59" height="59"/>
	</defs>
	<clipPath id="SVGID_2_">
		<use xlink:href="#SVGID_1_"  overflow="visible"/>
	</clipPath>
	<path clip-path="url(#SVGID_2_)" fill-rule="evenodd" clip-rule="evenodd" fill="#FFFFFF" d="M58.627,29.5
		c0,16.085-13.04,29.127-29.127,29.127S0.374,45.586,0.374,29.5c0-16.087,13.04-29.128,29.126-29.128S58.627,13.414,58.627,29.5"/>
	
		<circle clip-path="url(#SVGID_2_)" fill="none" stroke="#1A2B53" stroke-width="0.75" stroke-miterlimit="10" cx="29.5" cy="29.5" r="29.127"/>
	<path clip-path="url(#SVGID_2_)" fill="#1A2B53" d="M51.99,29.5c0,12.419-10.068,22.491-22.49,22.491
		C17.08,51.991,7.01,41.92,7.01,29.5C7.01,17.08,17.08,7.009,29.5,7.009C41.922,7.009,51.99,17.08,51.99,29.5"/>
	<path clip-path="url(#SVGID_2_)" fill="#1A2B53" d="M1.684,27.274l0.563-3.644l1.477,0.143l-0.039,0.249
		c-0.354,0.006-0.614,0.04-0.779,0.104c-0.165,0.064-0.296,0.162-0.395,0.293c-0.097,0.13-0.163,0.311-0.199,0.541l-0.088,0.572
		c-0.014,0.088-0.006,0.155,0.023,0.2c0.028,0.044,0.074,0.073,0.136,0.082l1.452,0.225l0.03-0.195
		c0.035-0.225-0.002-0.409-0.112-0.552c-0.108-0.144-0.304-0.248-0.586-0.315l0.04-0.254l1.947,0.301l-0.039,0.254
		c-0.326-0.033-0.563,0.002-0.714,0.107c-0.151,0.104-0.247,0.282-0.286,0.533l-0.025,0.16l1.548,0.24
		c0.068,0.01,0.12-0.002,0.153-0.038c0.051-0.054,0.085-0.138,0.103-0.251l0.078-0.503c0.052-0.345-0.013-0.644-0.201-0.896
		c-0.187-0.253-0.499-0.441-0.936-0.563l0.039-0.254l1.584,0.308l-0.586,3.8l-0.264-0.04l0.058-0.377
		c0.013-0.083,0.002-0.153-0.035-0.203c-0.036-0.051-0.091-0.083-0.165-0.094l-3.221-0.497c-0.068-0.011-0.122,0.004-0.161,0.042
		c-0.039,0.04-0.066,0.117-0.084,0.232l-0.051,0.33L1.684,27.274z"/>
	<path clip-path="url(#SVGID_2_)" fill="#1A2B53" d="M2.498,22.379L3.2,20.404l0.251,0.089l-0.053,0.148
		c-0.047,0.135-0.067,0.227-0.06,0.28c0.009,0.051,0.032,0.083,0.072,0.098c0.047,0.017,0.134,0.006,0.263-0.03l1.151-0.343
		l-0.452-0.752c-0.098-0.165-0.208-0.27-0.332-0.313c-0.076-0.027-0.143-0.023-0.199,0.01c-0.058,0.033-0.104,0.097-0.135,0.188
		l-0.044,0.125L3.41,19.813l0.558-1.571l0.251,0.089l-0.042,0.119c-0.036,0.098-0.044,0.193-0.032,0.284
		c0.015,0.091,0.062,0.205,0.14,0.342l0.856,1.468l2.23-0.694c0.107-0.032,0.184-0.07,0.229-0.112
		c0.047-0.042,0.083-0.098,0.106-0.166l0.047-0.132l0.25,0.089l-0.69,1.945l-0.25-0.089l0.072-0.204
		c0.034-0.098,0.044-0.173,0.027-0.228c-0.016-0.054-0.048-0.089-0.097-0.107c-0.042-0.015-0.105-0.005-0.19,0.03L6.83,20.89
		l-1.272,0.383l0.538,0.89c0.075,0.122,0.17,0.203,0.287,0.245c0.089,0.032,0.163,0.032,0.223-0.001
		c0.077-0.041,0.131-0.104,0.163-0.191l0.053-0.15l0.251,0.088l-0.584,1.644l-0.25-0.089l0.037-0.103
		c0.029-0.083,0.034-0.179,0.015-0.29c-0.038-0.184-0.091-0.334-0.162-0.453l-0.881-1.491l-2.111,0.664
		c-0.11,0.036-0.187,0.073-0.229,0.111c-0.043,0.037-0.077,0.094-0.104,0.17l-0.053,0.151L2.498,22.379z"/>
	<path clip-path="url(#SVGID_2_)" fill="#1A2B53" d="M6.485,14.37l-0.263-0.384l0.107-0.183l1.501,0.799L7.696,14.83
		c-0.462-0.177-0.854-0.228-1.173-0.151c-0.319,0.075-0.553,0.239-0.701,0.491c-0.162,0.275-0.165,0.582-0.009,0.918
		c0.157,0.335,0.519,0.67,1.086,1.003c0.6,0.354,1.104,0.517,1.512,0.489c0.323-0.026,0.575-0.194,0.758-0.504
		c0.184-0.311,0.223-0.64,0.119-0.986c-0.077-0.251-0.258-0.501-0.546-0.753l0.131-0.223c0.385,0.299,0.621,0.65,0.707,1.058
		c0.085,0.407,0.015,0.804-0.212,1.19c-0.295,0.5-0.718,0.815-1.271,0.945c-0.552,0.131-1.103,0.033-1.653-0.291
		c-0.611-0.359-0.984-0.842-1.121-1.446c-0.114-0.516-0.041-0.996,0.222-1.441c0.104-0.176,0.227-0.323,0.371-0.441
		C6.059,14.568,6.25,14.463,6.485,14.37"/>
	<path clip-path="url(#SVGID_2_)" fill="#1A2B53" d="M7.396,12.467l2.458-2.751l1.159,0.924l-0.168,0.188
		c-0.3-0.188-0.537-0.301-0.71-0.337c-0.174-0.036-0.338-0.026-0.49,0.03c-0.154,0.057-0.308,0.172-0.463,0.345l-0.385,0.431
		c-0.06,0.068-0.09,0.127-0.09,0.182c-0.001,0.054,0.023,0.101,0.071,0.142l1.095,0.979l0.131-0.147
		c0.152-0.17,0.221-0.344,0.207-0.523c-0.014-0.18-0.119-0.374-0.319-0.583l0.172-0.192l1.469,1.312l-0.172,0.192
		c-0.254-0.204-0.474-0.304-0.658-0.299c-0.183,0.004-0.359,0.102-0.528,0.292l-0.108,0.122l1.167,1.043
		c0.051,0.046,0.1,0.064,0.149,0.053c0.071-0.017,0.145-0.069,0.223-0.154l0.338-0.38c0.234-0.26,0.34-0.548,0.321-0.861
		c-0.019-0.314-0.179-0.641-0.479-0.98l0.172-0.193l1.16,1.122l-2.562,2.868l-0.198-0.178l0.253-0.285
		c0.058-0.063,0.084-0.127,0.083-0.189c-0.003-0.063-0.033-0.118-0.088-0.168l-2.431-2.173c-0.051-0.045-0.104-0.062-0.158-0.05
		c-0.054,0.012-0.12,0.062-0.198,0.148l-0.223,0.25L7.396,12.467z"/>
	<path clip-path="url(#SVGID_2_)" fill="#1A2B53" d="M11.272,8.74l-0.163-0.212l1.729-1.317l0.161,0.212l-0.292,0.222
		c-0.083,0.063-0.13,0.125-0.138,0.182c-0.009,0.057,0.013,0.121,0.068,0.192l1.911,2.505c0.076,0.103,0.144,0.154,0.196,0.158
		c0.054,0.004,0.14-0.039,0.258-0.129l0.485-0.37c0.181-0.137,0.285-0.352,0.31-0.642c0.024-0.292-0.064-0.657-0.268-1.097
		l0.205-0.156l0.908,1.35l-2.962,2.26l-0.162-0.212l0.296-0.226c0.065-0.049,0.102-0.104,0.11-0.163
		c0.008-0.059-0.012-0.119-0.059-0.179L11.9,8.541c-0.046-0.063-0.1-0.095-0.154-0.097c-0.056-0.002-0.125,0.029-0.209,0.093
		L11.272,8.74z"/>
	<path clip-path="url(#SVGID_2_)" fill="#1A2B53" d="M15.401,5.749l-0.121-0.237L17.22,4.53l0.121,0.238l-0.328,0.166
		c-0.093,0.048-0.149,0.098-0.17,0.153c-0.018,0.055-0.008,0.122,0.032,0.202l1.422,2.81c0.059,0.115,0.113,0.179,0.164,0.192
		c0.053,0.013,0.146-0.013,0.278-0.081l0.543-0.275c0.203-0.103,0.344-0.294,0.422-0.576c0.078-0.281,0.058-0.657-0.063-1.126
		l0.23-0.117l0.646,1.493l-3.324,1.683l-0.121-0.239l0.333-0.168c0.073-0.037,0.119-0.083,0.137-0.139
		c0.018-0.057,0.01-0.12-0.024-0.188l-1.463-2.889c-0.035-0.07-0.08-0.111-0.134-0.124c-0.054-0.012-0.127,0.006-0.221,0.053
		L15.401,5.749z"/>
	<path clip-path="url(#SVGID_2_)" fill="#1A2B53" d="M19.907,3.301l3.545-1.016l0.487,1.4l-0.242,0.069
		c-0.153-0.318-0.293-0.542-0.421-0.664c-0.128-0.124-0.272-0.202-0.432-0.235c-0.159-0.033-0.35-0.018-0.575,0.046l-0.556,0.16
		c-0.087,0.023-0.144,0.059-0.172,0.104c-0.029,0.045-0.035,0.098-0.018,0.159l0.405,1.411l0.19-0.054
		c0.218-0.063,0.37-0.174,0.455-0.332c0.083-0.16,0.097-0.381,0.04-0.665l0.248-0.07l0.543,1.894l-0.248,0.07
		c-0.106-0.308-0.238-0.51-0.397-0.604c-0.158-0.093-0.358-0.105-0.603-0.034L22,4.981l0.432,1.505
		c0.019,0.067,0.052,0.109,0.099,0.125c0.07,0.024,0.161,0.02,0.27-0.013l0.49-0.139c0.336-0.097,0.579-0.283,0.731-0.56
		c0.151-0.274,0.19-0.637,0.117-1.084l0.248-0.071l0.384,1.566l-3.697,1.061l-0.073-0.256l0.365-0.105
		c0.083-0.024,0.14-0.063,0.171-0.118c0.031-0.054,0.036-0.118,0.015-0.189l-0.898-3.133c-0.02-0.065-0.055-0.108-0.106-0.126
		c-0.052-0.019-0.134-0.012-0.247,0.02L19.98,3.558L19.907,3.301z"/>
	<path clip-path="url(#SVGID_2_)" fill="#1A2B53" d="M25.174,1.917l1.311-0.099l2.507,2.723l-0.149-1.968
		c-0.015-0.194-0.082-0.346-0.201-0.455c-0.12-0.108-0.282-0.162-0.486-0.159l-0.02-0.267l1.542-0.117l0.02,0.267
		c-0.213,0.039-0.361,0.114-0.447,0.227c-0.084,0.114-0.119,0.274-0.104,0.481l0.249,3.295l-0.33,0.024l-2.854-3.135l0.175,2.308
		c0.02,0.265,0.096,0.453,0.225,0.564c0.129,0.11,0.285,0.16,0.462,0.146l0.072-0.004l0.021,0.264l-1.706,0.128l-0.019-0.266
		l0.117-0.008c0.167-0.013,0.303-0.09,0.408-0.232c0.104-0.142,0.147-0.316,0.132-0.525L25.89,2.384
		c-0.142-0.158-0.311-0.23-0.508-0.216l-0.188,0.015L25.174,1.917z"/>
	<path clip-path="url(#SVGID_2_)" fill="#1A2B53" d="M31.076,1.656l3.676,0.453l-0.104,1.608l-0.258-0.032
		c-0.018-0.349-0.064-0.625-0.139-0.827c-0.072-0.204-0.166-0.354-0.28-0.449c-0.114-0.097-0.245-0.152-0.392-0.171
		c-0.086-0.011-0.151-0.001-0.195,0.028c-0.044,0.031-0.07,0.079-0.079,0.146l-0.4,3.25c-0.008,0.063,0.007,0.117,0.04,0.161
		c0.034,0.045,0.077,0.07,0.134,0.077l0.477,0.058l-0.032,0.266l-2.248-0.277l0.032-0.265l0.455,0.057
		c0.067,0.008,0.124-0.004,0.169-0.04c0.045-0.033,0.072-0.083,0.078-0.146l0.399-3.234c0.01-0.076-0.004-0.135-0.041-0.175
		c-0.035-0.041-0.099-0.067-0.185-0.078C31.7,2.008,31.318,2.41,31.039,3.273l-0.25-0.032L31.076,1.656z"/>
	<path clip-path="url(#SVGID_2_)" fill="#1A2B53" d="M41.329,4.626l0.345-0.312l0.194,0.081L41.282,5.99l-0.243-0.1
		c0.112-0.484,0.108-0.878-0.01-1.184C40.91,4.4,40.717,4.191,40.445,4.08c-0.295-0.123-0.599-0.084-0.91,0.117
		c-0.31,0.202-0.592,0.606-0.845,1.213c-0.268,0.644-0.36,1.164-0.276,1.564c0.069,0.317,0.271,0.543,0.604,0.683
		c0.333,0.138,0.664,0.132,0.993-0.018c0.236-0.109,0.462-0.325,0.671-0.645l0.238,0.1c-0.242,0.422-0.56,0.705-0.949,0.845
		c-0.393,0.141-0.796,0.125-1.21-0.047c-0.536-0.223-0.906-0.598-1.111-1.127s-0.186-1.087,0.061-1.678
		c0.273-0.655,0.699-1.092,1.279-1.309c0.494-0.184,0.981-0.177,1.458,0.021c0.189,0.078,0.353,0.181,0.488,0.307
		C41.072,4.232,41.204,4.405,41.329,4.626"/>
	<path clip-path="url(#SVGID_2_)" fill="#1A2B53" d="M45.251,6.42C45.58,6.645,45.83,6.932,46,7.28
		c0.168,0.35,0.237,0.714,0.206,1.096c-0.033,0.38-0.166,0.744-0.402,1.089c-0.357,0.525-0.828,0.846-1.409,0.961
		c-0.582,0.116-1.127,0.001-1.634-0.346c-0.337-0.23-0.586-0.516-0.744-0.857c-0.161-0.342-0.225-0.701-0.194-1.076
		c0.029-0.376,0.166-0.742,0.41-1.1c0.363-0.532,0.83-0.854,1.405-0.968C44.213,5.966,44.75,6.079,45.251,6.42 M45.108,6.658
		c-0.187-0.129-0.386-0.188-0.595-0.18c-0.208,0.01-0.431,0.102-0.669,0.277c-0.238,0.173-0.494,0.462-0.768,0.862
		c-0.286,0.421-0.466,0.764-0.539,1.033c-0.072,0.268-0.072,0.502-0.001,0.704c0.073,0.203,0.205,0.368,0.396,0.499
		c0.283,0.192,0.591,0.226,0.924,0.098c0.334-0.126,0.705-0.489,1.114-1.087c0.285-0.42,0.464-0.76,0.534-1.019
		c0.072-0.26,0.071-0.491-0.002-0.692C45.43,6.951,45.298,6.786,45.108,6.658"/>
	<path clip-path="url(#SVGID_2_)" fill="#1A2B53" d="M48.198,8.699l1.151,1.258l-1.465,2.647l2.763-1.23l1.182,1.289l-0.196,0.18
		l-0.257-0.279c-0.063-0.069-0.119-0.105-0.169-0.108c-0.049-0.003-0.105,0.024-0.167,0.081l-2.386,2.186
		c-0.061,0.055-0.089,0.107-0.086,0.157c0.005,0.072,0.041,0.145,0.106,0.218l0.228,0.249l-0.195,0.179l-1.457-1.589l0.196-0.18
		l0.275,0.3c0.049,0.056,0.104,0.083,0.161,0.083c0.057,0,0.113-0.025,0.169-0.075l2.554-2.341l-3.836,1.688l-0.17-0.186
		l2.045-3.693l-2.283,2.091c-0.13,0.12-0.2,0.259-0.208,0.419c-0.008,0.16,0.053,0.328,0.18,0.5l-0.195,0.18l-1.063-1.159
		l0.198-0.18c0.146,0.135,0.302,0.201,0.466,0.201c0.164-0.002,0.317-0.068,0.455-0.195l2.02-1.849
		c0.085-0.079,0.129-0.146,0.13-0.201s-0.038-0.125-0.114-0.209L48.003,8.88L48.198,8.699z"/>
	<path clip-path="url(#SVGID_2_)" fill="#1A2B53" d="M52.699,14.008l1.236,2.15c0.209,0.364,0.28,0.713,0.212,1.048
		c-0.066,0.333-0.242,0.581-0.525,0.744c-0.216,0.124-0.441,0.167-0.676,0.133c-0.234-0.035-0.451-0.141-0.648-0.314
		c-0.197-0.174-0.356-0.367-0.478-0.579l-0.392-0.68l-1.196,0.687c-0.066,0.039-0.107,0.087-0.122,0.146
		c-0.014,0.059-0.005,0.119,0.031,0.177l0.242,0.423l-0.231,0.132l-1.125-1.957l0.231-0.132l0.188,0.328
		c0.041,0.073,0.091,0.117,0.15,0.133c0.057,0.016,0.119,0.005,0.185-0.033l2.799-1.608c0.063-0.036,0.101-0.083,0.115-0.143
		c0.016-0.059,0.007-0.116-0.024-0.17l-0.203-0.353L52.699,14.008z M51.655,16.379l0.261,0.455c0.092,0.158,0.207,0.279,0.345,0.364
		c0.139,0.084,0.271,0.125,0.398,0.121c0.128-0.004,0.299-0.067,0.516-0.192c0.298-0.171,0.462-0.372,0.492-0.603
		c0.02-0.168-0.05-0.393-0.213-0.677c-0.096-0.164-0.168-0.26-0.221-0.288c-0.053-0.029-0.111-0.024-0.179,0.014L51.655,16.379z"/>
	<path clip-path="url(#SVGID_2_)" fill="#1A2B53" d="M56.003,20.639l-3.082,2.732c-0.086,0.077-0.138,0.147-0.158,0.211
		c-0.018,0.063-0.014,0.136,0.017,0.22l0.05,0.145l-0.252,0.087l-0.645-1.881l0.252-0.086l0.062,0.177
		c0.046,0.14,0.095,0.23,0.144,0.272c0.049,0.042,0.099,0.054,0.148,0.037c0.041-0.014,0.083-0.04,0.128-0.08l0.636-0.563
		l-0.513-1.5l-0.388-0.026c-0.16-0.012-0.276-0.006-0.344,0.018c-0.119,0.04-0.198,0.117-0.242,0.228
		c-0.044,0.112-0.04,0.243,0.013,0.394l0.044,0.128l-0.252,0.084l-0.522-1.522l0.252-0.086l0.03,0.087
		c0.034,0.099,0.094,0.174,0.181,0.228c0.122,0.075,0.262,0.119,0.417,0.131l3.921,0.263L56.003,20.639z M54.84,20.551l-1.747-0.121
		l0.438,1.278L54.84,20.551z"/>
	<path clip-path="url(#SVGID_2_)" fill="#1A2B53" d="M56.843,23.799l0.164,1.305l-2.593,2.638l1.956-0.247
		c0.194-0.025,0.341-0.1,0.445-0.224c0.102-0.125,0.146-0.289,0.134-0.493l0.265-0.034l0.193,1.535l-0.263,0.033
		c-0.052-0.211-0.134-0.356-0.251-0.435c-0.116-0.079-0.278-0.107-0.485-0.08l-3.277,0.413l-0.042-0.328l2.988-3.007l-2.296,0.29
		c-0.264,0.033-0.446,0.116-0.552,0.253c-0.104,0.135-0.146,0.292-0.125,0.47l0.01,0.071l-0.264,0.033l-0.214-1.695l0.264-0.033
		l0.016,0.117c0.02,0.166,0.104,0.298,0.252,0.395c0.145,0.096,0.322,0.132,0.53,0.105l2.713-0.342
		c0.153-0.148,0.216-0.32,0.19-0.517l-0.023-0.188L56.843,23.799z"/>
	<path clip-path="url(#SVGID_2_)" fill="#1A2B53" d="M57.422,29.371l-0.153,2.101l-0.268-0.019l0.022-0.29
		c0.007-0.104,0-0.175-0.023-0.217c-0.021-0.042-0.055-0.063-0.097-0.066c-0.047-0.004-0.104,0.008-0.166,0.039l-1.58,0.768
		l1.184,0.708c0.099,0.06,0.189,0.092,0.274,0.099c0.095,0.007,0.173-0.022,0.234-0.084c0.059-0.063,0.095-0.162,0.104-0.299
		l0.01-0.129l0.267,0.021l-0.12,1.632l-0.267-0.02c0.012-0.188-0.017-0.343-0.08-0.461c-0.063-0.12-0.17-0.226-0.321-0.318
		l-1.614-0.971l-1.328-0.097c-0.078-0.006-0.139,0.011-0.18,0.05c-0.041,0.04-0.063,0.106-0.07,0.197l-0.033,0.438l-0.267-0.021
		l0.171-2.313l0.265,0.02l-0.031,0.434c-0.008,0.1,0.006,0.17,0.04,0.213s0.091,0.066,0.171,0.072l1.181,0.087l2.039-0.993
		c0.131-0.063,0.223-0.133,0.275-0.21c0.051-0.077,0.081-0.178,0.09-0.299l0.006-0.092L57.422,29.371z"/>
	<path clip-path="url(#SVGID_2_)" fill="#1A2B53" d="M56.396,36.937l-1.237,3.475l-1.423-0.419l0.085-0.237
		c0.35,0.063,0.61,0.076,0.785,0.044c0.175-0.031,0.321-0.104,0.443-0.213c0.12-0.11,0.219-0.274,0.296-0.495l0.195-0.544
		c0.029-0.085,0.035-0.151,0.015-0.201c-0.019-0.05-0.059-0.086-0.118-0.106l-1.383-0.493l-0.067,0.186
		c-0.077,0.215-0.075,0.401,0.006,0.563c0.08,0.162,0.253,0.302,0.517,0.419l-0.086,0.243l-1.857-0.661l0.087-0.243
		c0.314,0.094,0.554,0.104,0.722,0.03c0.17-0.074,0.297-0.231,0.382-0.47l0.054-0.153l-1.477-0.526
		c-0.063-0.022-0.115-0.02-0.156,0.008c-0.062,0.043-0.109,0.118-0.148,0.228l-0.171,0.479c-0.117,0.33-0.108,0.637,0.028,0.92
		c0.136,0.283,0.406,0.526,0.813,0.728l-0.086,0.243l-1.498-0.601l1.291-3.622l0.251,0.089l-0.129,0.358
		c-0.028,0.082-0.03,0.15-0.003,0.207s0.075,0.098,0.145,0.124l3.069,1.093c0.065,0.024,0.121,0.021,0.167-0.012
		s0.088-0.104,0.127-0.211l0.111-0.317L56.396,36.937z"/>
	<path clip-path="url(#SVGID_2_)" fill="#1A2B53" d="M54.677,41.595l-1.061,1.807l-0.23-0.134l0.08-0.137
		c0.071-0.123,0.109-0.211,0.111-0.264c0.001-0.05-0.017-0.088-0.052-0.109c-0.043-0.024-0.132-0.03-0.265-0.02l-1.194,0.12
		l0.302,0.824c0.064,0.179,0.153,0.302,0.268,0.369c0.069,0.041,0.135,0.051,0.197,0.027c0.063-0.021,0.12-0.074,0.168-0.158
		l0.068-0.112l0.228,0.134l-0.842,1.438l-0.23-0.136l0.063-0.107c0.053-0.09,0.081-0.183,0.084-0.274s-0.021-0.212-0.074-0.362
		l-0.563-1.603l-2.321,0.262c-0.111,0.012-0.192,0.034-0.248,0.068c-0.054,0.031-0.099,0.08-0.135,0.142l-0.071,0.12l-0.23-0.133
		l1.046-1.781l0.231,0.135l-0.112,0.188c-0.05,0.089-0.074,0.161-0.068,0.217c0.005,0.058,0.03,0.099,0.074,0.124
		c0.038,0.022,0.104,0.024,0.192,0.006l0.049-0.004l1.322-0.137l-0.363-0.977c-0.049-0.133-0.128-0.23-0.234-0.294
		c-0.081-0.047-0.153-0.061-0.218-0.042c-0.085,0.027-0.149,0.078-0.196,0.158l-0.08,0.138l-0.23-0.135l0.883-1.503l0.23,0.134
		l-0.056,0.094c-0.045,0.076-0.068,0.169-0.068,0.281c0,0.188,0.024,0.345,0.073,0.476l0.585,1.63l2.197-0.254
		c0.113-0.016,0.196-0.036,0.246-0.066c0.05-0.028,0.093-0.078,0.134-0.146l0.082-0.139L54.677,41.595z"/>
	<path clip-path="url(#SVGID_2_)" fill="#1A2B53" d="M49.238,48.716l0.186,0.428l-0.143,0.157l-1.319-1.068l0.175-0.198
		c0.42,0.262,0.794,0.386,1.123,0.372c0.328-0.014,0.588-0.129,0.782-0.348c0.212-0.24,0.271-0.541,0.183-0.899
		c-0.09-0.36-0.382-0.758-0.875-1.193c-0.521-0.461-0.985-0.716-1.392-0.767c-0.32-0.036-0.602,0.079-0.841,0.35
		c-0.239,0.271-0.34,0.586-0.304,0.947c0.027,0.26,0.159,0.542,0.393,0.843l-0.17,0.194c-0.322-0.366-0.486-0.758-0.493-1.174
		s0.139-0.792,0.436-1.128c0.384-0.434,0.859-0.664,1.426-0.687c0.566-0.024,1.088,0.176,1.567,0.599
		c0.532,0.471,0.808,1.016,0.825,1.635c0.016,0.526-0.148,0.984-0.491,1.373c-0.135,0.152-0.284,0.273-0.447,0.361
		C49.693,48.604,49.487,48.669,49.238,48.716"/>
	<path clip-path="url(#SVGID_2_)" fill="#1A2B53" d="M47.988,50.404l-2.936,2.232l-0.963-1.128l0.2-0.152
		c0.259,0.242,0.471,0.397,0.634,0.467c0.164,0.067,0.327,0.089,0.487,0.062c0.161-0.025,0.334-0.109,0.521-0.25l0.46-0.351
		c0.071-0.054,0.112-0.107,0.123-0.16c0.01-0.052-0.004-0.104-0.042-0.153l-0.89-1.169l-0.156,0.119
		c-0.182,0.138-0.282,0.297-0.304,0.475c-0.021,0.179,0.047,0.392,0.203,0.634l-0.205,0.155l-1.193-1.567l0.205-0.154
		c0.212,0.248,0.407,0.388,0.59,0.418c0.18,0.029,0.373-0.031,0.574-0.187l0.131-0.098l-0.949-1.246
		c-0.041-0.057-0.086-0.082-0.137-0.081c-0.073,0.003-0.155,0.041-0.248,0.109l-0.404,0.309c-0.278,0.211-0.439,0.474-0.479,0.785
		c-0.041,0.312,0.053,0.663,0.283,1.054l-0.205,0.156l-0.925-1.321l3.061-2.327l0.161,0.211l-0.304,0.231
		c-0.068,0.051-0.106,0.108-0.116,0.171c-0.009,0.062,0.009,0.123,0.056,0.182l1.972,2.595c0.042,0.053,0.09,0.08,0.146,0.079
		c0.055-0.001,0.129-0.036,0.221-0.108l0.268-0.202L47.988,50.404z"/>
	<path clip-path="url(#SVGID_2_)" fill="#1A2B53" d="M43.47,53.329l0.12,0.238l-1.945,0.97L41.525,54.3l0.328-0.163
		c0.095-0.047,0.151-0.099,0.171-0.153c0.02-0.054,0.011-0.122-0.029-0.202l-1.407-2.818c-0.058-0.113-0.112-0.179-0.163-0.191
		c-0.052-0.015-0.146,0.012-0.278,0.079l-0.545,0.271c-0.204,0.103-0.345,0.293-0.424,0.573c-0.081,0.281-0.063,0.657,0.056,1.127
		l-0.229,0.115l-0.639-1.495l3.334-1.663l0.118,0.237l-0.334,0.166c-0.071,0.037-0.119,0.083-0.138,0.141
		c-0.018,0.055-0.011,0.119,0.024,0.186l1.445,2.897c0.034,0.07,0.079,0.111,0.135,0.124c0.053,0.014,0.126-0.005,0.221-0.051
		L43.47,53.329z"/>
	<path clip-path="url(#SVGID_2_)" fill="#1A2B53" d="M38.853,55.494l0.074,0.256l-2.09,0.597l-0.073-0.255l0.352-0.102
		c0.102-0.027,0.166-0.067,0.196-0.118c0.029-0.05,0.031-0.117,0.007-0.204l-0.866-3.028c-0.033-0.124-0.075-0.195-0.124-0.219
		c-0.049-0.022-0.145-0.015-0.288,0.026l-0.586,0.168c-0.219,0.063-0.393,0.224-0.521,0.485c-0.129,0.261-0.181,0.634-0.151,1.118
		l-0.248,0.07l-0.352-1.588l3.581-1.023l0.073,0.257l-0.358,0.103c-0.078,0.022-0.133,0.059-0.161,0.112
		c-0.028,0.051-0.033,0.114-0.012,0.187l0.89,3.114c0.021,0.075,0.058,0.124,0.108,0.147c0.052,0.021,0.128,0.018,0.229-0.011
		L38.853,55.494z"/>
	<path clip-path="url(#SVGID_2_)" fill="#1A2B53" d="M33.962,57.047l-3.674,0.322l-0.212-1.467l0.251-0.022
		c0.089,0.343,0.185,0.587,0.285,0.732c0.103,0.145,0.229,0.249,0.381,0.313c0.148,0.063,0.34,0.085,0.572,0.064l0.576-0.05
		c0.09-0.008,0.151-0.032,0.188-0.07c0.037-0.039,0.053-0.09,0.048-0.153l-0.13-1.462l-0.196,0.018
		c-0.226,0.019-0.396,0.1-0.509,0.239c-0.114,0.142-0.169,0.355-0.166,0.645l-0.256,0.022l-0.173-1.963l0.257-0.022
		c0.044,0.323,0.136,0.548,0.273,0.67s0.331,0.172,0.585,0.148l0.162-0.014l-0.137-1.561c-0.006-0.067-0.03-0.115-0.073-0.141
		c-0.063-0.036-0.152-0.049-0.268-0.039l-0.507,0.044c-0.349,0.031-0.623,0.168-0.825,0.408c-0.201,0.243-0.308,0.59-0.321,1.044
		l-0.257,0.023l-0.078-1.611l3.831-0.337l0.023,0.264l-0.379,0.035c-0.085,0.006-0.149,0.035-0.191,0.083
		c-0.04,0.047-0.056,0.107-0.051,0.182l0.285,3.246c0.007,0.067,0.034,0.116,0.082,0.145c0.047,0.029,0.128,0.038,0.245,0.028
		l0.334-0.03L33.962,57.047z"/>
	<path clip-path="url(#SVGID_2_)" fill="#1A2B53" d="M28.536,57.401l-1.306-0.15l-1.947-3.148l-0.226,1.96
		c-0.022,0.194,0.015,0.355,0.111,0.484c0.097,0.13,0.245,0.212,0.446,0.25l-0.03,0.264l-1.537-0.177l0.031-0.266
		c0.217,0.003,0.378-0.045,0.483-0.139c0.104-0.094,0.169-0.245,0.193-0.452l0.379-3.283l0.329,0.039l2.209,3.618l0.265-2.298
		c0.03-0.264-0.007-0.462-0.114-0.598c-0.106-0.134-0.25-0.211-0.428-0.229l-0.071-0.009l0.03-0.266l1.699,0.196l-0.031,0.265
		l-0.116-0.014c-0.166-0.019-0.314,0.032-0.444,0.151c-0.128,0.119-0.205,0.281-0.229,0.491l-0.313,2.715
		c0.107,0.183,0.26,0.286,0.458,0.308l0.187,0.021L28.536,57.401z"/>
	<path clip-path="url(#SVGID_2_)" fill="#1A2B53" d="M22.687,56.54l-3.524-1.137l0.404-1.561l0.248,0.08
		c-0.048,0.348-0.054,0.625-0.021,0.839c0.034,0.214,0.098,0.379,0.191,0.494c0.095,0.115,0.212,0.195,0.354,0.241
		c0.083,0.027,0.148,0.029,0.196,0.008c0.05-0.021,0.084-0.063,0.104-0.128l1.006-3.116c0.02-0.06,0.017-0.115-0.009-0.166
		c-0.023-0.05-0.063-0.083-0.116-0.1l-0.458-0.148l0.082-0.253l2.156,0.695l-0.082,0.253l-0.435-0.141
		c-0.066-0.021-0.124-0.02-0.174,0.007c-0.051,0.024-0.085,0.067-0.105,0.13l-1,3.102c-0.024,0.071-0.022,0.132,0.006,0.179
		c0.028,0.047,0.083,0.083,0.167,0.111c0.463,0.149,0.914-0.175,1.352-0.97l0.239,0.077L22.687,56.54z"/>
	<path clip-path="url(#SVGID_2_)" fill="#1A2B53" d="M15.828,53.826l-2.143-1.416c-0.333-0.22-0.542-0.473-0.629-0.757
		c-0.086-0.285-0.051-0.545,0.104-0.781c0.136-0.205,0.329-0.331,0.575-0.374c0.247-0.041,0.548-0.003,0.904,0.119
		c-0.358-0.334-0.571-0.633-0.639-0.9c-0.068-0.266-0.024-0.517,0.129-0.749c0.136-0.205,0.313-0.342,0.534-0.41
		c0.155-0.049,0.367-0.043,0.634,0.019c0.269,0.06,0.548,0.186,0.84,0.378l2.025,1.339l-0.146,0.224l-0.324-0.216
		c-0.056-0.035-0.11-0.048-0.162-0.032c-0.067,0.02-0.123,0.063-0.166,0.127l-1.807,2.734c-0.027,0.042-0.031,0.087-0.013,0.136
		c0.02,0.049,0.071,0.102,0.157,0.158l0.273,0.181L15.828,53.826z M15.619,51.393l-0.399-0.265
		c-0.273-0.181-0.508-0.254-0.702-0.218c-0.193,0.037-0.377,0.188-0.552,0.451c-0.15,0.23-0.202,0.43-0.154,0.603
		c0.05,0.171,0.233,0.361,0.55,0.57c0.151,0.102,0.256,0.149,0.314,0.149c0.059,0,0.111-0.035,0.158-0.107L15.619,51.393z
		 M15.767,51.169l0.849-1.285c0.044-0.065,0.064-0.127,0.058-0.182c-0.005-0.052-0.033-0.096-0.082-0.129l-0.459-0.303
		c-0.225-0.149-0.441-0.203-0.65-0.166s-0.393,0.176-0.55,0.413c-0.164,0.249-0.222,0.482-0.171,0.706
		c0.051,0.221,0.206,0.419,0.467,0.592L15.767,51.169z"/>
	<path clip-path="url(#SVGID_2_)" fill="#1A2B53" d="M11.208,50.581L9.65,49.014c-0.254-0.254-0.427-0.495-0.522-0.722
		c-0.092-0.226-0.123-0.433-0.087-0.624c0.035-0.189,0.122-0.354,0.259-0.49c0.221-0.221,0.498-0.3,0.83-0.238
		c0.254,0.048,0.552,0.211,0.895,0.494c-0.13-0.183-0.209-0.345-0.237-0.485c-0.029-0.14-0.019-0.298,0.028-0.474
		c0.061-0.231,0.167-0.476,0.317-0.733c0.098-0.164,0.151-0.276,0.158-0.335c0.009-0.061-0.003-0.106-0.036-0.138
		c-0.088-0.09-0.261-0.025-0.514,0.192l-0.178-0.179c0.266-0.236,0.501-0.36,0.708-0.369s0.4,0.076,0.579,0.255
		c0.128,0.129,0.204,0.259,0.228,0.39c0.025,0.13,0.007,0.266-0.054,0.407c-0.034,0.082-0.137,0.252-0.31,0.51
		c-0.202,0.3-0.326,0.514-0.373,0.639c-0.048,0.127-0.06,0.242-0.039,0.347c0.022,0.106,0.079,0.205,0.173,0.3l0.219,0.221
		l1.107-1.101c0.049-0.048,0.072-0.1,0.069-0.152c-0.007-0.075-0.037-0.14-0.09-0.193l-0.271-0.271l0.189-0.189l1.513,1.522
		l-0.189,0.187l-0.234-0.234c-0.061-0.063-0.123-0.092-0.186-0.092c-0.063,0.001-0.122,0.028-0.179,0.086l-2.264,2.252
		c-0.063,0.062-0.095,0.121-0.095,0.178c-0.001,0.058,0.023,0.113,0.077,0.165l0.254,0.256L11.208,50.581z M11.512,48.162
		l-0.252-0.254c-0.224-0.224-0.457-0.345-0.702-0.359c-0.185-0.011-0.381,0.089-0.59,0.296c-0.192,0.19-0.285,0.379-0.278,0.563
		c0.007,0.186,0.128,0.396,0.363,0.632c0.127,0.128,0.221,0.193,0.28,0.198c0.061,0.005,0.139-0.041,0.235-0.137L11.512,48.162z"/>
	<path clip-path="url(#SVGID_2_)" fill="#1A2B53" d="M6.079,44.73l2.303-3.414c0.065-0.096,0.098-0.177,0.101-0.244
		c0.003-0.065-0.021-0.134-0.069-0.208l-0.084-0.129l0.223-0.146l1.092,1.66L9.42,42.396L9.318,42.24
		c-0.08-0.123-0.15-0.198-0.207-0.226c-0.058-0.03-0.109-0.029-0.154,0.001c-0.035,0.022-0.07,0.058-0.103,0.107l-0.477,0.704
		l0.871,1.325l0.382-0.07c0.158-0.03,0.269-0.064,0.329-0.104c0.104-0.068,0.162-0.161,0.177-0.281
		c0.014-0.118-0.023-0.245-0.11-0.377l-0.074-0.112l0.223-0.147l0.883,1.346l-0.223,0.146l-0.05-0.077
		c-0.056-0.086-0.134-0.143-0.23-0.174c-0.138-0.043-0.283-0.049-0.438-0.023l-3.863,0.725L6.079,44.73z M7.228,44.526l1.722-0.317
		l-0.743-1.131L7.228,44.526z"/>
	<path clip-path="url(#SVGID_2_)" fill="#1A2B53" d="M4.486,41.9l-0.49-1.22l1.841-3.209l-1.832,0.734
		c-0.18,0.072-0.304,0.183-0.372,0.328c-0.069,0.147-0.071,0.317-0.006,0.511l-0.248,0.1l-0.575-1.436l0.247-0.098
		c0.102,0.191,0.219,0.311,0.352,0.358c0.134,0.048,0.297,0.032,0.489-0.046l3.067-1.229l0.123,0.307l-2.128,3.666l2.147-0.86
		c0.246-0.101,0.402-0.229,0.47-0.385c0.068-0.158,0.068-0.321,0.001-0.486l-0.027-0.067l0.247-0.099l0.637,1.586l-0.247,0.099
		L8.14,40.347c-0.063-0.156-0.178-0.262-0.345-0.318c-0.166-0.056-0.346-0.046-0.541,0.031l-2.539,1.018
		c-0.109,0.182-0.125,0.364-0.052,0.551l0.069,0.174L4.486,41.9z"/>
	<path clip-path="url(#SVGID_2_)" fill="#1A2B53" d="M2.434,36.372L2.05,34.126c-0.069-0.409-0.044-0.782,0.077-1.119
		c0.121-0.339,0.326-0.622,0.615-0.853c0.291-0.229,0.636-0.379,1.037-0.447c0.416-0.07,0.791-0.053,1.126,0.056
		c0.335,0.106,0.621,0.304,0.858,0.591C6,32.64,6.149,32.967,6.211,33.332l0.397,2.328l-0.261,0.046l-0.06-0.349
		c-0.015-0.085-0.049-0.145-0.103-0.18c-0.053-0.035-0.121-0.046-0.205-0.032l-3.144,0.536c-0.084,0.015-0.143,0.048-0.174,0.101
		c-0.031,0.05-0.037,0.131-0.018,0.237l0.052,0.309L2.434,36.372z M5.996,33.652c-0.044-0.257-0.147-0.475-0.311-0.651
		c-0.165-0.179-0.367-0.291-0.607-0.343c-0.239-0.049-0.596-0.033-1.069,0.046c-0.497,0.087-0.869,0.202-1.116,0.352
		c-0.247,0.151-0.411,0.325-0.493,0.521c-0.082,0.198-0.092,0.47-0.033,0.816c0.032,0.191,0.068,0.307,0.108,0.35
		c0.04,0.043,0.102,0.057,0.186,0.042l3.162-0.539c0.095-0.017,0.159-0.047,0.194-0.093c0.035-0.046,0.045-0.11,0.031-0.194
		L5.996,33.652z"/>
</g>
<g>
	<defs>
		<path id="SVGID_3_" d="M32.894,7.839c3.134,4.052,4.141,7.342,4.443,9.615c0.267,2.29-0.176,3.562-0.786,4.018
			c-1.325,0.846-3.122-1.333-6.08-4.911c-1.844-1.65-2.757-1.213-2.871-0.234c-0.118,1.015,0.562,2.572,1.781,3.975
			c2.559,3.182,3.7,7.402,2.995,11.261c-0.656,3.851-3.16,7.337-6.78,8.817c-1.296,0.668-2.079,1.527-2.183,2.357
			c-0.086,0.796,0.506,1.564,2.372,1.319c2.692-1.08,5.311-2.856,7.569-5.296c0.905-0.993,1.829-1.402,2.449-1.046
			c0.607,0.344,0.912,1.452,0.249,3.208c-2.283,4.511-5.722,8.249-9.97,10.81c1.115,0.169,2.256,0.259,3.418,0.259
			c0.731,0,1.453-0.039,2.167-0.107c4.223-3.424,7.495-8.017,9.452-13.339c-0.184-0.452-0.354-0.91-0.513-1.375
			c-1.955-5.767-1.835-12.628,1.301-18.928c-0.944-3.362-2.456-6.685-4.604-9.841c-1.572-0.581-3.229-0.986-4.943-1.204
			C32.521,7.404,32.699,7.618,32.894,7.839"/>
	</defs>
	<clipPath id="SVGID_4_">
		<use xlink:href="#SVGID_3_"  overflow="visible"/>
	</clipPath>
	
		<linearGradient id="SVGID_5_" gradientUnits="userSpaceOnUse" x1="-0.1416" y1="59.1436" x2="0.8531" y2="59.1436" gradientTransform="matrix(18.5923 0 0 -18.5923 26.0411 1129.2111)">
		<stop  offset="0" style="stop-color:#068DB9"/>
		<stop  offset="0.2211" style="stop-color:#0585B2"/>
		<stop  offset="0.5649" style="stop-color:#036F9D"/>
		<stop  offset="0.9866" style="stop-color:#004B7C"/>
		<stop  offset="1" style="stop-color:#004A7B"/>
	</linearGradient>
	<rect x="23.327" y="7.197" clip-path="url(#SVGID_4_)" fill="url(#SVGID_5_)" width="18.581" height="44.794"/>
</g>
<g>
	<defs>
		<path id="SVGID_6_" d="M33.638,18.205c-0.201,1.162,0.354,2.229,1.237,2.382c0.883,0.152,1.765-0.666,1.964-1.829
			c0.201-1.162-0.353-2.227-1.235-2.381c-0.072-0.012-0.144-0.018-0.214-0.018C34.581,16.358,33.823,17.137,33.638,18.205"/>
	</defs>
	<clipPath id="SVGID_7_">
		<use xlink:href="#SVGID_6_"  overflow="visible"/>
	</clipPath>
	
		<linearGradient id="SVGID_8_" gradientUnits="userSpaceOnUse" x1="-0.1499" y1="59.1064" x2="0.8448" y2="59.1064" gradientTransform="matrix(3.3 0 0 -3.3 34.0899 213.6012)">
		<stop  offset="0" style="stop-color:#068DB9"/>
		<stop  offset="0.2211" style="stop-color:#0585B2"/>
		<stop  offset="0.5649" style="stop-color:#036F9D"/>
		<stop  offset="0.9866" style="stop-color:#004B7C"/>
		<stop  offset="1" style="stop-color:#004A7B"/>
	</linearGradient>
	<rect x="33.437" y="16.358" clip-path="url(#SVGID_7_)" fill="url(#SVGID_8_)" width="3.604" height="4.381"/>
</g>
<g>
	<defs>
		<path id="SVGID_9_" d="M44.382,14.235c-0.975,1.296-1.795,2.639-2.475,4.007c-3.136,6.299-3.256,13.161-1.301,18.928
			c0.158,0.465,0.329,0.923,0.513,1.375c1.041,2.558,2.496,4.873,4.289,6.854c0.623-0.624,1.202-1.287,1.748-1.978
			c-0.984-1.178-1.841-2.475-2.548-3.871c-0.497-1.315-0.27-2.143,0.185-2.4c0.464-0.267,1.155,0.039,1.832,0.78
			c0.823,0.891,1.711,1.66,2.64,2.311c0.412-0.759,0.778-1.546,1.103-2.354c-1.582-1.331-2.656-3.263-3.011-5.337
			c-0.527-2.887,0.325-6.042,2.239-8.42c0.558-0.642,0.963-1.328,1.173-1.937c-0.193-0.566-0.406-1.122-0.645-1.667
			c-0.337,0.063-0.78,0.304-1.344,0.806c-2.211,2.675-3.555,4.305-4.546,3.672c-0.456-0.34-0.786-1.292-0.587-3.006
			c0.217-1.646,0.937-4.009,3.115-6.912c-0.499-0.596-1.029-1.166-1.586-1.707C44.917,13.625,44.651,13.907,44.382,14.235"/>
	</defs>
	<clipPath id="SVGID_10_">
		<use xlink:href="#SVGID_9_"  overflow="visible"/>
	</clipPath>
	
		<linearGradient id="SVGID_11_" gradientUnits="userSpaceOnUse" x1="-0.1479" y1="59.1436" x2="0.8474" y2="59.1436" gradientTransform="matrix(11.5158 0 0 -11.5158 41.0096 710.4715)">
		<stop  offset="0" style="stop-color:#068DB9"/>
		<stop  offset="0.2211" style="stop-color:#0585B2"/>
		<stop  offset="0.5649" style="stop-color:#036F9D"/>
		<stop  offset="0.9866" style="stop-color:#004B7C"/>
		<stop  offset="1" style="stop-color:#004A7B"/>
	</linearGradient>
	<rect x="38.651" y="13.38" clip-path="url(#SVGID_10_)" fill="url(#SVGID_11_)" width="12.117" height="32.019"/>
</g>
<g>
	<defs>
		<path id="SVGID_12_" d="M44.942,21.195c-0.66,0.114-1.075,0.911-0.924,1.781c0.149,0.87,0.808,1.482,1.468,1.367
			c0.662-0.114,1.076-0.913,0.926-1.78c-0.139-0.8-0.705-1.382-1.31-1.382C45.05,21.181,44.996,21.186,44.942,21.195"/>
	</defs>
	<clipPath id="SVGID_13_">
		<use xlink:href="#SVGID_12_"  overflow="visible"/>
	</clipPath>
	
		<linearGradient id="SVGID_14_" gradientUnits="userSpaceOnUse" x1="-0.1719" y1="59.1104" x2="0.8232" y2="59.1104" gradientTransform="matrix(2.4672 0 0 -2.4672 44.4118 168.6537)">
		<stop  offset="0" style="stop-color:#068DB9"/>
		<stop  offset="0.2211" style="stop-color:#0585B2"/>
		<stop  offset="0.5649" style="stop-color:#036F9D"/>
		<stop  offset="0.9866" style="stop-color:#004B7C"/>
		<stop  offset="1" style="stop-color:#004A7B"/>
	</linearGradient>
	<rect x="43.867" y="21.181" clip-path="url(#SVGID_13_)" fill="url(#SVGID_14_)" width="2.695" height="3.277"/>
</g>
<g>
	<defs>
		<rect id="SVGID_15_" width="59" height="59"/>
	</defs>
	<clipPath id="SVGID_16_">
		<use xlink:href="#SVGID_15_"  overflow="visible"/>
	</clipPath>
	<path clip-path="url(#SVGID_16_)" fill="#FFFFFF" d="M23.771,27.742c0.789,0,1.612-0.081,2.469-0.241
		c0.857-0.16,1.727-0.388,2.607-0.686v3.241c-0.525,0.229-1.333,0.446-2.417,0.652c-1.087,0.205-2.212,0.309-3.379,0.309
		c-1.178,0-2.295-0.152-3.352-0.454c-1.058-0.303-1.98-0.792-2.769-1.466s-1.415-1.55-1.877-2.625
		c-0.464-1.073-0.695-2.377-0.695-3.91c0-1.508,0.217-2.829,0.652-3.96c0.435-1.132,1.017-2.068,1.749-2.812
		c0.731-0.744,1.569-1.301,2.512-1.673c0.945-0.371,1.918-0.557,2.925-0.557c1.051,0,2.021,0.161,2.907,0.48
		c0.885,0.32,1.651,0.823,2.297,1.51c0.646,0.686,1.149,1.568,1.509,2.649c0.359,1.081,0.539,2.357,0.539,3.831
		c-0.011,0.573-0.027,1.059-0.051,1.458H18.507c0.057,0.766,0.228,1.421,0.513,1.964c0.286,0.544,0.661,0.983,1.124,1.32
		c0.464,0.337,1.003,0.583,1.621,0.738C22.382,27.664,23.051,27.742,23.771,27.742 M22.143,16.732c-0.516,0-0.972,0.094-1.373,0.283
		c-0.4,0.189-0.746,0.445-1.037,0.772c-0.292,0.326-0.522,0.707-0.694,1.14c-0.171,0.435-0.286,0.896-0.343,1.39h6.535
		c0-0.493-0.067-0.955-0.198-1.39c-0.131-0.434-0.326-0.814-0.583-1.14c-0.257-0.327-0.577-0.583-0.959-0.772
		C23.106,16.827,22.657,16.732,22.143,16.732"/>
	<path clip-path="url(#SVGID_16_)" fill="#1A2B53" d="M14.699,33.721c0.138-0.397,0.467-0.754,0.997-0.754
		c0.641,0,1.01,0.486,1.01,1.03c0,0.496-0.268,0.838-0.556,1.157l-0.625,0.688h1.22v0.524h-1.962v-0.469l0.952-1.073
		c0.288-0.322,0.418-0.538,0.418-0.804c0-0.285-0.155-0.545-0.458-0.545c-0.264,0-0.437,0.175-0.553,0.483L14.699,33.721z"/>
	
		<path clip-path="url(#SVGID_16_)" fill="none" stroke="#1A2B53" stroke-width="3" stroke-linejoin="round" stroke-miterlimit="10" d="
		M14.699,33.721c0.138-0.397,0.467-0.754,0.997-0.754c0.641,0,1.01,0.486,1.01,1.03c0,0.496-0.268,0.838-0.556,1.157l-0.625,0.688
		h1.22v0.524h-1.962v-0.469l0.952-1.073c0.288-0.322,0.418-0.538,0.418-0.804c0-0.285-0.155-0.545-0.458-0.545
		c-0.264,0-0.437,0.175-0.553,0.483L14.699,33.721z"/>
	<path clip-path="url(#SVGID_16_)" fill="#1A2B53" d="M17.804,32.967c0.813,0,1.001,0.875,1.014,1.725
		c0.013,0.813-0.187,1.731-1.014,1.731c-0.81,0-1.006-0.918-1.006-1.731C16.797,33.815,17.002,32.967,17.804,32.967 M17.804,35.922
		c0.387,0,0.471-0.628,0.471-1.235c0-0.618-0.084-1.229-0.471-1.229c-0.365,0-0.458,0.61-0.458,1.229
		C17.345,35.294,17.439,35.922,17.804,35.922"/>
	
		<path clip-path="url(#SVGID_16_)" fill="none" stroke="#1A2B53" stroke-width="3" stroke-linejoin="round" stroke-miterlimit="10" d="
		M17.804,32.967c0.813,0,1.001,0.875,1.014,1.725c0.013,0.813-0.187,1.731-1.014,1.731c-0.81,0-1.006-0.918-1.006-1.731
		C16.797,33.815,17.002,32.967,17.804,32.967z M17.804,35.922c0.387,0,0.471-0.628,0.471-1.235c0-0.618-0.084-1.229-0.471-1.229
		c-0.365,0-0.458,0.61-0.458,1.229C17.345,35.294,17.439,35.922,17.804,35.922z"/>
	<polygon clip-path="url(#SVGID_16_)" fill="#1A2B53" points="20.335,36.367 19.797,36.367 19.797,33.706 19.374,33.969 
		19.112,33.529 19.89,33.023 20.335,33.023 	"/>
	
		<polygon clip-path="url(#SVGID_16_)" fill="none" stroke="#1A2B53" stroke-width="3" stroke-linejoin="round" stroke-miterlimit="10" points="
		20.335,36.367 19.797,36.367 19.797,33.706 19.374,33.969 19.112,33.529 19.89,33.023 20.335,33.023 	"/>
	<path clip-path="url(#SVGID_16_)" fill="#1A2B53" d="M22.63,33.716c-0.16-0.159-0.306-0.248-0.529-0.248
		c-0.312,0-0.552,0.311-0.591,0.904c0.132-0.146,0.324-0.234,0.542-0.234c0.62,0,0.98,0.437,0.98,1.139
		c0,0.669-0.365,1.146-1.002,1.146c-0.578,0-1.072-0.355-1.072-1.643c0-1.195,0.409-1.813,1.135-1.813
		c0.329,0,0.649,0.146,0.836,0.353L22.63,33.716z M22.029,35.922c0.353,0,0.468-0.304,0.468-0.675c0-0.369-0.182-0.618-0.472-0.618
		c-0.311,0-0.467,0.286-0.467,0.656C21.557,35.651,21.705,35.922,22.029,35.922"/>
	
		<path clip-path="url(#SVGID_16_)" fill="none" stroke="#1A2B53" stroke-width="3" stroke-linejoin="round" stroke-miterlimit="10" d="
		M22.63,33.716c-0.16-0.159-0.306-0.248-0.529-0.248c-0.312,0-0.552,0.311-0.591,0.904c0.132-0.146,0.324-0.234,0.542-0.234
		c0.62,0,0.98,0.437,0.98,1.139c0,0.669-0.365,1.146-1.002,1.146c-0.578,0-1.072-0.355-1.072-1.643c0-1.195,0.409-1.813,1.135-1.813
		c0.329,0,0.649,0.146,0.836,0.353L22.63,33.716z M22.029,35.922c0.353,0,0.468-0.304,0.468-0.675c0-0.369-0.182-0.618-0.472-0.618
		c-0.311,0-0.467,0.286-0.467,0.656C21.557,35.651,21.705,35.922,22.029,35.922z"/>
	<rect x="23.239" y="34.385" clip-path="url(#SVGID_16_)" fill="#1A2B53" width="2.119" height="0.517"/>
	
		<rect x="23.239" y="34.385" clip-path="url(#SVGID_16_)" fill="none" stroke="#1A2B53" stroke-width="3" stroke-linejoin="round" stroke-miterlimit="10" width="2.119" height="0.517"/>
	<path clip-path="url(#SVGID_16_)" fill="#1A2B53" d="M25.579,33.721c0.138-0.397,0.467-0.754,0.996-0.754
		c0.642,0,1.011,0.486,1.011,1.03c0,0.496-0.268,0.838-0.557,1.157l-0.623,0.688h1.22v0.524h-1.962v-0.469l0.953-1.073
		c0.288-0.322,0.418-0.538,0.418-0.804c0-0.285-0.156-0.545-0.459-0.545c-0.263,0-0.436,0.175-0.551,0.483L25.579,33.721z"/>
	
		<path clip-path="url(#SVGID_16_)" fill="none" stroke="#1A2B53" stroke-width="3" stroke-linejoin="round" stroke-miterlimit="10" d="
		M25.579,33.721c0.138-0.397,0.467-0.754,0.996-0.754c0.642,0,1.011,0.486,1.011,1.03c0,0.496-0.268,0.838-0.557,1.157l-0.623,0.688
		h1.22v0.524h-1.962v-0.469l0.953-1.073c0.288-0.322,0.418-0.538,0.418-0.804c0-0.285-0.156-0.545-0.459-0.545
		c-0.263,0-0.436,0.175-0.551,0.483L25.579,33.721z"/>
	<path clip-path="url(#SVGID_16_)" fill="#1A2B53" d="M28.684,32.967c0.814,0,1,0.875,1.015,1.725
		c0.013,0.813-0.188,1.731-1.015,1.731c-0.809,0-1.006-0.918-1.006-1.731C27.678,33.815,27.883,32.967,28.684,32.967 M28.684,35.922
		c0.387,0,0.472-0.628,0.472-1.235c0-0.618-0.085-1.229-0.472-1.229c-0.365,0-0.459,0.61-0.459,1.229
		C28.225,35.294,28.319,35.922,28.684,35.922"/>
	
		<path clip-path="url(#SVGID_16_)" fill="none" stroke="#1A2B53" stroke-width="3" stroke-linejoin="round" stroke-miterlimit="10" d="
		M28.684,32.967c0.814,0,1,0.875,1.015,1.725c0.013,0.813-0.188,1.731-1.015,1.731c-0.809,0-1.006-0.918-1.006-1.731
		C27.678,33.815,27.883,32.967,28.684,32.967z M28.684,35.922c0.387,0,0.472-0.628,0.472-1.235c0-0.618-0.085-1.229-0.472-1.229
		c-0.365,0-0.459,0.61-0.459,1.229C28.225,35.294,28.319,35.922,28.684,35.922z"/>
	<polygon clip-path="url(#SVGID_16_)" fill="#1A2B53" points="31.215,36.367 30.677,36.367 30.677,33.706 30.254,33.969 
		29.992,33.529 30.771,33.023 31.215,33.023 	"/>
	
		<polygon clip-path="url(#SVGID_16_)" fill="none" stroke="#1A2B53" stroke-width="3" stroke-linejoin="round" stroke-miterlimit="10" points="
		31.215,36.367 30.677,36.367 30.677,33.706 30.254,33.969 29.992,33.529 30.771,33.023 31.215,33.023 	"/>
	<polygon clip-path="url(#SVGID_16_)" fill="#1A2B53" points="33.861,33.458 32.884,36.367 32.306,36.367 33.283,33.554 
		31.883,33.554 31.883,33.027 33.861,33.027 	"/>
	
		<polygon clip-path="url(#SVGID_16_)" fill="none" stroke="#1A2B53" stroke-width="3" stroke-linejoin="round" stroke-miterlimit="10" points="
		33.861,33.458 32.884,36.367 32.306,36.367 33.283,33.554 31.883,33.554 31.883,33.027 33.861,33.027 	"/>
	<path clip-path="url(#SVGID_16_)" fill="#1A2B53" d="M18.124,38.2c0.223,0,0.254,0.117,0.254,0.164c0,0.104-0.035,0.168-0.035,0.31
		v3.788h-0.561v-2.206h-0.419v2.02h-0.559V41.31c-0.405,0.09-0.967,0.104-1.995,0.104v-2.745h1.541v0.533h-0.98v1.677
		c0.699,0,1.02,0.019,1.434-0.088v-2.545h0.342c0.222,0,0.253,0.118,0.253,0.165c0,0.103-0.036,0.168-0.036,0.309v0.989h0.419V38.2
		H18.124z"/>
	
		<path clip-path="url(#SVGID_16_)" fill="none" stroke="#1A2B53" stroke-width="3" stroke-linejoin="round" stroke-miterlimit="10" d="
		M18.124,38.2c0.223,0,0.254,0.117,0.254,0.164c0,0.104-0.035,0.168-0.035,0.31v3.788h-0.561v-2.206h-0.419v2.02h-0.559V41.31
		c-0.405,0.09-0.967,0.104-1.995,0.104v-2.745h1.541v0.533h-0.98v1.677c0.699,0,1.02,0.019,1.434-0.088v-2.545h0.342
		c0.222,0,0.253,0.118,0.253,0.165c0,0.103-0.036,0.168-0.036,0.309v0.989h0.419V38.2H18.124z"/>
	<path clip-path="url(#SVGID_16_)" fill="#1A2B53" d="M18.635,39.024h2.452v0.511h-2.452V39.024z M18.844,40.345
		c0-0.417,0.427-0.711,1.018-0.711c0.592,0,1.015,0.304,1.015,0.711c0,0.413-0.423,0.707-1.015,0.707
		C19.271,41.052,18.844,40.744,18.844,40.345 M19.138,38.317h1.424v0.511h-1.424V38.317z M19.957,41.938h2.216v0.538h-2.776v-1.268
		h0.337c0.227,0,0.258,0.117,0.258,0.164c0,0.102-0.035,0.169-0.035,0.308V41.938z M19.431,40.341c0,0.131,0.151,0.22,0.431,0.22
		c0.281,0,0.432-0.094,0.432-0.22c0-0.112-0.151-0.22-0.432-0.22C19.583,40.121,19.431,40.219,19.431,40.341 M22.035,39.53h0.604
		v0.528h-0.604v1.322h-0.56V38.2h0.341c0.223,0,0.253,0.117,0.253,0.164c0,0.104-0.035,0.168-0.035,0.31V39.53z"/>
	
		<path clip-path="url(#SVGID_16_)" fill="none" stroke="#1A2B53" stroke-width="3" stroke-linejoin="round" stroke-miterlimit="10" d="
		M18.635,39.024h2.452v0.511h-2.452V39.024z M18.844,40.345c0-0.417,0.427-0.711,1.018-0.711c0.592,0,1.015,0.304,1.015,0.711
		c0,0.413-0.423,0.707-1.015,0.707C19.271,41.052,18.844,40.744,18.844,40.345z M19.138,38.317h1.424v0.511h-1.424V38.317z
		 M19.957,41.938h2.216v0.538h-2.776v-1.268h0.337c0.227,0,0.258,0.117,0.258,0.164c0,0.102-0.035,0.169-0.035,0.308V41.938z
		 M19.431,40.341c0,0.131,0.151,0.22,0.431,0.22c0.281,0,0.432-0.094,0.432-0.22c0-0.112-0.151-0.22-0.432-0.22
		C19.583,40.121,19.431,40.219,19.431,40.341z M22.035,39.53h0.604v0.528h-0.604v1.322h-0.56V38.2h0.341
		c0.223,0,0.253,0.117,0.253,0.164c0,0.104-0.035,0.168-0.035,0.31V39.53z"/>
	<path clip-path="url(#SVGID_16_)" fill="#1A2B53" d="M24.752,40.645h-1.958v-2.14h1.958V40.645z M23.354,40.11h0.837v-1.071h-0.837
		V40.11z M23.978,41.924h2.216v0.538h-2.777v-1.569h0.339c0.226,0,0.258,0.118,0.258,0.164c0,0.104-0.036,0.169-0.036,0.311V41.924z
		 M25.909,38.2c0.222,0,0.254,0.117,0.254,0.164c0,0.104-0.036,0.168-0.036,0.31v2.548h-0.562V38.2H25.909z"/>
	
		<path clip-path="url(#SVGID_16_)" fill="none" stroke="#1A2B53" stroke-width="3" stroke-linejoin="round" stroke-miterlimit="10" d="
		M24.752,40.645h-1.958v-2.14h1.958V40.645z M23.354,40.11h0.837v-1.071h-0.837V40.11z M23.978,41.924h2.216v0.538h-2.777v-1.569
		h0.339c0.226,0,0.258,0.118,0.258,0.164c0,0.104-0.036,0.169-0.036,0.311V41.924z M25.909,38.2c0.222,0,0.254,0.117,0.254,0.164
		c0,0.104-0.036,0.168-0.036,0.31v2.548h-0.562V38.2H25.909z"/>
	<path clip-path="url(#SVGID_16_)" fill="#1A2B53" d="M27.176,38.341h2.715c0,0.618-0.036,1.104-0.116,1.457h0.694v0.533h-1.651
		v0.52h1.073v1.589h-0.562v-1.054h-2.153v-0.535h1.072v-0.52h-1.65v-0.533h2.606c0.067-0.233,0.1-0.479,0.1-0.924h-2.128V38.341z"/>
	
		<path clip-path="url(#SVGID_16_)" fill="none" stroke="#1A2B53" stroke-width="3" stroke-linejoin="round" stroke-miterlimit="10" d="
		M27.176,38.341h2.715c0,0.618-0.036,1.104-0.116,1.457h0.694v0.533h-1.651v0.52h1.073v1.589h-0.562v-1.054h-2.153v-0.535h1.072
		v-0.52h-1.65v-0.533h2.606c0.067-0.233,0.1-0.479,0.1-0.924h-2.128V38.341z"/>
	<path clip-path="url(#SVGID_16_)" fill="#1A2B53" d="M32.047,39.011c-0.01,0.108-0.026,0.22-0.053,0.323
		c0.213,0.426,0.658,0.805,1.045,0.951l-0.383,0.401c-0.307-0.136-0.662-0.406-0.907-0.754c-0.205,0.356-0.507,0.646-0.863,0.812
		l-0.419-0.379c0.518-0.193,0.944-0.708,1.016-1.354h-0.802v-0.534h2.145v0.534H32.047z M31.896,41.924h2.215v0.538h-2.776v-1.569
		h0.338c0.228,0,0.258,0.118,0.258,0.164c0,0.104-0.034,0.169-0.034,0.311V41.924z M34.044,41.222h-0.56v-1.395h-0.801v-0.551h0.801
		V38.2h0.342c0.223,0,0.254,0.117,0.254,0.164c0,0.103-0.036,0.168-0.036,0.309V41.222z"/>
	
		<path clip-path="url(#SVGID_16_)" fill="none" stroke="#1A2B53" stroke-width="3" stroke-linejoin="round" stroke-miterlimit="10" d="
		M32.047,39.011c-0.01,0.108-0.026,0.22-0.053,0.323c0.213,0.426,0.658,0.805,1.045,0.951l-0.383,0.401
		c-0.307-0.136-0.662-0.406-0.907-0.754c-0.205,0.356-0.507,0.646-0.863,0.812l-0.419-0.379c0.518-0.193,0.944-0.708,1.016-1.354
		h-0.802v-0.534h2.145v0.534H32.047z M31.896,41.924h2.215v0.538h-2.776v-1.569h0.338c0.228,0,0.258,0.118,0.258,0.164
		c0,0.104-0.034,0.169-0.034,0.311V41.924z M34.044,41.222h-0.56v-1.395h-0.801v-0.551h0.801V38.2h0.342
		c0.223,0,0.254,0.117,0.254,0.164c0,0.103-0.036,0.168-0.036,0.309V41.222z"/>
	<path clip-path="url(#SVGID_16_)" fill="#1A2B53" d="M38.388,40.303v0.538h-1.555v0.699h-0.56v-0.699h-1.759v-0.538H38.388z
		 M37.809,39.995h-2.716v-1.653h2.716V39.995z M35.654,41.905h2.197v0.535h-2.758v-1.43h0.343c0.222,0,0.254,0.116,0.254,0.164
		c0,0.103-0.036,0.168-0.036,0.309V41.905z M35.654,39.46h1.593v-0.585h-1.593V39.46z"/>
	
		<path clip-path="url(#SVGID_16_)" fill="none" stroke="#1A2B53" stroke-width="3" stroke-linejoin="round" stroke-miterlimit="10" d="
		M38.388,40.303v0.538h-1.555v0.699h-0.56v-0.699h-1.759v-0.538H38.388z M37.809,39.995h-2.716v-1.653h2.716V39.995z M35.654,41.905
		h2.197v0.535h-2.758v-1.43h0.343c0.222,0,0.254,0.116,0.254,0.164c0,0.103-0.036,0.168-0.036,0.309V41.905z M35.654,39.46h1.593
		v-0.585h-1.593V39.46z"/>
	<path clip-path="url(#SVGID_16_)" fill="#1A2B53" d="M38.652,38.669h1.899c-0.009,1.423-0.796,2.53-1.669,2.885l-0.453-0.354
		c0.867-0.339,1.441-1.224,1.505-1.997h-1.282V38.669z M41.745,38.2c0.223,0,0.254,0.117,0.254,0.164
		c0,0.104-0.035,0.168-0.035,0.31v3.788h-0.562V38.2H41.745z"/>
	
		<path clip-path="url(#SVGID_16_)" fill="none" stroke="#1A2B53" stroke-width="3" stroke-linejoin="round" stroke-miterlimit="10" d="
		M38.652,38.669h1.899c-0.009,1.423-0.796,2.53-1.669,2.885l-0.453-0.354c0.867-0.339,1.441-1.224,1.505-1.997h-1.282V38.669z
		 M41.745,38.2c0.223,0,0.254,0.117,0.254,0.164c0,0.104-0.035,0.168-0.035,0.31v3.788h-0.562V38.2H41.745z"/>
	<path clip-path="url(#SVGID_16_)" fill="#1A2B53" d="M45.921,40.457h-0.56v-0.841h-0.752c-0.112,0.471-0.535,0.791-1.063,0.791
		c-0.614,0-1.091-0.437-1.091-1.05c0-0.619,0.477-1.059,1.091-1.059c0.517,0,0.935,0.309,1.06,0.768h0.756V38.2h0.342
		c0.224,0,0.254,0.117,0.254,0.164c0,0.103-0.036,0.168-0.036,0.31V40.457z M43.039,39.357c0,0.313,0.201,0.495,0.507,0.495
		c0.312,0,0.506-0.183,0.506-0.495c0-0.318-0.194-0.502-0.506-0.502C43.24,38.855,43.039,39.039,43.039,39.357 M43.555,40.631
		c0.224,0,0.255,0.117,0.255,0.164c0,0.098-0.036,0.164-0.036,0.3v0.047h1.565v-0.511h0.343c0.222,0,0.253,0.117,0.253,0.164
		c0,0.098-0.035,0.164-0.035,0.3v1.467h-0.561v-0.095h-1.565v0.095h-0.562v-1.931H43.555z M43.773,41.961h1.565v-0.31h-1.565V41.961
		z"/>
	
		<path clip-path="url(#SVGID_16_)" fill="none" stroke="#1A2B53" stroke-width="3" stroke-linejoin="round" stroke-miterlimit="10" d="
		M45.921,40.457h-0.56v-0.841h-0.752c-0.112,0.471-0.535,0.791-1.063,0.791c-0.614,0-1.091-0.437-1.091-1.05
		c0-0.619,0.477-1.059,1.091-1.059c0.517,0,0.935,0.309,1.06,0.768h0.756V38.2h0.342c0.224,0,0.254,0.117,0.254,0.164
		c0,0.103-0.036,0.168-0.036,0.31V40.457z M43.039,39.357c0,0.313,0.201,0.495,0.507,0.495c0.312,0,0.506-0.183,0.506-0.495
		c0-0.318-0.194-0.502-0.506-0.502C43.24,38.855,43.039,39.039,43.039,39.357z M43.555,40.631c0.224,0,0.255,0.117,0.255,0.164
		c0,0.098-0.036,0.164-0.036,0.3v0.047h1.565v-0.511h0.343c0.222,0,0.253,0.117,0.253,0.164c0,0.098-0.035,0.164-0.035,0.3v1.467
		h-0.561v-0.095h-1.565v0.095h-0.562v-1.931H43.555z M43.773,41.961h1.565v-0.31h-1.565V41.961z"/>
	<path clip-path="url(#SVGID_16_)" fill="#FFFFFF" d="M14.699,33.721c0.138-0.397,0.467-0.754,0.997-0.754
		c0.641,0,1.01,0.486,1.01,1.03c0,0.496-0.268,0.838-0.556,1.157l-0.625,0.688h1.22v0.524h-1.962v-0.469l0.952-1.073
		c0.288-0.322,0.418-0.538,0.418-0.804c0-0.285-0.155-0.545-0.458-0.545c-0.264,0-0.437,0.175-0.553,0.483L14.699,33.721z"/>
	<path clip-path="url(#SVGID_16_)" fill="#FFFFFF" d="M17.804,32.967c0.813,0,1.001,0.875,1.014,1.725
		c0.013,0.813-0.187,1.731-1.014,1.731c-0.81,0-1.006-0.918-1.006-1.731C16.797,33.815,17.002,32.967,17.804,32.967 M17.804,35.922
		c0.387,0,0.471-0.628,0.471-1.235c0-0.618-0.084-1.229-0.471-1.229c-0.365,0-0.458,0.61-0.458,1.229
		C17.345,35.294,17.439,35.922,17.804,35.922"/>
	<polygon clip-path="url(#SVGID_16_)" fill="#FFFFFF" points="20.335,36.367 19.797,36.367 19.797,33.706 19.374,33.969 
		19.112,33.529 19.89,33.023 20.335,33.023 	"/>
	<path clip-path="url(#SVGID_16_)" fill="#FFFFFF" d="M22.63,33.716c-0.16-0.159-0.306-0.248-0.529-0.248
		c-0.312,0-0.552,0.311-0.591,0.904c0.132-0.146,0.324-0.234,0.542-0.234c0.62,0,0.98,0.437,0.98,1.139
		c0,0.669-0.365,1.146-1.002,1.146c-0.578,0-1.072-0.355-1.072-1.643c0-1.195,0.409-1.813,1.135-1.813
		c0.329,0,0.649,0.146,0.836,0.353L22.63,33.716z M22.029,35.922c0.353,0,0.468-0.304,0.468-0.675c0-0.369-0.182-0.618-0.472-0.618
		c-0.311,0-0.467,0.286-0.467,0.656C21.557,35.651,21.705,35.922,22.029,35.922"/>
	<rect x="23.239" y="34.385" clip-path="url(#SVGID_16_)" fill="#FFFFFF" width="2.119" height="0.517"/>
	<path clip-path="url(#SVGID_16_)" fill="#FFFFFF" d="M25.579,33.721c0.138-0.397,0.467-0.754,0.996-0.754
		c0.642,0,1.011,0.486,1.011,1.03c0,0.496-0.268,0.838-0.557,1.157l-0.623,0.688h1.22v0.524h-1.962v-0.469l0.953-1.073
		c0.288-0.322,0.418-0.538,0.418-0.804c0-0.285-0.156-0.545-0.459-0.545c-0.263,0-0.436,0.175-0.551,0.483L25.579,33.721z"/>
	<path clip-path="url(#SVGID_16_)" fill="#FFFFFF" d="M28.684,32.967c0.814,0,1,0.875,1.015,1.725
		c0.013,0.813-0.188,1.731-1.015,1.731c-0.809,0-1.006-0.918-1.006-1.731C27.678,33.815,27.883,32.967,28.684,32.967 M28.684,35.922
		c0.387,0,0.472-0.628,0.472-1.235c0-0.618-0.085-1.229-0.472-1.229c-0.365,0-0.459,0.61-0.459,1.229
		C28.225,35.294,28.319,35.922,28.684,35.922"/>
	<polygon clip-path="url(#SVGID_16_)" fill="#FFFFFF" points="31.215,36.367 30.677,36.367 30.677,33.706 30.254,33.969 
		29.992,33.529 30.771,33.023 31.215,33.023 	"/>
	<polygon clip-path="url(#SVGID_16_)" fill="#FFFFFF" points="33.861,33.458 32.884,36.367 32.306,36.367 33.283,33.554 
		31.883,33.554 31.883,33.027 33.861,33.027 	"/>
	<path clip-path="url(#SVGID_16_)" fill="#FFFFFF" d="M18.124,38.2c0.223,0,0.254,0.117,0.254,0.164c0,0.104-0.035,0.168-0.035,0.31
		v3.788h-0.561v-2.206h-0.419v2.02h-0.559V41.31c-0.405,0.09-0.967,0.104-1.995,0.104v-2.745h1.541v0.533h-0.98v1.677
		c0.699,0,1.02,0.019,1.434-0.088v-2.545h0.342c0.222,0,0.253,0.118,0.253,0.165c0,0.103-0.036,0.168-0.036,0.309v0.989h0.419V38.2
		H18.124z"/>
	<path clip-path="url(#SVGID_16_)" fill="#FFFFFF" d="M18.635,39.024h2.452v0.511h-2.452V39.024z M18.844,40.345
		c0-0.417,0.427-0.711,1.018-0.711c0.592,0,1.015,0.304,1.015,0.711c0,0.413-0.423,0.707-1.015,0.707
		C19.271,41.052,18.844,40.744,18.844,40.345 M19.138,38.317h1.424v0.511h-1.424V38.317z M19.957,41.938h2.216v0.538h-2.776v-1.268
		h0.337c0.227,0,0.258,0.117,0.258,0.164c0,0.102-0.035,0.169-0.035,0.308V41.938z M19.431,40.341c0,0.131,0.151,0.22,0.431,0.22
		c0.281,0,0.432-0.094,0.432-0.22c0-0.112-0.151-0.22-0.432-0.22C19.583,40.121,19.431,40.219,19.431,40.341 M22.035,39.53h0.604
		v0.528h-0.604v1.322h-0.56V38.2h0.341c0.223,0,0.253,0.117,0.253,0.164c0,0.104-0.035,0.168-0.035,0.31V39.53z"/>
	<path clip-path="url(#SVGID_16_)" fill="#FFFFFF" d="M24.752,40.645h-1.958v-2.14h1.958V40.645z M23.354,40.11h0.837v-1.071h-0.837
		V40.11z M23.978,41.924h2.216v0.538h-2.777v-1.569h0.339c0.226,0,0.258,0.118,0.258,0.164c0,0.104-0.036,0.169-0.036,0.311V41.924z
		 M25.909,38.2c0.222,0,0.254,0.117,0.254,0.164c0,0.104-0.036,0.168-0.036,0.31v2.548h-0.562V38.2H25.909z"/>
	<path clip-path="url(#SVGID_16_)" fill="#FFFFFF" d="M27.176,38.341h2.715c0,0.618-0.036,1.104-0.116,1.457h0.694v0.533h-1.651
		v0.52h1.073v1.589h-0.562v-1.054h-2.153v-0.535h1.072v-0.52h-1.65v-0.533h2.606c0.067-0.233,0.1-0.479,0.1-0.924h-2.128V38.341z"/>
	<path clip-path="url(#SVGID_16_)" fill="#FFFFFF" d="M32.047,39.011c-0.01,0.108-0.026,0.22-0.053,0.323
		c0.213,0.426,0.658,0.805,1.045,0.951l-0.383,0.401c-0.307-0.136-0.662-0.406-0.907-0.754c-0.205,0.356-0.507,0.646-0.863,0.812
		l-0.419-0.379c0.518-0.193,0.944-0.708,1.016-1.354h-0.802v-0.534h2.145v0.534H32.047z M31.896,41.924h2.215v0.538h-2.776v-1.569
		h0.338c0.228,0,0.258,0.118,0.258,0.164c0,0.104-0.034,0.169-0.034,0.311V41.924z M34.044,41.222h-0.56v-1.395h-0.801v-0.551h0.801
		V38.2h0.342c0.223,0,0.254,0.117,0.254,0.164c0,0.103-0.036,0.168-0.036,0.309V41.222z"/>
	<path clip-path="url(#SVGID_16_)" fill="#FFFFFF" d="M38.388,40.303v0.538h-1.555v0.699h-0.56v-0.699h-1.759v-0.538H38.388z
		 M37.809,39.995h-2.716v-1.653h2.716V39.995z M35.654,41.905h2.197v0.535h-2.758v-1.43h0.343c0.222,0,0.254,0.116,0.254,0.164
		c0,0.103-0.036,0.168-0.036,0.309V41.905z M35.654,39.46h1.593v-0.585h-1.593V39.46z"/>
	<path clip-path="url(#SVGID_16_)" fill="#FFFFFF" d="M38.652,38.669h1.899c-0.009,1.423-0.796,2.53-1.669,2.885l-0.453-0.354
		c0.867-0.339,1.441-1.224,1.505-1.997h-1.282V38.669z M41.745,38.2c0.223,0,0.254,0.117,0.254,0.164
		c0,0.104-0.035,0.168-0.035,0.31v3.788h-0.562V38.2H41.745z"/>
	<path clip-path="url(#SVGID_16_)" fill="#FFFFFF" d="M45.921,40.457h-0.56v-0.841h-0.752c-0.112,0.471-0.535,0.791-1.063,0.791
		c-0.614,0-1.091-0.437-1.091-1.05c0-0.619,0.477-1.059,1.091-1.059c0.517,0,0.935,0.309,1.06,0.768h0.756V38.2h0.342
		c0.224,0,0.254,0.117,0.254,0.164c0,0.103-0.036,0.168-0.036,0.31V40.457z M43.039,39.357c0,0.313,0.201,0.495,0.507,0.495
		c0.312,0,0.506-0.183,0.506-0.495c0-0.318-0.194-0.502-0.506-0.502C43.24,38.855,43.039,39.039,43.039,39.357 M43.555,40.631
		c0.224,0,0.255,0.117,0.255,0.164c0,0.098-0.036,0.164-0.036,0.3v0.047h1.565v-0.511h0.343c0.222,0,0.253,0.117,0.253,0.164
		c0,0.098-0.035,0.164-0.035,0.3v1.467h-0.561v-0.095h-1.565v0.095h-0.562v-1.931H43.555z M43.773,41.961h1.565v-0.31h-1.565V41.961
		z"/>
</g>
</svg>
