<?xml version="1.0" encoding="utf-8"?>
<!-- Generator: Adobe Illustrator 24.0.0, SVG Export Plug-In . SVG Version: 6.00 Build 0)  -->
<svg version="1.1" id="Layer_1" xmlns="http://www.w3.org/2000/svg" xmlns:xlink="http://www.w3.org/1999/xlink" x="0px" y="0px"
	 width="202.48px" height="59px" viewBox="0 0 202.48 59" enable-background="new 0 0 202.48 59" xml:space="preserve">
<g>
	<g>
		<defs>
			<path id="SVGID_1_" d="M43.24,3.63C39.59,0.12,35.01-0.02,33.81,0c-5.17,0.02-8.27,2.09-9.97,3.82c-3.34,3.42-3.52,7.67-3.51,8.7
				v3.9h-5.62c-0.17,0-0.34,0.01-0.51,0.02C8.49,16.98,0,21.83,0,33.02c0,0.1,0,0.21,0.01,0.31c0.33,5.95,4.51,14.81,14.63,14.81
				h5.7V59h11.09V48.13h9.63V37.03h-9.63v-9.49h2.2c1.35,0.06,5.93-0.02,9.52-3.31c1.86-1.7,4.07-4.87,4.07-10.27
				C47.22,8.6,45.06,5.38,43.24,3.63L43.24,3.63L43.24,3.63z M20.34,37.03h-5.7c-2.81,0-3.41-2.88-3.54-4.2
				c0.07-3.78,1.96-5.28,4-5.28h5.24V37.03L20.34,37.03L20.34,37.03z M31.47,16.77v-4.03c0,0,0.42-2.21,2.77-2.21
				c2.35,0,2.66,1.76,2.66,2.93C36.9,14.63,36.94,16.77,31.47,16.77L31.47,16.77L31.47,16.77z"/>
		</defs>
		<clipPath id="SVGID_2_">
			<use xlink:href="#SVGID_1_"  overflow="visible"/>
		</clipPath>
		<rect x="-11.87" y="-11.87" clip-path="url(#SVGID_2_)" fill="#FFFFFF" width="70.96" height="82.74"/>
	</g>
	<path fill="#FFFFFF" d="M80.85,20.3h-6.72v-2.61c0-0.16,0.08-0.27,0.23-0.34l5.71-2.59c0.25-0.11,0.45-0.27,0.58-0.48
		c0.13-0.21,0.2-0.45,0.2-0.74v-2.61c0-0.37-0.12-0.68-0.36-0.92L79.6,9.11c-0.27-0.28-0.59-0.42-0.96-0.42h-3.35
		c-0.37,0-0.69,0.14-0.96,0.42l-1.31,1.31l0.73,0.72l1.28-1.27c0.07-0.07,0.17-0.11,0.28-0.11h3.31c0.11,0,0.2,0.04,0.28,0.11
		l0.8,0.8c0.07,0.06,0.1,0.15,0.1,0.27v2.52c0,0.16-0.08,0.27-0.23,0.34l-5.71,2.54c-0.52,0.24-0.78,0.65-0.78,1.21v3.8h7.78V20.3
		L80.85,20.3z M92.35,10.92c0-0.37-0.12-0.68-0.36-0.92L91.1,9.11c-0.27-0.28-0.59-0.42-0.96-0.42h-3.35
		c-0.37,0-0.69,0.14-0.96,0.42L84.94,10c-0.24,0.24-0.36,0.55-0.36,0.92v8.21c0,0.37,0.12,0.68,0.36,0.92l0.89,0.89
		c0.28,0.28,0.6,0.42,0.96,0.42h3.35c0.38,0,0.7-0.14,0.96-0.42l0.89-0.89c0.24-0.24,0.36-0.55,0.36-0.92V10.92L92.35,10.92z
		 M91.2,19.39l-0.8,0.8c-0.07,0.07-0.17,0.11-0.28,0.11h-3.31c-0.11,0-0.2-0.04-0.28-0.11l-0.8-0.8c-0.07-0.06-0.1-0.15-0.1-0.27
		v-8.18c0-0.12,0.03-0.21,0.1-0.27l0.8-0.8c0.07-0.07,0.17-0.11,0.28-0.11h3.31c0.11,0,0.2,0.04,0.28,0.11l0.8,0.8
		c0.07,0.06,0.1,0.15,0.1,0.27v8.16C91.3,19.23,91.26,19.33,91.2,19.39L91.2,19.39L91.2,19.39z M103.33,20.3h-2.83V8.7h-1.37
		l-2.52,2.26l0.74,0.74l2.09-1.86V20.3h-2.83v1.07h6.72V20.3L103.33,20.3z M115.37,10.92c0-0.37-0.12-0.68-0.36-0.92l-0.89-0.89
		c-0.26-0.28-0.59-0.42-0.96-0.42h-3.35c-0.37,0-0.69,0.14-0.97,0.42L107.95,10c-0.24,0.24-0.36,0.55-0.36,0.92v3.39
		c0,0.37,0.12,0.67,0.36,0.91l0.89,0.9c0.29,0.28,0.61,0.42,0.97,0.42h2.49c0.35,0,0.67-0.14,0.96-0.42l1.05-1.05v4.04
		c0,0.12-0.03,0.21-0.1,0.27l-0.8,0.8c-0.07,0.07-0.17,0.11-0.28,0.11h-3.31c-0.11,0-0.2-0.04-0.28-0.11l-1.28-1.27l-0.73,0.72
		l1.31,1.31c0.28,0.28,0.6,0.42,0.97,0.42h3.35c0.38,0,0.7-0.14,0.96-0.42l0.89-0.89c0.24-0.24,0.36-0.55,0.36-0.92V10.92
		L115.37,10.92z M114.21,13.71l-1.65,1.65c-0.07,0.07-0.17,0.11-0.28,0.11h-2.46c-0.11,0-0.2-0.04-0.28-0.11l-0.8-0.8
		c-0.07-0.06-0.1-0.16-0.1-0.29v-3.32c0-0.13,0.03-0.23,0.1-0.29l0.8-0.8c0.07-0.07,0.17-0.11,0.28-0.11h3.31
		c0.11,0,0.2,0.04,0.28,0.11l0.8,0.8c0.07,0.06,0.1,0.15,0.1,0.27v2.5C114.31,13.56,114.28,13.64,114.21,13.71L114.21,13.71
		L114.21,13.71z M133.89,18.66c0,0,0.2-0.19,0.57-0.58s0.69-0.71,0.94-0.96l-0.76-0.76l-1.51,1.54l-4.41-4.42l1.39-1.36
		c0.23-0.23,0.34-0.53,0.34-0.9c0-0.35-0.13-0.66-0.4-0.93l-1.16-1.16c-0.25-0.25-0.56-0.38-0.93-0.38c-0.36,0-0.67,0.13-0.94,0.4
		l-1.14,1.14c-0.26,0.28-0.4,0.59-0.4,0.93c0,0.38,0.13,0.7,0.38,0.95l1.34,1.33l-1.7,1.69c-0.26,0.28-0.4,0.6-0.4,0.96v3.03
		c0,0.36,0.13,0.68,0.4,0.96l0.83,0.83c0.26,0.27,0.58,0.4,0.95,0.4h3.36c0.37,0,0.69-0.13,0.95-0.4l1.54-1.54l1.94,1.94l0.73-0.76
		L133.89,18.66L133.89,18.66z M127.97,12.74l-1.26-1.25c-0.07-0.07-0.11-0.16-0.11-0.27c0-0.1,0.04-0.19,0.11-0.26l0.97-0.99
		c0.07-0.07,0.16-0.11,0.27-0.11c0.1,0,0.19,0.04,0.26,0.11l0.99,0.99c0.07,0.07,0.11,0.16,0.11,0.26c0,0.11-0.04,0.19-0.11,0.27
		L127.97,12.74L127.97,12.74z M130.85,20.18c-0.07,0.07-0.16,0.11-0.27,0.11h-3.23c-0.1,0-0.19-0.04-0.27-0.11l-0.74-0.74
		c-0.07-0.07-0.11-0.16-0.11-0.27v-3.03c0-0.11,0.04-0.19,0.11-0.27l1.62-1.61l4.4,4.4L130.85,20.18L130.85,20.18z"/>
	<path fill="#FFFFFF" d="M144.64,8.7h-1.86l-4.82,12.66h1.18l1.36-3.63h6.32l1.39,3.63h1.21L144.64,8.7L144.64,8.7z M140.96,16.6
		l2.71-7.23l2.7,7.23H140.96L140.96,16.6z M162.92,8.7l-2.39,11.64L158.25,8.7h-1.85l-2.36,11.64L151.72,8.7h-1.23l2.6,12.66h1.75
		l2.41-11.7l2.39,11.7h1.74l2.64-12.66H162.92L162.92,8.7z"/>
	<path fill="#FFFFFF" d="M171.77,8.7h-1.86l-4.82,12.66h1.18l1.36-3.63h6.32l1.39,3.63h1.21L171.77,8.7L171.77,8.7z M168.09,16.6
		l2.71-7.23l2.7,7.23H168.09L168.09,16.6z M186.03,15.67h0.45c0.37,0,0.67-0.13,0.93-0.38l0.97-0.97c0.26-0.26,0.4-0.57,0.4-0.95
		v-2.36c0-0.37-0.13-0.69-0.4-0.95l-0.99-0.98c-0.24-0.25-0.54-0.38-0.91-0.38h-6.74v12.66h1.18v-5.69h3.61
		c0.14,0,0.25,0.06,0.32,0.17l3.5,5.53h1.36L186.03,15.67L186.03,15.67z M187.5,13.54l-0.83,0.83c-0.08,0.08-0.17,0.12-0.27,0.12
		h-5.47V9.87h5.49c0.1,0,0.19,0.04,0.27,0.11l0.82,0.82c0.07,0.09,0.11,0.18,0.11,0.27v2.21C187.61,13.38,187.57,13.46,187.5,13.54
		L187.5,13.54L187.5,13.54z M202.48,11.6c0-0.37-0.13-0.68-0.4-0.95l-1.56-1.56c-0.26-0.27-0.58-0.4-0.95-0.4h-6.14v12.66h6.14
		c0.37,0,0.68-0.13,0.95-0.4l1.56-1.56c0.26-0.27,0.4-0.58,0.4-0.95V11.6L202.48,11.6z M201.19,18.65l-1.43,1.43
		c-0.07,0.07-0.16,0.11-0.27,0.11h-4.88V9.87h4.88c0.11,0,0.19,0.04,0.27,0.11l1.43,1.43c0.07,0.07,0.11,0.16,0.11,0.27v6.69
		C201.31,18.48,201.27,18.57,201.19,18.65L201.19,18.65L201.19,18.65z"/>
	<path fill="#FFFFFF" d="M83.32,47.45v-4.54h-4.94v1.18h3.76v1.96c0,0.11-0.04,0.19-0.12,0.27l-2.23,2.24
		c-0.07,0.07-0.16,0.11-0.27,0.11h-3.48c-0.1,0-0.19-0.04-0.26-0.11l-1.43-1.43c-0.07-0.07-0.11-0.16-0.11-0.27v-6.69
		c0-0.11,0.04-0.19,0.11-0.27l1.43-1.43c0.07-0.07,0.16-0.11,0.26-0.11h4.26c0.1,0,0.19,0.04,0.27,0.11l1.84,1.85l0.83-0.82
		l-1.91-1.92c-0.27-0.26-0.57-0.4-0.92-0.4h-4.44c-0.37,0-0.69,0.13-0.95,0.4l-1.56,1.56c-0.27,0.26-0.4,0.58-0.4,0.95v6.86
		c0,0.37,0.13,0.68,0.4,0.95l1.56,1.56c0.26,0.26,0.57,0.4,0.95,0.4h3.66c0.35,0,0.65-0.13,0.92-0.4l1.59-1.59l0.44,1.99h1.23
		L83.32,47.45L83.32,47.45z M94.09,44.15h0.45c0.37,0,0.67-0.13,0.93-0.38l0.97-0.97c0.27-0.26,0.4-0.57,0.4-0.95V39.5
		c0-0.37-0.13-0.69-0.4-0.95l-0.99-0.98c-0.24-0.25-0.54-0.38-0.91-0.38H87.8v12.66h1.18v-5.69h3.61c0.14,0,0.25,0.06,0.32,0.17
		l3.5,5.53h1.36L94.09,44.15L94.09,44.15z M95.55,42.02l-0.83,0.83c-0.08,0.08-0.17,0.12-0.27,0.12h-5.47v-4.62h5.49
		c0.1,0,0.19,0.04,0.27,0.11l0.82,0.82c0.07,0.09,0.11,0.18,0.11,0.27v2.21C95.66,41.86,95.63,41.94,95.55,42.02L95.55,42.02
		L95.55,42.02z M106.59,37.18h-1.86L99.9,49.84h1.18l1.36-3.63h6.32l1.39,3.63h1.21L106.59,37.18L106.59,37.18z M102.91,45.08
		l2.71-7.23l2.7,7.23H102.91L102.91,45.08z M123.62,37.18h-1.18v11.54l-5.94-11.54h-1.94v12.66h1.18V38.3l5.94,11.54h1.94V37.18
		L123.62,37.18z M137.44,40.08c0-0.37-0.13-0.68-0.4-0.95l-1.56-1.56c-0.26-0.26-0.58-0.4-0.95-0.4h-6.14v12.66h6.14
		c0.37,0,0.68-0.13,0.95-0.4l1.56-1.56c0.26-0.26,0.4-0.58,0.4-0.95V40.08L137.44,40.08z M136.15,47.13l-1.43,1.43
		c-0.07,0.07-0.16,0.11-0.27,0.11h-4.88V38.36h4.88c0.11,0,0.19,0.04,0.27,0.11l1.43,1.43c0.07,0.07,0.11,0.16,0.11,0.27v6.69
		C136.26,46.97,136.23,47.05,136.15,47.13L136.15,47.13L136.15,47.13z M156.5,39.5c0-0.37-0.13-0.69-0.4-0.95l-0.99-0.98
		c-0.24-0.25-0.54-0.38-0.91-0.38h-6.74v12.66h1.18v-5.69h5.56c0.37,0,0.67-0.13,0.93-0.38l0.97-0.97c0.26-0.26,0.4-0.57,0.4-0.95
		V39.5L156.5,39.5z M155.21,42.02l-0.83,0.83c-0.08,0.08-0.17,0.12-0.27,0.12h-5.47v-4.62h5.49c0.1,0,0.19,0.04,0.27,0.11l0.82,0.82
		c0.07,0.09,0.11,0.18,0.11,0.27v2.21C155.32,41.86,155.28,41.94,155.21,42.02L155.21,42.02L155.21,42.02z M166.24,44.15h0.45
		c0.37,0,0.67-0.13,0.93-0.38l0.97-0.97c0.26-0.26,0.4-0.57,0.4-0.95V39.5c0-0.37-0.13-0.69-0.4-0.95l-0.99-0.98
		c-0.24-0.25-0.54-0.38-0.91-0.38h-6.74v12.66h1.18v-5.69h3.61c0.14,0,0.25,0.06,0.32,0.17l3.5,5.53h1.36L166.24,44.15L166.24,44.15
		z M167.7,42.02l-0.83,0.83c-0.08,0.08-0.17,0.12-0.27,0.12h-5.47v-4.62h5.49c0.1,0,0.19,0.04,0.27,0.11l0.82,0.82
		c0.07,0.09,0.11,0.18,0.11,0.27v2.21C167.82,41.86,167.78,41.94,167.7,42.02L167.7,42.02L167.7,42.02z M178.36,48.78h-2.43V38.25
		h2.43v-1.07h-6.04v1.07h2.43v10.53h-2.43v1.07h6.04V48.78L178.36,48.78z M185.67,43.5l3.91-6.32h-1.39l-3.15,5.24l-3.15-5.24h-1.4
		l3.91,6.34l-3.91,6.32h1.38l3.17-5.24l3.13,5.24h1.43L185.67,43.5L185.67,43.5z"/>
</g>
</svg>
