<?xml version="1.0" encoding="utf-8"?>
<!-- Generator: Adobe Illustrator 16.0.0, SVG Export Plug-In . SVG Version: 6.00 Build 0)  -->
<!DOCTYPE svg PUBLIC "-//W3C//DTD SVG 1.1//EN" "http://www.w3.org/Graphics/SVG/1.1/DTD/svg11.dtd">
<svg version="1.1" id="Layer_1" xmlns="http://www.w3.org/2000/svg" xmlns:xlink="http://www.w3.org/1999/xlink" x="0px" y="0px"
	 width="41px" height="59px" viewBox="0 0 41 59" enable-background="new 0 0 41 59" xml:space="preserve">
<rect x="0" fill-rule="evenodd" clip-rule="evenodd" width="41" height="59"/>
<g>
	<defs>
		<path id="SVGID_1_" d="M26.469,40.474c0.452-2.453,1.161-4.829,2.058-7.138c0.07,0.026,0.139,0.053,0.206,0.082
			c0.252,0.105,0.488,0.238,0.705,0.394c0.689,0.485,1.184,1.181,1.417,1.97c0.2,0.666,0.214,1.394,0,2.105
			c-0.009,0.028-0.017,0.051-0.021,0.079c-0.261,0.792-0.76,1.44-1.396,1.893c-0.22,0.153-0.455,0.283-0.705,0.391
			c-0.467,0.198-0.973,0.305-1.491,0.305C26.984,40.554,26.727,40.527,26.469,40.474 M15.48,41.388
			c0.8-7.506,4.479-13.485,8.897-15.254c0.574-0.229,1.161-0.389,1.753-0.473c0.6-0.081,1.212-0.086,1.824-0.006
			c0.267,0.037,0.524,0.087,0.778,0.152c0.24,0.059,0.474,0.134,0.705,0.218c0.489,0.181,0.964,0.42,1.417,0.705
			c4.212,2.658,6.753,9.674,5.922,17.479c-0.562,5.247-2.536,9.728-5.176,12.566h-0.782v-0.833h-1.381h-0.705h-1.546
			c-0.502-1.79-0.847-3.547-1.057-5.272c-0.33-2.742-0.309-5.398,0-7.973c0.072-0.606,0.162-1.209,0.266-1.806
			c0.298,0.187,0.627,0.341,0.98,0.448c0.454,0.146,0.906,0.209,1.356,0.205c0.24-0.003,0.474-0.025,0.705-0.069
			c0.501-0.085,0.982-0.26,1.417-0.513c0.887-0.51,1.595-1.334,1.934-2.378c0.626-1.936-0.226-3.992-1.934-4.975
			c-0.267-0.151-0.551-0.28-0.854-0.377c-0.189-0.058-0.375-0.102-0.563-0.134c-0.234-0.044-0.471-0.064-0.705-0.067h-0.089
			l0.053-0.133c-0.895,0.499-1.755,0.982-2.566,1.45c-0.616,0.355-1.204,0.703-1.753,1.032c-0.639,0.385-1.227,0.753-1.756,1.099
			c0.167,0.219,0.33,0.434,0.495,0.648l1.261-0.682l1.753-0.955l0.773-0.424c-0.261,0.362-0.519,0.73-0.773,1.098
			c-0.613,0.903-1.199,1.836-1.753,2.795c-2.813,4.884-4.813,10.521-5.915,16.981C16.086,52.477,14.866,47.147,15.48,41.388
			 M2.25,2.226h36.503v32.49c-1.339-4.636-4.197-8.315-7.898-9.899c-0.46-0.192-0.935-0.357-1.417-0.488
			c-0.231-0.061-0.468-0.116-0.705-0.164c-0.197-0.039-0.403-0.073-0.607-0.099c-0.447-0.061-0.895-0.088-1.34-0.088
			c-0.219,0-0.437,0.005-0.655,0.021c-0.592,0.038-1.178,0.127-1.753,0.266c-5.714,1.372-10.441,7.513-11.285,15.415
			c-0.708,6.646,1.514,12.798,5.37,16.264h-2.26v0.833H2.25V2.226z M1.435,1.421v56.158h14.767h8.175h1.753h2.603h0.705h1.381h8.746
			h0.001v-15.88v-1.968V1.421H1.435z"/>
	</defs>
	<clipPath id="SVGID_2_">
		<use xlink:href="#SVGID_1_"  overflow="visible"/>
	</clipPath>
	
		<linearGradient id="SVGID_3_" gradientUnits="userSpaceOnUse" x1="-21.7041" y1="72.8975" x2="-20.6733" y2="72.8975" gradientTransform="matrix(32.9777 57.1191 -57.1191 32.9777 4883.0903 -1164.207)">
		<stop  offset="0" style="stop-color:#FFFBD7"/>
		<stop  offset="0.4355" style="stop-color:#FFFBD7"/>
		<stop  offset="0.6451" style="stop-color:#EBCC82"/>
		<stop  offset="0.6695" style="stop-color:#E7C67A"/>
		<stop  offset="0.7078" style="stop-color:#DAB463"/>
		<stop  offset="0.7551" style="stop-color:#C59743"/>
		<stop  offset="0.8065" style="stop-color:#AA7522"/>
		<stop  offset="0.9946" style="stop-color:#D7A855"/>
		<stop  offset="1" style="stop-color:#D7A855"/>
	</linearGradient>
	<polygon clip-path="url(#SVGID_2_)" fill="url(#SVGID_3_)" points="-23.162,15.461 10.967,73.901 64.162,43.54 30.032,-14.901 	"/>
</g>
<g>
	<defs>
		<path id="SVGID_4_" d="M28.732,29.814c-0.626,0.071-1.113,0.599-1.113,1.241c0,0.64,0.487,1.166,1.113,1.241
			c0.049,0.006,0.1,0.006,0.147,0.006c0.199,0,0.39-0.046,0.558-0.128c0.418-0.203,0.703-0.627,0.703-1.119
			s-0.285-0.916-0.703-1.121c-0.168-0.079-0.358-0.129-0.558-0.129C28.832,29.804,28.781,29.808,28.732,29.814"/>
	</defs>
	<clipPath id="SVGID_5_">
		<use xlink:href="#SVGID_4_"  overflow="visible"/>
	</clipPath>
	
		<linearGradient id="SVGID_6_" gradientUnits="userSpaceOnUse" x1="-21.6338" y1="72.8037" x2="-20.603" y2="72.8037" gradientTransform="matrix(1.2206 2.1142 -2.1142 1.2206 208.579 -13.1618)">
		<stop  offset="0" style="stop-color:#FFFBD7"/>
		<stop  offset="0.4355" style="stop-color:#FFFBD7"/>
		<stop  offset="0.6451" style="stop-color:#EBCC82"/>
		<stop  offset="0.6695" style="stop-color:#E7C67A"/>
		<stop  offset="0.7078" style="stop-color:#DAB463"/>
		<stop  offset="0.7551" style="stop-color:#C59743"/>
		<stop  offset="0.8065" style="stop-color:#AA7522"/>
		<stop  offset="0.9946" style="stop-color:#D7A855"/>
		<stop  offset="1" style="stop-color:#D7A855"/>
	</linearGradient>
	<polygon clip-path="url(#SVGID_5_)" fill="url(#SVGID_6_)" points="26.524,30.428 28.249,33.382 31.234,31.677 29.51,28.725 	"/>
</g>
<g>
	<defs>
		<path id="SVGID_7_" d="M7.685,6.926h1.258c0.425,0,0.74,0.086,0.951,0.255c0.21,0.172,0.318,0.426,0.318,0.767
			c0,0.371-0.108,0.65-0.318,0.835C9.683,8.968,9.368,9.059,8.943,9.059H7.685V6.926z M6.93,5.697H6.176v7.143h1.509v-2.541
			C8.111,10.29,8.618,10.286,9.2,10.29c0.822,0,1.448-0.201,1.877-0.602c0.428-0.4,0.644-0.985,0.644-1.756
			c0-0.729-0.215-1.283-0.644-1.664c-0.43-0.382-1.056-0.571-1.877-0.571H6.93z"/>
	</defs>
	<clipPath id="SVGID_8_">
		<use xlink:href="#SVGID_7_"  overflow="visible"/>
	</clipPath>
	
		<linearGradient id="SVGID_9_" gradientUnits="userSpaceOnUse" x1="-21.7656" y1="72.9521" x2="-20.7422" y2="72.9521" gradientTransform="matrix(0 6.9818 -6.9818 0 518.2878 157.6572)">
		<stop  offset="0" style="stop-color:#FFFBD7"/>
		<stop  offset="0.2742" style="stop-color:#FFFBD7"/>
		<stop  offset="0.4515" style="stop-color:#EBCC82"/>
		<stop  offset="0.5053" style="stop-color:#E7C67A"/>
		<stop  offset="0.5895" style="stop-color:#DAB463"/>
		<stop  offset="0.6935" style="stop-color:#C59743"/>
		<stop  offset="0.8065" style="stop-color:#AA7522"/>
		<stop  offset="0.9946" style="stop-color:#D7A855"/>
		<stop  offset="1" style="stop-color:#D7A855"/>
	</linearGradient>
	<rect x="6.176" y="5.697" clip-path="url(#SVGID_8_)" fill="url(#SVGID_9_)" width="5.545" height="7.143"/>
</g>
<g>
	<defs>
		<path id="SVGID_10_" d="M14.643,9.697h1.805c0.403,0,0.705,0.073,0.906,0.221c0.204,0.146,0.305,0.372,0.305,0.669
			c0,0.339-0.1,0.593-0.296,0.763c-0.198,0.167-0.492,0.251-0.884,0.251h-1.836V9.697z M14.643,6.926h1.667
			c0.397,0,0.694,0.061,0.891,0.182c0.196,0.122,0.295,0.305,0.295,0.546c0,0.284-0.094,0.493-0.282,0.632
			c-0.185,0.14-0.468,0.208-0.843,0.208h-1.728V6.926z M13.921,5.697H13.2v7.143h3.279c0.876,0,1.543-0.19,2.003-0.57
			c0.456-0.381,0.684-0.934,0.684-1.666c0-0.601-0.232-1.06-0.691-1.374c-0.133-0.09-0.285-0.17-0.453-0.232
			c0.088-0.042,0.167-0.09,0.24-0.141c0.444-0.308,0.664-0.757,0.664-1.351c0-0.568-0.196-1.011-0.59-1.33
			c-0.393-0.318-0.938-0.479-1.637-0.479H13.921z"/>
	</defs>
	<clipPath id="SVGID_11_">
		<use xlink:href="#SVGID_10_"  overflow="visible"/>
	</clipPath>
	
		<linearGradient id="SVGID_12_" gradientUnits="userSpaceOnUse" x1="-21.7656" y1="72.917" x2="-20.7422" y2="72.917" gradientTransform="matrix(0 6.9818 -6.9818 0 525.28 157.6572)">
		<stop  offset="0" style="stop-color:#FFFBD7"/>
		<stop  offset="0.2742" style="stop-color:#FFFBD7"/>
		<stop  offset="0.4515" style="stop-color:#EBCC82"/>
		<stop  offset="0.5053" style="stop-color:#E7C67A"/>
		<stop  offset="0.5895" style="stop-color:#DAB463"/>
		<stop  offset="0.6935" style="stop-color:#C59743"/>
		<stop  offset="0.8065" style="stop-color:#AA7522"/>
		<stop  offset="0.9946" style="stop-color:#D7A855"/>
		<stop  offset="1" style="stop-color:#D7A855"/>
	</linearGradient>
	<rect x="13.2" y="5.697" clip-path="url(#SVGID_11_)" fill="url(#SVGID_12_)" width="5.967" height="7.143"/>
</g>
<g>
	<defs>
		<path id="SVGID_13_" d="M23.623,7.29l0.957,2.867h-1.918L23.623,7.29z M23.645,5.697h-0.877l-2.556,7.143h1.559l0.474-1.453h2.742
			l0.487,1.453h1.602l-2.557-7.143H23.645z"/>
	</defs>
	<clipPath id="SVGID_14_">
		<use xlink:href="#SVGID_13_"  overflow="visible"/>
	</clipPath>
	
		<linearGradient id="SVGID_15_" gradientUnits="userSpaceOnUse" x1="-21.7656" y1="72.8818" x2="-20.7422" y2="72.8818" gradientTransform="matrix(0 6.9818 -6.9818 0 532.4909 157.6572)">
		<stop  offset="0" style="stop-color:#FFFBD7"/>
		<stop  offset="0.2742" style="stop-color:#FFFBD7"/>
		<stop  offset="0.4515" style="stop-color:#EBCC82"/>
		<stop  offset="0.5053" style="stop-color:#E7C67A"/>
		<stop  offset="0.5895" style="stop-color:#DAB463"/>
		<stop  offset="0.6935" style="stop-color:#C59743"/>
		<stop  offset="0.8065" style="stop-color:#AA7522"/>
		<stop  offset="0.9946" style="stop-color:#D7A855"/>
		<stop  offset="1" style="stop-color:#D7A855"/>
	</linearGradient>
	<rect x="20.212" y="5.697" clip-path="url(#SVGID_14_)" fill="url(#SVGID_15_)" width="6.863" height="7.143"/>
</g>
<g>
	<defs>
		<path id="SVGID_16_" d="M6.489,15.03c-0.431,0.441-0.64,1.045-0.625,1.816h0.857c0.019-0.546,0.152-0.967,0.403-1.266
			c0.249-0.295,0.594-0.444,1.033-0.444c0.42,0,0.764,0.118,1.034,0.355c0.269,0.236,0.402,0.542,0.402,0.915
			c0,0.357-0.089,0.647-0.271,0.877c-0.18,0.226-0.517,0.477-1.012,0.748c-1.019,0.555-1.713,1.066-2.084,1.535
			c-0.368,0.467-0.555,1.068-0.555,1.802v0.003h4.846v-0.85H6.673c0.079-0.197,0.18-0.37,0.301-0.525
			c0.29-0.36,0.836-0.758,1.637-1.192c0.734-0.402,1.239-0.769,1.505-1.101c0.268-0.333,0.4-0.755,0.4-1.271
			c0-0.604-0.207-1.099-0.623-1.483c-0.42-0.384-0.957-0.577-1.614-0.577C7.514,14.373,6.916,14.592,6.489,15.03"/>
	</defs>
	<clipPath id="SVGID_17_">
		<use xlink:href="#SVGID_16_"  overflow="visible"/>
	</clipPath>
	
		<linearGradient id="SVGID_18_" gradientUnits="userSpaceOnUse" x1="-21.7383" y1="72.958" x2="-20.7153" y2="72.958" gradientTransform="matrix(0 6.8401 -6.8401 0 507.1335 163.0643)">
		<stop  offset="0" style="stop-color:#FFFBD7"/>
		<stop  offset="0.2742" style="stop-color:#FFFBD7"/>
		<stop  offset="0.4515" style="stop-color:#EBCC82"/>
		<stop  offset="0.5053" style="stop-color:#E7C67A"/>
		<stop  offset="0.5895" style="stop-color:#DAB463"/>
		<stop  offset="0.6935" style="stop-color:#C59743"/>
		<stop  offset="0.8065" style="stop-color:#AA7522"/>
		<stop  offset="0.9946" style="stop-color:#D7A855"/>
		<stop  offset="1" style="stop-color:#D7A855"/>
	</linearGradient>
	<rect x="5.671" y="14.373" clip-path="url(#SVGID_17_)" fill="url(#SVGID_18_)" width="4.846" height="6.999"/>
</g>
<g>
	<defs>
		<path id="SVGID_19_" d="M12.854,20.073c-0.245-0.466-0.369-1.168-0.373-2.104c0.004-0.938,0.127-1.637,0.373-2.107
			c0.249-0.465,0.617-0.702,1.112-0.702c0.497,0,0.872,0.236,1.12,0.702c0.25,0.47,0.373,1.169,0.37,2.107
			c0.002,0.936-0.121,1.638-0.37,2.104c-0.249,0.467-0.623,0.701-1.12,0.701C13.471,20.774,13.103,20.54,12.854,20.073
			 M12.176,15.309c-0.422,0.624-0.632,1.508-0.632,2.66c0,1.151,0.21,2.036,0.632,2.658c0.42,0.622,1.017,0.935,1.791,0.935
			c0.778,0,1.381-0.313,1.799-0.935c0.418-0.623,0.629-1.507,0.629-2.658c0-1.152-0.211-2.036-0.629-2.66
			c-0.418-0.625-1.021-0.936-1.799-0.936C13.193,14.373,12.596,14.684,12.176,15.309"/>
	</defs>
	<clipPath id="SVGID_20_">
		<use xlink:href="#SVGID_19_"  overflow="visible"/>
	</clipPath>
	
		<linearGradient id="SVGID_21_" gradientUnits="userSpaceOnUse" x1="-21.7373" y1="72.9287" x2="-20.7139" y2="72.9287" gradientTransform="matrix(0 7.0261 -7.0261 0 526.3714 167.0993)">
		<stop  offset="0" style="stop-color:#FFFBD7"/>
		<stop  offset="0.2742" style="stop-color:#FFFBD7"/>
		<stop  offset="0.4515" style="stop-color:#EBCC82"/>
		<stop  offset="0.5053" style="stop-color:#E7C67A"/>
		<stop  offset="0.5895" style="stop-color:#DAB463"/>
		<stop  offset="0.6935" style="stop-color:#C59743"/>
		<stop  offset="0.8065" style="stop-color:#AA7522"/>
		<stop  offset="0.9946" style="stop-color:#D7A855"/>
		<stop  offset="1" style="stop-color:#D7A855"/>
	</linearGradient>
	<rect x="11.543" y="14.373" clip-path="url(#SVGID_20_)" fill="url(#SVGID_21_)" width="4.852" height="7.189"/>
</g>
<g>
	<defs>
		<path id="SVGID_22_" d="M19.618,14.373c-0.149,0.46-0.374,0.802-0.683,1.021c-0.304,0.217-0.701,0.321-1.189,0.312v0.7H19.4v4.966
			h0.941v-6.999H19.618z"/>
	</defs>
	<clipPath id="SVGID_23_">
		<use xlink:href="#SVGID_22_"  overflow="visible"/>
	</clipPath>
	
		<linearGradient id="SVGID_24_" gradientUnits="userSpaceOnUse" x1="-21.7383" y1="72.9033" x2="-20.7153" y2="72.9033" gradientTransform="matrix(0 6.8401 -6.8401 0 517.7155 163.0643)">
		<stop  offset="0" style="stop-color:#FFFBD7"/>
		<stop  offset="0.2742" style="stop-color:#FFFBD7"/>
		<stop  offset="0.4515" style="stop-color:#EBCC82"/>
		<stop  offset="0.5053" style="stop-color:#E7C67A"/>
		<stop  offset="0.5895" style="stop-color:#DAB463"/>
		<stop  offset="0.6935" style="stop-color:#C59743"/>
		<stop  offset="0.8065" style="stop-color:#AA7522"/>
		<stop  offset="0.9946" style="stop-color:#D7A855"/>
		<stop  offset="1" style="stop-color:#D7A855"/>
	</linearGradient>
	<rect x="17.746" y="14.373" clip-path="url(#SVGID_23_)" fill="url(#SVGID_24_)" width="2.596" height="6.999"/>
</g>
<g>
	<defs>
		<path id="SVGID_25_" d="M22.81,14.514l-0.512,3.732l0.744,0.05c0.125-0.192,0.311-0.349,0.554-0.473
			c0.244-0.123,0.496-0.187,0.755-0.187c0.481,0,0.864,0.146,1.145,0.432c0.282,0.285,0.424,0.672,0.424,1.159
			c0,0.464-0.135,0.841-0.406,1.138c-0.268,0.295-0.617,0.442-1.041,0.442c-0.443,0-0.796-0.107-1.065-0.319
			c-0.269-0.211-0.428-0.514-0.477-0.901h-0.923c0.049,0.616,0.287,1.099,0.717,1.448c0.43,0.35,0.997,0.527,1.707,0.527
			s1.293-0.229,1.746-0.685c0.44-0.442,0.668-1.007,0.681-1.692V19.06c-0.013-0.666-0.23-1.195-0.654-1.586
			c-0.439-0.409-1.029-0.613-1.775-0.613c-0.433,0-0.845,0.132-1.236,0.4l-0.029,0.018l0.308-1.913h3.004v-0.852H22.81z"/>
	</defs>
	<clipPath id="SVGID_26_">
		<use xlink:href="#SVGID_25_"  overflow="visible"/>
	</clipPath>
	
		<linearGradient id="SVGID_27_" gradientUnits="userSpaceOnUse" x1="-21.7388" y1="72.8779" x2="-20.7153" y2="72.8779" gradientTransform="matrix(0 6.8882 -6.8882 0 526.4295 164.2483)">
		<stop  offset="0" style="stop-color:#FFFBD7"/>
		<stop  offset="0.2742" style="stop-color:#FFFBD7"/>
		<stop  offset="0.4515" style="stop-color:#EBCC82"/>
		<stop  offset="0.5053" style="stop-color:#E7C67A"/>
		<stop  offset="0.5895" style="stop-color:#DAB463"/>
		<stop  offset="0.6935" style="stop-color:#C59743"/>
		<stop  offset="0.8065" style="stop-color:#AA7522"/>
		<stop  offset="0.9946" style="stop-color:#D7A855"/>
		<stop  offset="1" style="stop-color:#D7A855"/>
	</linearGradient>
	<rect x="22.007" y="14.514" clip-path="url(#SVGID_26_)" fill="url(#SVGID_27_)" width="4.851" height="7.048"/>
</g>
</svg>
