<?xml version="1.0" encoding="utf-8"?>
<!-- Generator: Adobe Illustrator 16.0.0, SVG Export Plug-In . SVG Version: 6.00 Build 0)  -->
<!DOCTYPE svg PUBLIC "-//W3C//DTD SVG 1.1//EN" "http://www.w3.org/Graphics/SVG/1.1/DTD/svg11.dtd">
<svg version="1.1" id="Layer_1" xmlns="http://www.w3.org/2000/svg" xmlns:xlink="http://www.w3.org/1999/xlink" x="0px" y="0px"
	 width="57px" height="59px" viewBox="0 0 57 59" enable-background="new 0 0 57 59" xml:space="preserve">
<polygon fill="#FFFFFF" points="0.511,13.307 0.511,46.017 28.688,58.447 56.49,45.694 56.49,12.986 28.312,0.554 "/>
<g>
	<defs>
		<rect id="SVGID_1_" y="0" width="57" height="59"/>
	</defs>
	<clipPath id="SVGID_2_">
		<use xlink:href="#SVGID_1_"  overflow="visible"/>
	</clipPath>
	<polygon clip-path="url(#SVGID_2_)" fill="none" stroke="#000000" stroke-miterlimit="10" points="0.51,46.017 0.51,13.307 
		28.313,0.554 56.49,12.986 56.49,45.694 28.688,58.447 	"/>
	<polygon clip-path="url(#SVGID_2_)" fill="none" stroke="#B28247" stroke-width="3" stroke-miterlimit="10" points="2.092,45.082 
		2.092,14.222 28.322,2.189 54.907,13.918 54.907,44.779 28.678,56.812 	"/>
</g>
<line fill="none" stroke="#000000" stroke-miterlimit="10" x1="6.238" y1="19.277" x2="50.762" y2="19.277"/>
<line fill="none" stroke="#000000" stroke-miterlimit="10" x1="6.238" y1="40.218" x2="50.762" y2="40.218"/>
<line fill="none" stroke="#B28247" stroke-width="3" stroke-linecap="round" stroke-miterlimit="10" x1="28.5" y1="6.5" x2="28.5" y2="11.232"/>
<g>
	<defs>
		<rect id="SVGID_3_" y="0" width="57" height="59"/>
	</defs>
	<clipPath id="SVGID_4_">
		<use xlink:href="#SVGID_3_"  overflow="visible"/>
	</clipPath>
	
		<line clip-path="url(#SVGID_4_)" fill="none" stroke="#B28247" stroke-width="3" stroke-linecap="round" stroke-miterlimit="10" x1="28.5" y1="48.381" x2="28.5" y2="53.113"/>
	<path clip-path="url(#SVGID_4_)" d="M8.138,15.126v2.354c0,0.034-0.018,0.05-0.05,0.05H7.922c-0.033,0-0.05-0.017-0.05-0.05v-2.354
		H7.134c-0.035,0-0.051-0.016-0.051-0.049v-0.121c0-0.034,0.016-0.05,0.051-0.05h1.75c0.034,0,0.05,0.016,0.05,0.05v0.121
		c0,0.033-0.016,0.049-0.05,0.049H8.138z"/>
	<path clip-path="url(#SVGID_4_)" d="M11.577,17.48c0,0.033-0.018,0.049-0.05,0.049h-0.163c-0.032,0-0.05-0.016-0.05-0.049v-1.195
		H9.956v1.195c0,0.033-0.017,0.049-0.05,0.049H9.745c-0.035,0-0.051-0.016-0.051-0.049v-2.532c0-0.033,0.016-0.05,0.051-0.05h0.162
		c0.033,0,0.05,0.017,0.05,0.05v1.113h1.359v-1.113c0-0.033,0.018-0.05,0.05-0.05h0.163c0.032,0,0.05,0.017,0.05,0.05V17.48z"/>
	<path clip-path="url(#SVGID_4_)" d="M12.753,17.534c-0.05,0-0.079-0.004-0.088-0.013c-0.008-0.008-0.012-0.038-0.012-0.087v-2.442
		c0-0.044,0.004-0.072,0.012-0.08c0.009-0.008,0.036-0.012,0.081-0.012h1.245c0.034,0,0.05,0.016,0.05,0.049v0.124
		c0,0.033-0.016,0.049-0.05,0.049h-1.076v0.937h1.022c0.034,0,0.05,0.016,0.05,0.048v0.128c0,0.034-0.016,0.051-0.05,0.051h-1.022
		v1.021h1.119c0.034,0,0.05,0.017,0.05,0.049v0.127c0,0.034-0.016,0.051-0.05,0.051H12.753z"/>
	<path clip-path="url(#SVGID_4_)" d="M16.702,17.48c0,0.034-0.016,0.049-0.049,0.049h-0.163c-0.032,0-0.05-0.016-0.05-0.049v-2.475
		c0-0.051,0.005-0.082,0.017-0.092c0.01-0.009,0.041-0.014,0.092-0.014h0.638c0.263,0,0.469,0.063,0.617,0.188
		c0.153,0.13,0.229,0.317,0.229,0.561c0,0.123-0.022,0.232-0.066,0.328c-0.045,0.095-0.106,0.176-0.185,0.241
		c-0.08,0.064-0.172,0.114-0.279,0.147c-0.108,0.033-0.223,0.047-0.345,0.042h-0.457V17.48z M17.764,15.647
		c0-0.168-0.044-0.297-0.132-0.389c-0.089-0.091-0.218-0.137-0.391-0.137h-0.539v1.061h0.291c0.115,0,0.218-0.007,0.312-0.018
		c0.091-0.012,0.17-0.037,0.236-0.075c0.065-0.038,0.117-0.092,0.156-0.162C17.735,15.859,17.757,15.766,17.764,15.647"/>
	<path clip-path="url(#SVGID_4_)" d="M20.616,17.48c0.005,0.012,0.005,0.023,0,0.035c-0.004,0.009-0.013,0.015-0.028,0.015h-0.187
		c-0.037,0-0.063-0.016-0.079-0.049c-0.107-0.223-0.197-0.403-0.269-0.545c-0.072-0.14-0.129-0.252-0.168-0.334
		c-0.051-0.097-0.089-0.171-0.115-0.223c-0.055,0.011-0.106,0.018-0.153,0.021c-0.046,0.002-0.104,0.005-0.176,0.007h-0.302v1.074
		c0,0.034-0.016,0.049-0.05,0.049h-0.161c-0.034,0-0.051-0.016-0.051-0.049v-2.468c0-0.026,0.001-0.047,0.002-0.061
		c0.001-0.014,0.006-0.024,0.013-0.032c0.008-0.007,0.018-0.011,0.032-0.013c0.014-0.001,0.034-0.001,0.061-0.001h0.678
		c0.136,0,0.254,0.019,0.354,0.055c0.099,0.038,0.182,0.089,0.247,0.154c0.066,0.067,0.115,0.146,0.147,0.241
		c0.032,0.095,0.049,0.2,0.049,0.316c0,0.07-0.013,0.138-0.038,0.201c-0.024,0.065-0.06,0.123-0.103,0.178
		c-0.043,0.055-0.092,0.104-0.149,0.147c-0.056,0.043-0.114,0.08-0.173,0.108L20.616,17.48z M20.189,15.672
		c0-0.1-0.011-0.184-0.033-0.253c-0.022-0.071-0.062-0.127-0.116-0.17c-0.053-0.043-0.123-0.075-0.208-0.094
		c-0.087-0.02-0.194-0.029-0.323-0.029h-0.37v1.057h0.377c0.099,0,0.188-0.011,0.27-0.035c0.083-0.024,0.154-0.058,0.214-0.103
		c0.061-0.045,0.106-0.099,0.14-0.162S20.189,15.75,20.189,15.672"/>
	<path clip-path="url(#SVGID_4_)" d="M21.646,17.53h-0.171c-0.035,0-0.051-0.017-0.051-0.049v-2.525
		c0-0.033,0.017-0.049,0.051-0.049h0.171c0.034,0,0.05,0.016,0.05,0.049v2.525C21.696,17.513,21.68,17.53,21.646,17.53"/>
	<path clip-path="url(#SVGID_4_)" d="M24.663,16.211c0,0.22-0.039,0.416-0.116,0.589c-0.076,0.172-0.183,0.316-0.319,0.429
		c-0.128,0.098-0.286,0.171-0.469,0.224c-0.185,0.051-0.393,0.078-0.625,0.078h-0.37c-0.05,0-0.079-0.004-0.087-0.012
		c-0.008-0.01-0.013-0.038-0.013-0.087v-2.426c0-0.049,0.005-0.079,0.013-0.087c0.008-0.008,0.038-0.012,0.087-0.012h0.563
		c0.454,0,0.796,0.121,1.025,0.366C24.56,15.497,24.663,15.809,24.663,16.211 M24.4,16.197c0-0.376-0.105-0.654-0.315-0.833
		c-0.187-0.158-0.442-0.238-0.768-0.238H22.93v2.182h0.218C23.983,17.307,24.4,16.937,24.4,16.197"/>
	<path clip-path="url(#SVGID_4_)" d="M25.752,17.534c-0.05,0-0.079-0.004-0.088-0.013c-0.008-0.008-0.013-0.038-0.013-0.087v-2.442
		c0-0.044,0.005-0.072,0.013-0.08c0.009-0.008,0.036-0.012,0.081-0.012h1.245c0.034,0,0.05,0.016,0.05,0.049v0.124
		c0,0.033-0.016,0.049-0.05,0.049h-1.076v0.937h1.022c0.034,0,0.05,0.016,0.05,0.048v0.128c0,0.034-0.016,0.051-0.05,0.051h-1.022
		v1.021h1.119c0.034,0,0.05,0.017,0.05,0.049v0.127c0,0.034-0.016,0.051-0.05,0.051H25.752z"/>
	<path clip-path="url(#SVGID_4_)" d="M31.671,16.218c-0.005,0.42-0.103,0.75-0.294,0.985c-0.209,0.255-0.501,0.383-0.878,0.383
		c-0.379,0-0.673-0.128-0.883-0.383c-0.196-0.243-0.294-0.572-0.294-0.985c0-0.196,0.023-0.374,0.071-0.531
		c0.048-0.16,0.117-0.3,0.208-0.423c0.107-0.13,0.236-0.231,0.389-0.302c0.151-0.072,0.321-0.109,0.509-0.109
		c0.188,0,0.357,0.037,0.507,0.107c0.148,0.07,0.278,0.173,0.386,0.309c0.094,0.127,0.164,0.269,0.211,0.426
		C31.65,15.852,31.674,16.027,31.671,16.218 M31.409,16.218c0-0.149-0.019-0.29-0.058-0.421c-0.038-0.134-0.092-0.252-0.161-0.358
		c-0.084-0.116-0.184-0.206-0.299-0.268c-0.117-0.063-0.247-0.094-0.393-0.094c-0.149,0-0.281,0.031-0.397,0.094
		s-0.216,0.152-0.299,0.268c-0.07,0.106-0.124,0.225-0.161,0.358c-0.039,0.132-0.059,0.272-0.059,0.421
		c0,0.148,0.02,0.291,0.059,0.423c0.037,0.133,0.091,0.253,0.161,0.36c0.085,0.113,0.188,0.202,0.305,0.266
		c0.116,0.063,0.247,0.095,0.392,0.095c0.146,0,0.275-0.031,0.393-0.094c0.115-0.063,0.215-0.151,0.299-0.267
		c0.069-0.107,0.123-0.227,0.161-0.36C31.391,16.509,31.409,16.367,31.409,16.218"/>
	<path clip-path="url(#SVGID_4_)" d="M32.852,17.48c0,0.033-0.018,0.049-0.051,0.049h-0.164c-0.034,0-0.052-0.016-0.052-0.049
		v-2.472c0-0.051,0.004-0.082,0.014-0.091c0.009-0.007,0.039-0.011,0.091-0.011h1.198c0.034,0,0.05,0.016,0.05,0.05v0.12
		c0,0.034-0.016,0.051-0.05,0.051h-1.036v0.938h0.986c0.034,0,0.05,0.018,0.05,0.05v0.128c0,0.033-0.016,0.049-0.05,0.049h-0.986
		V17.48z"/>
	<path clip-path="url(#SVGID_4_)" d="M36.793,16.225l-0.352,0.407v0.849c0,0.032-0.017,0.048-0.05,0.048h-0.157
		c-0.034,0-0.051-0.016-0.051-0.048v-2.525c0-0.033,0.017-0.05,0.051-0.05h0.157c0.033,0,0.05,0.017,0.05,0.05v1.351l1.108-1.351
		c0.033-0.033,0.074-0.05,0.122-0.05h0.201c0.014,0,0.023,0.006,0.026,0.016c0.004,0.011,0,0.022-0.013,0.034l-0.926,1.075
		l1.013,1.45c0.021,0.032,0.016,0.048-0.014,0.048h-0.194c-0.024,0-0.046-0.003-0.065-0.01c-0.019-0.007-0.034-0.021-0.046-0.038
		L36.793,16.225z"/>
	<path clip-path="url(#SVGID_4_)" d="M41.036,16.218c-0.006,0.42-0.103,0.75-0.294,0.985c-0.208,0.255-0.501,0.383-0.878,0.383
		c-0.379,0-0.673-0.128-0.883-0.383c-0.196-0.243-0.294-0.572-0.294-0.985c0-0.196,0.023-0.374,0.071-0.531
		c0.048-0.16,0.117-0.3,0.208-0.423c0.107-0.13,0.236-0.231,0.389-0.302c0.151-0.072,0.321-0.109,0.509-0.109
		c0.188,0,0.357,0.037,0.507,0.107s0.278,0.173,0.386,0.309c0.094,0.127,0.164,0.269,0.212,0.426
		C41.016,15.852,41.039,16.027,41.036,16.218 M40.774,16.218c0-0.149-0.019-0.29-0.058-0.421c-0.038-0.134-0.091-0.252-0.161-0.358
		c-0.084-0.116-0.184-0.206-0.299-0.268c-0.117-0.063-0.247-0.094-0.393-0.094c-0.149,0-0.281,0.031-0.397,0.094
		c-0.115,0.063-0.216,0.152-0.3,0.268c-0.068,0.106-0.123,0.225-0.16,0.358c-0.039,0.132-0.059,0.272-0.059,0.421
		c0,0.148,0.02,0.291,0.059,0.423c0.037,0.133,0.092,0.253,0.16,0.36c0.086,0.113,0.188,0.202,0.306,0.266
		c0.117,0.063,0.247,0.095,0.392,0.095c0.146,0,0.275-0.031,0.393-0.094c0.115-0.063,0.215-0.151,0.299-0.267
		c0.07-0.107,0.123-0.227,0.161-0.36C40.756,16.509,40.774,16.367,40.774,16.218"/>
	<path clip-path="url(#SVGID_4_)" d="M43.734,17.48c0.005,0.012,0.005,0.023,0,0.035c-0.005,0.009-0.016,0.015-0.029,0.015H43.52
		c-0.037,0-0.063-0.016-0.079-0.049c-0.109-0.223-0.197-0.403-0.271-0.545c-0.07-0.14-0.128-0.252-0.167-0.334
		c-0.051-0.097-0.09-0.171-0.115-0.223c-0.055,0.011-0.106,0.018-0.153,0.021c-0.046,0.002-0.105,0.005-0.177,0.007h-0.302v1.074
		c0,0.034-0.016,0.049-0.05,0.049h-0.161c-0.035,0-0.051-0.016-0.051-0.049v-2.468c0-0.026,0.001-0.047,0.002-0.061
		c0.001-0.014,0.005-0.024,0.013-0.032c0.007-0.007,0.019-0.011,0.032-0.013c0.014-0.001,0.035-0.001,0.061-0.001h0.678
		c0.137,0,0.254,0.019,0.354,0.055c0.099,0.038,0.182,0.089,0.246,0.154c0.066,0.067,0.116,0.146,0.147,0.241
		c0.033,0.095,0.049,0.2,0.049,0.316c0,0.07-0.013,0.138-0.037,0.201c-0.025,0.065-0.06,0.123-0.104,0.178
		c-0.042,0.055-0.091,0.104-0.149,0.147c-0.055,0.043-0.112,0.08-0.173,0.108L43.734,17.48z M43.308,15.672
		c0-0.1-0.012-0.184-0.035-0.253c-0.022-0.071-0.061-0.127-0.114-0.17s-0.124-0.075-0.21-0.094c-0.086-0.02-0.193-0.029-0.322-0.029
		h-0.37v1.057h0.377c0.098,0,0.188-0.011,0.271-0.035c0.082-0.024,0.154-0.058,0.213-0.103c0.061-0.045,0.107-0.099,0.142-0.162
		C43.29,15.82,43.308,15.75,43.308,15.672"/>
	<path clip-path="url(#SVGID_4_)" d="M44.678,17.534c-0.05,0-0.08-0.004-0.088-0.013c-0.009-0.008-0.014-0.038-0.014-0.087v-2.442
		c0-0.044,0.005-0.072,0.014-0.08c0.008-0.008,0.035-0.012,0.081-0.012h1.244c0.034,0,0.05,0.016,0.05,0.049v0.124
		c0,0.033-0.016,0.049-0.05,0.049h-1.077v0.937h1.023c0.033,0,0.05,0.016,0.05,0.048v0.128c0,0.034-0.017,0.051-0.05,0.051h-1.023
		v1.021h1.12c0.034,0,0.05,0.017,0.05,0.049v0.127c0,0.034-0.016,0.051-0.05,0.051H44.678z"/>
	<path clip-path="url(#SVGID_4_)" d="M49.161,17.48c0.012,0.033,0.001,0.049-0.032,0.049h-0.172c-0.015,0-0.028-0.002-0.038-0.007
		c-0.011-0.005-0.021-0.019-0.03-0.042l-0.267-0.652h-1.347c-0.047,0.111-0.092,0.219-0.135,0.325
		c-0.043,0.107-0.086,0.216-0.129,0.327c-0.009,0.024-0.02,0.038-0.029,0.042c-0.012,0.005-0.024,0.007-0.038,0.007h-0.168
		c-0.034,0-0.045-0.016-0.033-0.049l1.055-2.539c0.013-0.028,0.034-0.042,0.064-0.042h0.218c0.032,0,0.054,0.014,0.066,0.042
		L49.161,17.48z M48.536,16.601c-0.101-0.247-0.196-0.488-0.288-0.729c-0.092-0.24-0.188-0.483-0.288-0.729
		c-0.102,0.246-0.199,0.489-0.296,0.729c-0.098,0.24-0.196,0.482-0.296,0.729H48.536z"/>
	<path clip-path="url(#SVGID_4_)" d="M6.948,43.103l-0.352,0.408v0.848c0,0.032-0.017,0.049-0.05,0.049H6.389
		c-0.034,0-0.051-0.017-0.051-0.049v-2.524c0-0.033,0.017-0.05,0.051-0.05h0.157c0.034,0,0.05,0.017,0.05,0.05v1.351l1.109-1.351
		c0.032-0.033,0.073-0.05,0.122-0.05h0.201c0.015,0,0.023,0.006,0.027,0.016c0.003,0.011-0.001,0.021-0.013,0.034l-0.925,1.073
		l1.011,1.451c0.021,0.032,0.017,0.049-0.014,0.049H7.92c-0.023,0-0.046-0.003-0.064-0.01c-0.019-0.008-0.036-0.021-0.047-0.039
		L6.948,43.103z"/>
	<path clip-path="url(#SVGID_4_)" d="M10.618,43.096c-0.005,0.421-0.103,0.75-0.295,0.985c-0.208,0.255-0.5,0.383-0.878,0.383
		s-0.672-0.128-0.883-0.383c-0.196-0.242-0.294-0.571-0.294-0.985c0-0.197,0.024-0.374,0.072-0.531
		c0.048-0.16,0.117-0.3,0.208-0.423c0.107-0.13,0.238-0.23,0.389-0.304c0.152-0.071,0.321-0.108,0.508-0.108
		c0.188,0,0.358,0.037,0.507,0.107c0.15,0.071,0.278,0.174,0.386,0.309c0.094,0.127,0.164,0.27,0.212,0.427
		C10.597,42.729,10.62,42.904,10.618,43.096 M10.355,43.096c0-0.149-0.02-0.289-0.057-0.422c-0.039-0.133-0.092-0.252-0.162-0.358
		c-0.084-0.115-0.185-0.205-0.3-0.269c-0.116-0.061-0.247-0.093-0.393-0.093c-0.149,0-0.281,0.032-0.397,0.093
		C8.932,42.11,8.833,42.2,8.749,42.315c-0.069,0.106-0.124,0.226-0.162,0.358c-0.039,0.133-0.058,0.272-0.058,0.422
		c0,0.147,0.02,0.291,0.058,0.424c0.038,0.133,0.092,0.253,0.162,0.36c0.085,0.112,0.188,0.201,0.305,0.266
		c0.118,0.063,0.247,0.095,0.391,0.095c0.146,0,0.276-0.031,0.393-0.094c0.115-0.063,0.215-0.151,0.3-0.267
		c0.069-0.107,0.123-0.228,0.162-0.36C10.336,43.387,10.355,43.243,10.355,43.096"/>
	<path clip-path="url(#SVGID_4_)" d="M12.74,44.357c0.006,0.013,0.006,0.023,0,0.033c-0.004,0.013-0.014,0.018-0.028,0.018h-0.186
		c-0.037,0-0.063-0.018-0.08-0.051c-0.107-0.223-0.197-0.402-0.268-0.544c-0.072-0.141-0.129-0.252-0.169-0.334
		c-0.05-0.098-0.089-0.173-0.114-0.224c-0.055,0.011-0.106,0.019-0.153,0.021c-0.046,0.002-0.105,0.005-0.178,0.007h-0.301v1.073
		c0,0.033-0.016,0.051-0.05,0.051h-0.161c-0.035,0-0.051-0.018-0.051-0.051v-2.467c0-0.027,0.001-0.047,0.002-0.062
		c0.001-0.014,0.005-0.023,0.013-0.031c0.006-0.007,0.018-0.012,0.032-0.013s0.035-0.002,0.062-0.002h0.677
		c0.137,0,0.254,0.02,0.354,0.056c0.099,0.036,0.182,0.088,0.247,0.154s0.115,0.146,0.147,0.241
		c0.032,0.094,0.049,0.199,0.049,0.314c0,0.071-0.013,0.14-0.038,0.202c-0.026,0.065-0.06,0.123-0.104,0.178
		c-0.042,0.055-0.091,0.104-0.149,0.147c-0.055,0.043-0.113,0.08-0.173,0.108L12.74,44.357z M12.314,42.549
		c0-0.099-0.011-0.184-0.033-0.253c-0.023-0.069-0.062-0.127-0.116-0.17c-0.054-0.044-0.124-0.075-0.21-0.094
		c-0.085-0.019-0.193-0.029-0.322-0.029h-0.369v1.058h0.377c0.098,0,0.187-0.012,0.27-0.035c0.083-0.025,0.154-0.06,0.213-0.104
		c0.061-0.046,0.107-0.099,0.141-0.162C12.298,42.698,12.314,42.627,12.314,42.549"/>
	<path clip-path="url(#SVGID_4_)" d="M13.11,44.411c-0.05,0-0.08-0.004-0.088-0.012c-0.008-0.01-0.012-0.039-0.012-0.088v-2.442
		c0-0.045,0.004-0.071,0.012-0.08c0.008-0.008,0.036-0.012,0.081-0.012h1.245c0.033,0,0.05,0.016,0.05,0.049v0.124
		c0,0.034-0.017,0.05-0.05,0.05h-1.076v0.937h1.021c0.034,0,0.05,0.017,0.05,0.048v0.129c0,0.033-0.016,0.051-0.05,0.051h-1.021
		v1.021h1.119c0.033,0,0.05,0.017,0.05,0.049v0.127c0,0.034-0.017,0.051-0.05,0.051H13.11z"/>
	<path clip-path="url(#SVGID_4_)" d="M17.021,44.357c0.012,0.033,0.001,0.051-0.033,0.051h-0.171c-0.016,0-0.027-0.003-0.038-0.008
		s-0.021-0.019-0.03-0.043l-0.267-0.651h-1.348c-0.046,0.109-0.09,0.219-0.132,0.325c-0.044,0.106-0.087,0.216-0.13,0.326
		c-0.009,0.024-0.02,0.038-0.031,0.043c-0.01,0.005-0.023,0.008-0.038,0.008h-0.168c-0.034,0-0.045-0.018-0.033-0.051l1.055-2.538
		c0.012-0.028,0.034-0.042,0.064-0.042h0.219c0.03,0,0.052,0.014,0.064,0.042L17.021,44.357z M16.396,43.479
		c-0.1-0.246-0.197-0.488-0.288-0.729c-0.092-0.239-0.188-0.481-0.289-0.728c-0.101,0.246-0.199,0.488-0.296,0.728
		c-0.097,0.241-0.195,0.483-0.296,0.729H16.396z"/>
	<path clip-path="url(#SVGID_4_)" d="M20.775,44.357c0,0.033-0.016,0.051-0.05,0.051h-0.162c-0.033,0-0.05-0.018-0.05-0.051v-2.35
		c-0.177,0.435-0.336,0.823-0.477,1.166c-0.061,0.146-0.119,0.289-0.176,0.431c-0.058,0.141-0.109,0.267-0.154,0.375
		c-0.046,0.11-0.083,0.2-0.112,0.269c-0.029,0.068-0.043,0.104-0.043,0.105c-0.011,0.024-0.03,0.035-0.053,0.035h-0.162
		c-0.016,0-0.029-0.003-0.036-0.008c-0.007-0.006-0.014-0.015-0.018-0.027l-0.99-2.346v2.35c0,0.033-0.017,0.051-0.05,0.051h-0.161
		c-0.034,0-0.05-0.018-0.05-0.051v-2.481c0-0.05,0.004-0.078,0.013-0.087c0.008-0.008,0.038-0.013,0.087-0.013h0.27
		c0.019,0,0.033,0.003,0.041,0.007c0.009,0.005,0.016,0.018,0.023,0.035l0.954,2.295l0.925-2.298
		c0.009-0.025,0.028-0.039,0.058-0.039h0.272c0.05,0,0.078,0.005,0.088,0.013c0.008,0.009,0.012,0.037,0.012,0.087V44.357z"/>
	<path clip-path="url(#SVGID_4_)" d="M23.463,44.357c0.011,0.033,0.001,0.051-0.033,0.051h-0.172c-0.014,0-0.026-0.003-0.037-0.008
		c-0.011-0.005-0.021-0.019-0.03-0.043l-0.267-0.651h-1.348c-0.046,0.109-0.09,0.219-0.134,0.325
		c-0.042,0.106-0.085,0.216-0.128,0.326c-0.009,0.024-0.021,0.038-0.031,0.043c-0.011,0.005-0.023,0.008-0.038,0.008h-0.168
		c-0.034,0-0.045-0.018-0.033-0.051l1.055-2.538c0.012-0.028,0.033-0.042,0.064-0.042h0.219c0.03,0,0.052,0.014,0.064,0.042
		L23.463,44.357z M22.838,43.479c-0.101-0.246-0.197-0.488-0.289-0.729c-0.091-0.239-0.188-0.481-0.289-0.728
		c-0.102,0.246-0.199,0.488-0.296,0.728c-0.097,0.241-0.195,0.483-0.296,0.729H22.838z"/>
	<path clip-path="url(#SVGID_4_)" d="M25.441,44.357c0.006,0.013,0.006,0.023,0,0.033c-0.004,0.013-0.014,0.018-0.027,0.018h-0.187
		c-0.037,0-0.063-0.018-0.08-0.051c-0.107-0.223-0.197-0.402-0.268-0.544c-0.073-0.141-0.128-0.252-0.169-0.334
		c-0.05-0.098-0.087-0.173-0.114-0.224c-0.055,0.011-0.105,0.019-0.153,0.021c-0.046,0.002-0.106,0.005-0.177,0.007h-0.302v1.073
		c0,0.033-0.017,0.051-0.05,0.051h-0.161c-0.035,0-0.051-0.018-0.051-0.051v-2.467c0-0.027,0.001-0.047,0.002-0.062
		c0.001-0.014,0.005-0.023,0.013-0.031c0.006-0.007,0.018-0.012,0.032-0.013s0.035-0.002,0.062-0.002h0.677
		c0.137,0,0.254,0.02,0.354,0.056c0.099,0.036,0.182,0.088,0.247,0.154c0.066,0.066,0.115,0.146,0.147,0.241
		c0.032,0.094,0.049,0.199,0.049,0.314c0,0.071-0.014,0.14-0.038,0.202c-0.025,0.065-0.059,0.123-0.103,0.178
		c-0.043,0.055-0.092,0.104-0.149,0.147c-0.055,0.043-0.113,0.08-0.172,0.108L25.441,44.357z M25.015,42.549
		c0-0.099-0.011-0.184-0.033-0.253c-0.023-0.069-0.062-0.127-0.116-0.17c-0.054-0.044-0.124-0.075-0.21-0.094
		c-0.085-0.019-0.194-0.029-0.322-0.029h-0.369v1.058h0.376c0.098,0,0.188-0.012,0.271-0.035c0.084-0.025,0.154-0.06,0.214-0.104
		c0.06-0.046,0.106-0.099,0.14-0.162C24.999,42.698,25.015,42.627,25.015,42.549"/>
	<path clip-path="url(#SVGID_4_)" d="M26.357,43.103l-0.352,0.408v0.848c0,0.032-0.016,0.049-0.05,0.049h-0.157
		c-0.034,0-0.051-0.017-0.051-0.049v-2.524c0-0.033,0.017-0.05,0.051-0.05h0.157c0.034,0,0.05,0.017,0.05,0.05v1.351l1.109-1.351
		c0.033-0.033,0.073-0.05,0.122-0.05h0.201c0.014,0,0.023,0.006,0.026,0.016c0.004,0.011,0,0.021-0.012,0.034l-0.926,1.073
		l1.013,1.451c0.021,0.032,0.016,0.049-0.015,0.049h-0.194c-0.024,0-0.046-0.003-0.065-0.01c-0.019-0.008-0.035-0.021-0.046-0.039
		L26.357,43.103z"/>
	<path clip-path="url(#SVGID_4_)" d="M27.896,44.411c-0.05,0-0.08-0.004-0.088-0.012c-0.008-0.01-0.012-0.039-0.012-0.088v-2.442
		c0-0.045,0.004-0.071,0.012-0.08c0.008-0.008,0.036-0.012,0.081-0.012h1.244c0.034,0,0.05,0.016,0.05,0.049v0.124
		c0,0.034-0.016,0.05-0.05,0.05h-1.075v0.937h1.021c0.033,0,0.05,0.017,0.05,0.048v0.129c0,0.033-0.017,0.051-0.05,0.051h-1.021
		v1.021h1.118c0.033,0,0.051,0.017,0.051,0.049v0.127c0,0.034-0.018,0.051-0.051,0.051H27.896z"/>
	<path clip-path="url(#SVGID_4_)" d="M30.41,42.004v2.354c0,0.033-0.017,0.05-0.05,0.05h-0.165c-0.034,0-0.05-0.017-0.05-0.05
		v-2.354h-0.74c-0.033,0-0.051-0.017-0.051-0.05v-0.12c0-0.033,0.018-0.05,0.051-0.05h1.751c0.033,0,0.05,0.017,0.05,0.05v0.12
		c0,0.033-0.017,0.05-0.05,0.05H30.41z"/>
	<path clip-path="url(#SVGID_4_)" d="M31.572,44.407H31.4c-0.034,0-0.051-0.018-0.051-0.05v-2.524c0-0.033,0.017-0.049,0.051-0.049
		h0.172c0.033,0,0.05,0.016,0.05,0.049v2.524C31.622,44.39,31.605,44.407,31.572,44.407"/>
	<path clip-path="url(#SVGID_4_)" d="M32.215,44.407h-0.162c-0.033,0-0.051-0.018-0.051-0.05v-2.481
		c0-0.051,0.004-0.078,0.014-0.087c0.008-0.008,0.037-0.012,0.087-0.012h0.166c0.03,0,0.052,0.003,0.062,0.008
		c0.012,0.006,0.023,0.021,0.034,0.04l1.353,2.295v-2.295c0-0.032,0.017-0.048,0.05-0.048h0.159c0.032,0,0.05,0.016,0.05,0.048
		v2.483c0,0.049-0.004,0.078-0.013,0.087c-0.008,0.008-0.037,0.012-0.088,0.012h-0.219c-0.019,0-0.033-0.002-0.041-0.007
		c-0.009-0.004-0.02-0.017-0.03-0.036l-1.32-2.254v2.247C32.265,44.39,32.247,44.407,32.215,44.407"/>
	<path clip-path="url(#SVGID_4_)" d="M36.45,42.989c0.05,0,0.08,0.004,0.088,0.012s0.013,0.038,0.013,0.087v1.124
		c0,0.026-0.008,0.049-0.022,0.068c-0.017,0.019-0.034,0.032-0.053,0.043c-0.115,0.042-0.235,0.074-0.361,0.097
		c-0.125,0.021-0.256,0.033-0.393,0.033c-0.198,0-0.382-0.029-0.55-0.09s-0.313-0.148-0.437-0.263
		c-0.121-0.114-0.217-0.256-0.285-0.426c-0.067-0.168-0.102-0.361-0.102-0.58c0-0.197,0.031-0.38,0.095-0.546
		c0.063-0.165,0.154-0.308,0.272-0.429c0.118-0.12,0.263-0.214,0.434-0.281c0.169-0.067,0.36-0.103,0.572-0.103
		c0.134,0,0.251,0.007,0.35,0.02c0.1,0.012,0.206,0.035,0.318,0.069c0.036,0.01,0.05,0.033,0.043,0.072l-0.019,0.131
		c-0.003,0.031-0.02,0.041-0.054,0.032c-0.106-0.04-0.21-0.066-0.309-0.079c-0.097-0.014-0.207-0.021-0.33-0.021
		c-0.169,0-0.323,0.029-0.461,0.084c-0.137,0.057-0.254,0.133-0.351,0.232s-0.172,0.219-0.223,0.357
		c-0.051,0.141-0.077,0.293-0.077,0.461c0,0.184,0.028,0.345,0.082,0.486c0.055,0.142,0.133,0.261,0.231,0.356
		c0.1,0.096,0.216,0.168,0.353,0.218c0.135,0.051,0.282,0.074,0.445,0.074c0.266,0,0.454-0.03,0.567-0.096v-0.922h-0.722
		c-0.033,0-0.05-0.016-0.05-0.049v-0.124c0-0.034,0.017-0.05,0.05-0.05H36.45z"/>
	<path clip-path="url(#SVGID_4_)" d="M40.023,44.357c0.012,0.033,0.001,0.051-0.033,0.051h-0.172c-0.015,0-0.027-0.003-0.037-0.008
		c-0.011-0.005-0.021-0.019-0.031-0.043l-0.266-0.651h-1.349c-0.045,0.109-0.089,0.219-0.133,0.325
		c-0.043,0.106-0.086,0.216-0.129,0.326c-0.009,0.024-0.02,0.038-0.03,0.043s-0.023,0.008-0.037,0.008h-0.169
		c-0.033,0-0.045-0.018-0.032-0.051l1.055-2.538c0.012-0.028,0.034-0.042,0.063-0.042h0.22c0.031,0,0.053,0.014,0.064,0.042
		L40.023,44.357z M39.398,43.479c-0.101-0.246-0.196-0.488-0.289-0.729c-0.092-0.239-0.188-0.481-0.288-0.728
		c-0.102,0.246-0.199,0.488-0.296,0.728c-0.098,0.241-0.196,0.483-0.296,0.729H39.398z"/>
	<path clip-path="url(#SVGID_4_)" d="M42.509,44.371c-0.008,0.025-0.022,0.036-0.047,0.036h-0.24c-0.026,0-0.042-0.011-0.047-0.036
		l-0.67-2.304c-0.115,0.386-0.229,0.769-0.341,1.15c-0.112,0.382-0.227,0.767-0.341,1.153c-0.008,0.025-0.022,0.036-0.048,0.036
		h-0.246c-0.026,0-0.042-0.011-0.047-0.036l-0.736-2.538c-0.004-0.012-0.003-0.023,0.004-0.034c0.007-0.01,0.019-0.015,0.032-0.015
		h0.169c0.033,0,0.055,0.016,0.065,0.049l0.645,2.306c0.112-0.388,0.226-0.769,0.338-1.145c0.111-0.374,0.224-0.755,0.338-1.145
		c0.004-0.021,0.015-0.04,0.03-0.051c0.018-0.01,0.036-0.015,0.058-0.015h0.187c0.041,0,0.068,0.021,0.08,0.065l0.655,2.273
		c0.111-0.392,0.22-0.773,0.327-1.145c0.107-0.372,0.217-0.753,0.33-1.146c0.005-0.014,0.013-0.025,0.024-0.035
		s0.026-0.014,0.039-0.014h0.151c0.014,0,0.025,0.005,0.033,0.015c0.007,0.011,0.008,0.022,0.003,0.034L42.509,44.371z"/>
	<path clip-path="url(#SVGID_4_)" d="M45.357,44.357c0.012,0.033,0.001,0.051-0.033,0.051h-0.172c-0.015,0-0.027-0.003-0.037-0.008
		c-0.012-0.005-0.021-0.019-0.031-0.043l-0.266-0.651H43.47c-0.046,0.109-0.09,0.219-0.134,0.325
		c-0.042,0.106-0.085,0.216-0.128,0.326c-0.009,0.024-0.021,0.038-0.03,0.043c-0.011,0.005-0.023,0.008-0.038,0.008h-0.168
		c-0.034,0-0.045-0.018-0.033-0.051l1.056-2.538c0.012-0.028,0.034-0.042,0.063-0.042h0.22c0.03,0,0.053,0.014,0.064,0.042
		L45.357,44.357z M44.732,43.479c-0.1-0.246-0.197-0.488-0.289-0.729c-0.092-0.239-0.188-0.481-0.288-0.728
		c-0.102,0.246-0.199,0.488-0.296,0.728c-0.098,0.241-0.196,0.483-0.296,0.729H44.732z"/>
	<path clip-path="url(#SVGID_4_)" d="M47.337,44.357c0.005,0.013,0.005,0.023,0,0.033c-0.005,0.013-0.015,0.018-0.029,0.018h-0.186
		c-0.036,0-0.063-0.018-0.079-0.051c-0.108-0.223-0.197-0.402-0.27-0.544c-0.071-0.141-0.128-0.252-0.169-0.334
		c-0.05-0.098-0.089-0.173-0.114-0.224c-0.056,0.011-0.106,0.019-0.152,0.021c-0.047,0.002-0.106,0.005-0.178,0.007h-0.301v1.073
		c0,0.033-0.017,0.051-0.051,0.051h-0.161c-0.034,0-0.05-0.018-0.05-0.051v-2.467c0-0.027,0-0.047,0.002-0.062
		c0.001-0.014,0.005-0.023,0.012-0.031c0.007-0.007,0.019-0.012,0.032-0.013c0.015-0.001,0.034-0.002,0.061-0.002h0.679
		c0.136,0,0.254,0.02,0.354,0.056c0.099,0.036,0.181,0.088,0.247,0.154c0.065,0.066,0.114,0.146,0.147,0.241
		c0.032,0.094,0.048,0.199,0.048,0.314c0,0.071-0.012,0.14-0.037,0.202c-0.025,0.065-0.06,0.123-0.103,0.178
		s-0.093,0.104-0.149,0.147c-0.056,0.043-0.114,0.08-0.174,0.108L47.337,44.357z M46.91,42.549c0-0.099-0.013-0.184-0.034-0.253
		c-0.023-0.069-0.063-0.127-0.115-0.17c-0.054-0.044-0.124-0.075-0.21-0.094s-0.193-0.029-0.322-0.029h-0.369v1.058h0.377
		c0.098,0,0.187-0.012,0.27-0.035c0.083-0.025,0.154-0.06,0.213-0.104c0.062-0.046,0.107-0.099,0.141-0.162
		C46.893,42.698,46.91,42.627,46.91,42.549"/>
	<path clip-path="url(#SVGID_4_)" d="M49.582,43.088c0,0.22-0.038,0.416-0.115,0.589c-0.076,0.173-0.182,0.316-0.318,0.429
		c-0.129,0.099-0.286,0.172-0.47,0.225c-0.185,0.051-0.394,0.078-0.624,0.078h-0.37c-0.05,0-0.08-0.004-0.088-0.013
		c-0.009-0.01-0.013-0.038-0.013-0.087v-2.425c0-0.051,0.004-0.079,0.013-0.087c0.008-0.009,0.038-0.013,0.088-0.013h0.563
		c0.454,0,0.796,0.121,1.025,0.365C49.479,42.373,49.582,42.688,49.582,43.088 M49.32,43.074c0-0.376-0.106-0.654-0.316-0.833
		c-0.186-0.159-0.441-0.238-0.768-0.238H47.85v2.182h0.219C48.903,44.185,49.32,43.814,49.32,43.074"/>
	<path clip-path="url(#SVGID_4_)" d="M49.944,44.371c-0.038-0.011-0.054-0.032-0.046-0.063l0.015-0.164
		c0.004-0.019,0.012-0.031,0.023-0.039c0.01-0.007,0.021-0.005,0.036,0.004c0.083,0.045,0.168,0.078,0.253,0.097
		c0.085,0.021,0.184,0.031,0.292,0.031c0.175,0,0.318-0.047,0.43-0.142s0.166-0.229,0.166-0.401c0-0.067-0.026-0.137-0.081-0.205
		c-0.053-0.068-0.128-0.135-0.223-0.194c-0.085-0.053-0.179-0.107-0.285-0.163c-0.104-0.058-0.204-0.12-0.301-0.188
		c-0.095-0.067-0.176-0.143-0.239-0.227c-0.064-0.084-0.098-0.182-0.098-0.293c0-0.113,0.023-0.212,0.071-0.299
		c0.049-0.087,0.113-0.159,0.192-0.216c0.08-0.06,0.173-0.103,0.274-0.133c0.103-0.032,0.208-0.047,0.315-0.047
		c0.094,0,0.177,0.006,0.247,0.016c0.073,0.012,0.149,0.03,0.234,0.055c0.036,0.013,0.05,0.033,0.043,0.065l-0.029,0.138
		c-0.007,0.04-0.027,0.05-0.061,0.032c-0.066-0.031-0.132-0.051-0.195-0.063c-0.063-0.011-0.145-0.016-0.243-0.016
		c-0.078,0-0.153,0.01-0.223,0.029c-0.072,0.019-0.132,0.047-0.184,0.085c-0.051,0.038-0.092,0.085-0.123,0.142
		s-0.047,0.124-0.047,0.202c0,0.062,0.02,0.119,0.063,0.174c0.041,0.054,0.093,0.104,0.154,0.152c0.06,0.048,0.127,0.091,0.197,0.13
		s0.135,0.074,0.191,0.107c0.08,0.045,0.156,0.091,0.229,0.138c0.074,0.048,0.14,0.101,0.197,0.16
		c0.058,0.059,0.104,0.124,0.14,0.194c0.036,0.072,0.056,0.153,0.056,0.246c0,0.118-0.025,0.223-0.075,0.314
		c-0.049,0.092-0.114,0.171-0.195,0.234c-0.082,0.063-0.175,0.112-0.281,0.147c-0.106,0.033-0.217,0.052-0.331,0.052
		c-0.107,0-0.199-0.009-0.282-0.021C50.14,44.43,50.047,44.405,49.944,44.371"/>
	<path clip-path="url(#SVGID_4_)" d="M10.377,34.404l1.11,0.294v0.523H8.11v-0.523l1.059-0.294v-10L8.225,24.11v-0.507h3.146v0.507
		l-0.994,0.294V34.404z M10.774,29.609v-0.72l3.875-4.516l-0.762-0.311v-0.459h2.815v0.573l-0.464,0.147
		c-0.319,0.12-0.587,0.287-0.803,0.5l-0.687,0.678l-2.979,3.486l4.237,5.351l1.226,0.313v0.571h-1.937L10.774,29.609z"/>
	<path clip-path="url(#SVGID_4_)" fill="none" stroke="#000000" stroke-miterlimit="10" d="M10.377,34.404l1.11,0.294v0.523H8.11
		v-0.523l1.059-0.294v-10L8.225,24.11v-0.507h3.146v0.507l-0.994,0.294V34.404z M10.774,29.609v-0.72l3.875-4.516l-0.762-0.311
		v-0.459h2.815v0.573l-0.464,0.147c-0.319,0.12-0.587,0.287-0.803,0.5l-0.687,0.678l-2.979,3.486l4.237,5.351l1.226,0.313v0.571
		h-1.937L10.774,29.609z"/>
	<polygon clip-path="url(#SVGID_4_)" points="28.207,35.223 27.628,35.223 23.753,25.436 23.291,34.272 24.466,34.649 
		24.466,35.223 21.32,35.223 21.32,34.649 22.413,34.272 22.893,24.34 22.147,24.045 22.147,23.604 24.316,23.604 28.059,33.275 
		32.164,23.604 34.382,23.604 34.382,24.095 33.57,24.389 34.018,34.306 35.111,34.649 35.111,35.223 31.832,35.223 31.832,34.649 
		32.826,34.306 32.445,25.404 	"/>
	<polygon clip-path="url(#SVGID_4_)" fill="none" stroke="#000000" stroke-miterlimit="10" points="28.207,35.223 27.628,35.223 
		23.753,25.436 23.291,34.272 24.466,34.649 24.466,35.223 21.32,35.223 21.32,34.649 22.413,34.272 22.893,24.34 22.147,24.045 
		22.147,23.604 24.316,23.604 28.059,33.275 32.164,23.604 34.382,23.604 34.382,24.095 33.57,24.389 34.018,34.306 35.111,34.649 
		35.111,35.223 31.832,35.223 31.832,34.649 32.826,34.306 32.445,25.404 	"/>
	<path clip-path="url(#SVGID_4_)" d="M45.259,23.604l3.592,10.783l1.21,0.344v0.492H46.55V34.73l0.928-0.344L46.5,31.278h-4.32
		l-1.076,3.108l1.043,0.313v0.523h-2.997v-0.523l1.093-0.345l3.824-10.751H45.259z M42.461,30.493h3.808l-1.837-5.711L42.461,30.493
		z"/>
	<path clip-path="url(#SVGID_4_)" fill="none" stroke="#000000" stroke-miterlimit="10" d="M45.259,23.604l3.592,10.783l1.21,0.344
		v0.492H46.55V34.73l0.928-0.344L46.5,31.278h-4.32l-1.076,3.108l1.043,0.313v0.523h-2.997v-0.523l1.093-0.345l3.824-10.751H45.259z
		 M42.461,30.493h3.808l-1.837-5.711L42.461,30.493z"/>
</g>
</svg>
