<svg version="1.1" xmlns="http://www.w3.org/2000/svg" xmlns:xlink="http://www.w3.org/1999/xlink" x="0px" y="0px"
	 width="94px" height="29px" viewBox="0 0 94 29" enable-background="new 0 0 94 29" xml:space="preserve" focusable="false">
<path fill="#DEAF3A" d="M42.346,22.234h19.356v6.723H42.346V22.234z"/>
<path fill="#A6A6A7" d="M19.956,28.994L7.958,15.471h9.063L29.08,28.994H19.956z M74.763,29H94v-6.809H74.763V29z"/>
<path fill="#1F2D5D" d="M11.066,0c0,0,0.085,0.795-0.538,0.886c-2.27,0.329-2.671,1.598-2.671,3.652v24.419H0V0h7.501h0.354H11.066z
	 M17.084,13.581L29.081,0.058h-9.063L7.958,13.581H17.084z M40.389,0h-0.356h-7.5v28.958h7.856V4.538
	c0-2.054,0.401-3.323,2.671-3.652C43.682,0.794,43.597,0,43.597,0H40.389z M93.999,0.068H72.807h-1.416h-6.408v28.926h7.824V9.638
	V7.763V6.875h21.192V0.068z"/>
</svg>