   <svg version="1.1" xmlns="http://www.w3.org/2000/svg" xmlns:xlink="http://www.w3.org/1999/xlink" x="0px" y="0px"
	 width="76px" height="33px" viewBox="0 0 76 33" enable-background="new 0 0 76 33" xml:space="preserve" focusable="false">
<path fill="#C7004E" d="M16.642,0C7.453,0,0,7.389,0,16.503C0,25.617,7.453,33,16.642,33c9.19,0,16.647-7.384,16.647-16.497
	C33.29,7.389,25.832,0,16.642,0 M20.623,22.439v1.286h-4.645V9.26h1.332v13.179H20.623z M26.493,26.268
	c-2.632,2.606-6.127,4.039-9.851,4.039c-3.721,0-7.218-1.433-9.843-4.039c-2.637-2.612-4.09-6.078-4.09-9.775
	c0-7.611,6.254-13.81,13.933-13.81c0.166,0,0.496,0.006,0.668,0.01v1.289c-0.162-0.007-0.516-0.007-0.668-0.007
	c-3.371,0-6.539,1.301-8.928,3.669c-2.389,2.363-3.701,5.51-3.701,8.849c0,3.35,1.312,6.491,3.701,8.862
	c2.389,2.359,5.557,3.666,8.928,3.666c6.684,0,12.166-5.169,12.605-11.681c0-0.025,0-0.161,0.003-0.191h-8.625v-1.276h9.388h0.562
	v0.62C30.575,20.19,29.124,23.656,26.493,26.268 M13.323,11.231c0,1.09-0.893,1.978-1.989,1.978c-1.104,0-1.999-0.887-1.999-1.978
	c0-1.092,0.895-1.977,1.999-1.977C12.43,9.254,13.323,10.139,13.323,11.231"/>
<path fill="#7D7D7D" d="M41.607,6.6h5.298v15.052v0.425h0.428h8.711v4.317H41.607V6.6z M73.477,7.991
	c-1.651-1.271-3.784-1.914-6.328-1.914c-3.018,0-5.54,0.918-7.295,2.656c-1.823,1.813-2.8,4.486-2.8,7.735
	c0,3.465,1.021,6.391,2.883,8.236c1.463,1.447,3.411,2.215,5.635,2.215c4.889,0,6.019-2.905,6.019-2.905v1.33v1.05H76V15.21h-8.786
	v3.501h3.531h0.508c0,0,0.041,4.403-4.136,4.403c-1.057,0-2.004-0.383-2.728-1.104c-1.128-1.114-1.729-3.01-1.729-5.461
	c0-4.056,1.626-6.483,4.355-6.483c1.695,0,2.978,1.04,3.306,2.607h5.621C75.654,10.395,75.023,9.202,73.477,7.991"/>
</svg>