<svg version="1.1" id="logo_svg" class="logo_svg" xmlns="http://www.w3.org/2000/svg" xmlns:xlink="http://www.w3.org/1999/xlink" x="0px" y="0px"
	 width="91.475px" height="28.305px" viewBox="0 0 91.475 28.305" enable-background="new 0 0 91.475 28.305" xml:space="preserve" focusable="false">
<path id="logo_svg_path_01" fill="#DEAF3A" d="M41.208,21.703h18.836v6.562H41.208V21.703z"/>
<path id="logo_svg_path_02" fill="#A6A6A7" d="M19.419,28.299L7.745,15.1h8.821l11.734,13.199H19.419z M72.754,28.305h18.721v-6.645H72.754V28.305z"/>
<path id="logo_svg_path_03" fill="#1F2D5D" d="M10.769,0c0,0,0.083,0.777-0.524,0.865C8.038,1.186,7.646,2.425,7.646,4.43v23.834H0V0h7.3h0.346H10.769z
	 M16.625,13.256L28.3,0.057h-8.821L7.744,13.256H16.625z M39.304,0h-0.346h-7.3v28.264h7.646V4.43c0-2.005,0.392-3.244,2.599-3.565
	C42.51,0.777,42.426,0,42.426,0H39.304z M91.475,0.068H70.852h-1.378h-6.236v28.231h7.614V9.407v-1.83V6.713h20.623V0.068z"/>
</svg>