 <svg version="1.1" xmlns="http://www.w3.org/2000/svg" xmlns:xlink="http://www.w3.org/1999/xlink" x="0px" y="0px"
	 width="114px" height="27.807px" viewBox="0 0 114 27.807" enable-background="new 0 0 114 27.807" xml:space="preserve" focusable="false">
<path d="M35.341,21.445v-0.313l0.314-0.054c1.309-0.156,1.623-0.784,1.623-2.146l-0.051-9.634c0-0.681-1.1-0.89-1.361-0.89h-0.263
	V8.043h5.079l4.24,8.847l4.084-8.847h4.556v0.261l-0.314,0.053c-0.996,0.157-1.047,0.994-1.047,2.041v8.535
	c0,1.466,0.575,2.146,1.675,2.146c1.046,0,1.466-0.523,1.832-1.623l2.881-8.69c0.104-0.472,0.209-0.942,0.209-1.205
	c0-0.628-0.367-0.889-1.152-1.151l-0.365-0.105V8.043h4.868l3.561,10.627c0.576,1.729,0.941,2.146,2.303,2.408v0.42h-6.7v-0.366
	c0.941-0.054,1.675-0.629,1.675-1.362c0-0.366-0.105-0.681-0.315-1.309l-0.627-1.78h-4.764l-0.42,1.309
	c-0.157,0.523-0.262,1.152-0.262,1.571c0,0.838,0.471,1.256,1.728,1.518v0.42H47.33v-0.42h0.313c0.996,0,1.519-0.784,1.519-1.675
	V9.665l-5.288,11.728L38.168,9.719v9.161c0,1.362,0.524,2.147,1.832,2.253v0.313H35.341z M59.581,9.869l-2.147,6.021h4.346
	L59.581,9.869z M0.001,6.051v-1.1c0-3.56,3.56-5.026,6.02-5.026h19.737c3.508,0,6.021,1.989,6.021,5.602v14.66
	c-0.628,0.419-0.943,0.576-1.624,0.576c-1.256,0-1.779-0.523-2.774-2.252L22.827,8.04c-0.628-1.519-1.204-1.989-3.037-1.989h-4.188
	v0.628h0.209c1.205,0.156,1.78,0.313,2.094,1.361l4.556,10.68c1.099,2.617,2.146,3.036,4.188,3.036h5.131v1.833
	c0,2.722-2.723,4.293-4.87,4.293H4.555c-2.409,0-4.554-2.409-4.554-5.079V9.558c0-1.622,0.942-2.618,1.936-2.618
	c1.361,0,2.042,0.889,2.513,1.885l4.346,10.208c1.048,2.462,1.99,2.723,3.927,2.723h3.665v-0.785H16.23
	c-0.89-0.104-1.885-0.575-2.356-1.729L9.32,8.563C8.534,6.783,8.272,6.051,6.231,6.051H0.001z M13.394,6.061H8.63v0.68
	c1.518,0,1.937,0.157,2.514,1.361l4.712,11.048c0.785,1.832,1.571,2.564,3.508,2.564h4.03v-0.629
	c-1.466-0.313-2.199-0.732-2.827-2.198L15.96,8.05C15.437,6.793,14.651,6.061,13.394,6.061 M66.246,8.038v0.313l0.367,0.054
	c0.89,0.156,1.361,0.628,2.042,1.833l3.036,5.602v3.455c0,0.942-0.21,1.833-1.361,1.833h-0.471v0.313h6.701v-0.261l-0.367-0.052
	c-1.046-0.157-1.413-1.153-1.413-2.304v-3.665l1.676-3.979c1.151-1.99,1.884-2.513,3.979-2.513h0.733v10.785
	c0,0.942-0.157,1.413-1.257,1.623l-0.575,0.104v0.261h6.543v-0.261l-0.366-0.052c-0.838-0.105-1.31-0.577-1.31-2.043V8.718h0.839
	c1.937,0,2.88,0.786,3.612,2.199l0.262,0.524h0.313l-1.413-3.403H77.083l-2.251,5.288c-0.209,0.576-0.313,0.785-0.575,0.785
	c-0.209,0-0.366-0.263-0.628-0.785l-1.781-3.351c-0.209-0.524-0.313-0.785-0.313-0.995c0-0.262,0.261-0.523,0.627-0.575l0.366-0.054
	V8.038H66.246z M87.246,21.441v-0.262l0.418-0.052c0.891-0.104,1.676-1.257,1.78-1.677l2.723-8.795
	c0.105-0.366,0.209-0.785,0.209-1.1c0-0.627-0.419-1.151-0.941-1.151h-0.419V8.038h4.922l3.56,10.627
	c0.418,1.31,0.889,2.199,2.041,2.462l0.472,0.052v0.262h-6.963v-0.262c1.048-0.262,1.624-0.314,1.624-1.309
	c0-0.314-0.055-0.576-0.264-1.414l-0.628-1.832h-4.764l-0.157,0.732c-0.263,1.257-0.419,2.042-0.419,2.618
	c0,0.681,0.419,1.048,0.942,1.152l0.262,0.052v0.262H87.246z M93.109,9.292l-1.885,6.597h4.293L93.109,9.292z M108.87,15.326h0.471
	c1.362,0,1.729,0.784,1.729,1.832v3.56l-0.629,0.21c-0.366,0.104-0.733,0.157-1.047,0.157c-2.984,0-3.823-2.671-3.823-6.335
	c0-4.397,1.205-6.177,3.876-6.177c2.198,0,3.299,0.994,3.612,2.565l0.261,1.256h0.21v-4.24l-0.838-0.157
	c-1.151-0.157-1.779-0.21-3.142-0.21c-5.445,0-7.382,1.729-7.382,7.383c0,4.816,1.833,6.649,6.492,6.649
	c0.786,0,1.886-0.054,3.142-0.157l2.199-0.157v-6.649h-5.131V15.326z"/>
</svg>