<svg version="1.1" xmlns="http://www.w3.org/2000/svg" xmlns:xlink="http://www.w3.org/1999/xlink" x="0px" y="0px"
	 width="87px" height="33px" viewBox="0 0 87 33" enable-background="new 0 0 87 33" xml:space="preserve" focusable="false">
	<defs>
		<rect id="SVGID_1_" y="0" width="87" height="33"/>
	</defs>
	<clipPath id="SVGID_2_">
		<use xlink:href="#SVGID_1_"  overflow="visible"/>
	</clipPath>
	<path clip-path="url(#SVGID_2_)" fill="#AD001D" d="M69.726,15.01c-0.586,0-0.9,0.53-0.9,0.897v1.159h1.812V15.91
		C70.637,15.563,70.358,15.01,69.726,15.01"/>
	<path clip-path="url(#SVGID_2_)" fill="#AD001D" d="M47.512,15.01c-0.586,0-0.901,0.53-0.901,0.897v1.159h1.812V15.91
		C48.422,15.563,48.143,15.01,47.512,15.01"/>
	<path clip-path="url(#SVGID_2_)" fill="#AD001D" d="M0,33.001h87V0H0V33.001z M37.572,10.54l0.841,1.596l-2.655,1.38l-0.841-1.611
		L37.572,10.54z M31.156,12.81h-1.301v7.381h1.301V22H22.71v-1.809h1.304v-4.784L19.214,22l-4.816-6.593v4.784h1.304V22h-4.668
		v-1.809h1.287V12.81h-1.287V11h7.372l3.134,4.292L24.658,11h6.498V12.81z M40.772,22.001h-8.444v-1.81h1.302v-4.652h-1.302V13.73
		h7.141v6.461h1.304V22.001z M53.719,18.483h-7.108v0.842c0,0.709,0.644,1.359,1.65,1.359c1.443,0,2.024-1.087,2.143-1.544
		c1.562,0,2.791-0.001,3.232-0.001c-0.481,1.492-2.469,3.265-6.119,3.265c-4.759,0-6.251-2.569-6.251-4.532
		c0-2.095,1.723-4.588,6.243-4.588c3.907,0,6.244,2.257,6.244,4.589C53.753,18.261,53.719,18.483,53.719,18.483 M62.972,22.001
		H54.28v-1.81h1.287V12.81H54.28V11h7.388v9.191h1.305V22.001z M75.934,18.483h-7.107v0.842c0,0.709,0.642,1.359,1.649,1.359
		c1.444,0,2.024-1.087,2.143-1.544c1.561,0,2.79-0.001,3.231-0.001c-0.482,1.492-2.468,3.265-6.119,3.265
		c-4.758,0-6.251-2.569-6.251-4.532c0-2.095,1.724-4.588,6.243-4.588c3.907,0,6.243,2.257,6.243,4.589
		C75.966,18.261,75.934,18.483,75.934,18.483"/>
</svg>