<?xml version="1.0" encoding="utf-8"?>
<!-- Generator: Adobe Illustrator 16.0.0, SVG Export Plug-In . SVG Version: 6.00 Build 0)  -->
<!DOCTYPE svg PUBLIC "-//W3C//DTD SVG 1.1//EN" "http://www.w3.org/Graphics/SVG/1.1/DTD/svg11.dtd">
<svg version="1.1" id="Layer_1" xmlns="http://www.w3.org/2000/svg" xmlns:xlink="http://www.w3.org/1999/xlink" x="0px" y="0px"
	 width="53px" height="47px" viewBox="0 0 53 47" enable-background="new 0 0 53 47" xml:space="preserve">
<g>
	<defs>
		<rect id="SVGID_1_" width="53" height="47"/>
	</defs>
	<clipPath id="SVGID_2_">
		<use xlink:href="#SVGID_1_"  overflow="visible"/>
	</clipPath>
	<path clip-path="url(#SVGID_2_)" fill="#1F2C5C" d="M7,47v-9.093H0V10.245h39v27.662H18.734L7,47z M2,35.858h7v7.023l9.063-7.023
		H37V12.294H2V35.858z"/>
	<polygon clip-path="url(#SVGID_2_)" fill="#1F2C5C" points="47,38.737 37.97,31.668 39.185,30.039 45,34.594 45,25.613 51,25.613 
		51,2.049 17,2.049 17,11.27 15,11.27 15,0 53,0 53,27.662 47,27.662 	"/>
</g>
<rect x="10" y="19.466" fill="#1F2C5C" width="19" height="2.049"/>
<rect x="10" y="26.638" fill="#1F2C5C" width="19" height="2.049"/>
</svg>
