<?xml version="1.0" encoding="utf-8"?>
<!-- Generator: Adobe Illustrator 16.0.0, SVG Export Plug-In . SVG Version: 6.00 Build 0)  -->
<!DOCTYPE svg PUBLIC "-//W3C//DTD SVG 1.1//EN" "http://www.w3.org/Graphics/SVG/1.1/DTD/svg11.dtd">
<svg version="1.1" id="Layer_1" xmlns="http://www.w3.org/2000/svg" xmlns:xlink="http://www.w3.org/1999/xlink" x="0px" y="0px"
	 width="55px" height="52px" viewBox="0 0 55 52" enable-background="new 0 0 55 52" xml:space="preserve">
<path fill="#1F2C5C" d="M46.564,30.369l-1.416-1.412l2.85-2.856l0.114-5.664l4.105-4.226L39.672,2.955l-5.104,5.149h-9.372
	L15.74,18.48c1.188,0.582,3.26,1.341,5.371,0.925c1.732-0.344,3.214-1.441,4.403-3.26l0.687-1.049l0.87,0.903
	c0.023,0.023,2.486,2.512,5.766,2.526c0.01,0,0.02,0,0.028,0c2.016,0,3.966-0.936,5.796-2.781l1.42,1.408
	c-2.22,2.238-4.646,3.373-7.214,3.373c-0.021,0-0.041,0-0.062,0c-2.838-0.02-5.104-1.434-6.286-2.358
	c-1.387,1.743-3.077,2.818-5.037,3.203c-4.054,0.794-7.741-1.706-7.896-1.813l-0.942-0.65L24.313,6.104h9.421l5.972-6.023
	l15.283,16.148l-4.893,5.036l-0.114,5.68L46.564,30.369z"/>
<rect x="27.168" y="48.411" transform="matrix(0.6914 0.7224 -0.7224 0.6914 44.4831 -5.3253)" fill="#1F2C5C" width="2.614" height="2"/>
<polygon fill="#1F2C5C" points="8.337,30.005 6.154,27.724 4.773,20.82 0.011,16.019 15.884,0.011 21.253,6.104 25.347,6.104 
	25.347,8.104 20.35,8.104 15.798,2.938 2.828,16.019 6.616,19.838 8.001,26.761 9.783,28.622 "/>
<path fill="#1F2C5C" d="M31.122,51.988C31.122,51.988,31.122,51.988,31.122,51.988c-0.979,0-1.896-0.382-2.584-1.075l1.42-1.408
	c0.31,0.312,0.723,0.483,1.164,0.483l0,0c0.441,0,0.855-0.172,1.165-0.483l0.807-0.813c0.648-0.654,0.649-1.719,0-2.373l-6.583-6.64
	l1.42-1.408l6.583,6.64c1.419,1.43,1.42,3.758,0,5.189l-0.807,0.813C33.018,51.606,32.1,51.988,31.122,51.988z"/>
<path fill="#1F2C5C" d="M35.827,47.593c-0.979,0-1.896-0.383-2.585-1.077l1.42-1.408c0.621,0.626,1.711,0.624,2.331,0l0.807-0.813
	c0.649-0.654,0.649-1.719,0-2.373l-9.337-9.415l1.42-1.408l9.337,9.415c1.42,1.431,1.42,3.759,0,5.189l-0.807,0.813
	C37.724,47.21,36.806,47.593,35.827,47.593z"/>
<path fill="#1F2C5C" d="M40.77,43.359C40.77,43.359,40.77,43.359,40.77,43.359c-0.979,0-1.897-0.383-2.585-1.076l1.42-1.408
	c0.31,0.313,0.724,0.484,1.165,0.484l0,0c0.442,0,0.856-0.172,1.166-0.484l0.805-0.813c0.65-0.654,0.65-1.719,0.001-2.373
	l-9.336-9.415l1.42-1.408l9.336,9.415c1.421,1.432,1.421,3.76-0.001,5.19l-0.804,0.813C42.667,42.978,41.75,43.359,40.77,43.359z"/>
<path fill="#1F2C5C" d="M45.567,39.04c-0.979,0-1.897-0.383-2.586-1.077l1.42-1.408c0.621,0.625,1.71,0.626,2.331,0l0.807-0.813
	c0.648-0.654,0.648-1.72,0-2.374l-12.763-12.87l1.42-1.408l12.763,12.87c1.419,1.431,1.419,3.76,0,5.19l-0.807,0.813
	C47.463,38.657,46.545,39.04,45.567,39.04z"/>
<path fill="#1F2C5C" d="M23.463,51.414c-1.114,0-2.159-0.435-2.942-1.224c-1.616-1.629-1.616-4.28,0-5.909l2.235-2.253
	c0.782-0.79,1.827-1.225,2.941-1.225s2.159,0.435,2.942,1.225c1.615,1.629,1.615,4.279,0,5.907l-2.234,2.255
	C25.622,50.979,24.577,51.414,23.463,51.414z M25.697,42.804c-0.577,0-1.117,0.225-1.521,0.633l-2.236,2.253
	c-0.846,0.853-0.846,2.24,0,3.093c0.808,0.813,2.233,0.813,3.044,0l2.234-2.255c0.845-0.852,0.845-2.238,0-3.091
	C26.814,43.028,26.274,42.804,25.697,42.804z"/>
<path fill="#1F2C5C" d="M19.142,46.818c-1.114,0-2.159-0.435-2.941-1.224c-1.616-1.629-1.616-4.279,0-5.909l4.512-4.549
	c0.782-0.789,1.827-1.224,2.941-1.224c1.114,0,2.158,0.435,2.941,1.224c1.617,1.628,1.617,4.279,0,5.909l-4.51,4.549
	C21.301,46.384,20.256,46.818,19.142,46.818z M23.653,35.913c-0.577,0-1.117,0.225-1.521,0.632l-4.512,4.549
	c-0.845,0.853-0.846,2.24,0,3.093c0.809,0.814,2.235,0.814,3.043,0l4.51-4.549c0.846-0.854,0.846-2.24,0-3.093
	C24.77,36.138,24.229,35.913,23.653,35.913z"/>
<path fill="#1F2C5C" d="M14.922,42.048c-1.114,0-2.159-0.436-2.942-1.226c-1.616-1.63-1.616-4.28,0-5.908l4.511-4.548
	c0.782-0.789,1.827-1.224,2.941-1.224c1.114,0,2.158,0.435,2.941,1.224c1.617,1.629,1.617,4.279,0,5.908l-4.51,4.548
	C17.082,41.612,16.037,42.048,14.922,42.048z M19.433,31.143c-0.577,0-1.117,0.225-1.521,0.632L13.4,36.322
	c-0.846,0.853-0.846,2.239,0,3.092c0.81,0.816,2.235,0.816,3.043,0l4.51-4.548c0.846-0.853,0.846-2.239,0-3.092
	C20.549,31.367,20.009,31.143,19.433,31.143z"/>
<path fill="#1F2C5C" d="M10.216,36.667c-1.114,0-2.159-0.435-2.942-1.225c-1.617-1.63-1.617-4.281,0-5.909l2.234-2.253
	c0.782-0.79,1.827-1.225,2.941-1.225c1.114,0,2.159,0.435,2.941,1.225c1.616,1.629,1.616,4.279,0,5.908l-2.233,2.254
	C12.375,36.232,11.33,36.667,10.216,36.667z M12.45,28.056c-0.577,0-1.117,0.225-1.521,0.633l-2.235,2.254
	c-0.846,0.852-0.846,2.238,0,3.092c0.809,0.815,2.233,0.816,3.043,0l2.233-2.254c0.847-0.853,0.847-2.239,0-3.092
	C13.566,28.28,13.026,28.056,12.45,28.056z"/>
</svg>
