<svg version="1.1" xmlns="http://www.w3.org/2000/svg" xmlns:xlink="http://www.w3.org/1999/xlink" x="0px" y="0px"
	 width="82.909px" height="12.685px" viewBox="0 0 82.909 12.685" enable-background="new 0 0 82.909 12.685" xml:space="preserve" focusable="false">
<path fill="#1E4491" d="M71.406,0.379v11.735h-4.22L64.262,2.48h-0.075l0.167,9.634h-2.91V0.379h4.394l2.728,9.301h0.063
	L68.47,0.379H71.406z M12.682,0.378l-2.193,11.843h3.199l1.618-10.75h0.072l1.582,10.75h3.189l-2.19-11.843H12.682z M30.59,0.379
	l-1.466,9.059h-0.059l-1.459-9.059h-4.832l-0.271,11.842h2.963L25.54,1.572h0.067l1.989,10.649h2.999l1.981-10.649h0.058
	l0.083,10.649h2.966L35.418,0.379H30.59z M53.971,10.445c-0.819,0-1.077-0.564-1.133-0.851c-0.02-0.127-0.034-0.3-0.024-0.454V0.379
	h-2.999V8.87c-0.007,0.221,0.016,0.665,0.03,0.783c0.201,2.213,1.95,2.924,4.126,2.924c2.181,0,3.938-0.711,4.141-2.924
	c0.01-0.118,0.034-0.563,0.034-0.783V0.379h-3.009v8.762c0,0.154,0,0.327-0.024,0.454C55.052,9.881,54.804,10.445,53.971,10.445
	 M5.5,8.879C5.611,9.167,5.58,9.535,5.523,9.756c-0.095,0.395-0.361,0.802-1.16,0.802c-0.738,0-1.182-0.43-1.182-1.077l-0.01-1.15H0
	v0.915c0,2.646,2.074,3.439,4.296,3.439c2.153,0,3.915-0.729,4.193-2.702C8.636,8.955,8.53,8.285,8.481,8.035
	C7.983,5.548,3.482,4.819,3.146,3.43C3.089,3.185,3.1,2.942,3.133,2.809c0.085-0.388,0.344-0.801,1.081-0.801
	c0.701,0,1.107,0.436,1.107,1.068v0.742h2.957V2.987C8.278,0.403,5.958,0,4.276,0C2.173,0,0.45,0.7,0.136,2.635
	C0.055,3.158,0.043,3.631,0.16,4.225C0.678,6.652,4.889,7.348,5.5,8.879 M44.025,8.864c0.119,0.281,0.069,0.643,0.024,0.865
	c-0.091,0.388-0.363,0.782-1.142,0.782c-0.736,0-1.18-0.42-1.18-1.063V8.308h-3.15V9.22c0,2.623,2.06,3.4,4.269,3.4
	c2.112,0,3.859-0.72,4.141-2.677c0.143-1.013,0.038-1.675-0.016-1.933c-0.494-2.452-4.945-3.177-5.273-4.559
	c-0.054-0.23-0.039-0.479-0.014-0.607c0.079-0.376,0.337-0.787,1.071-0.787c0.693,0,1.095,0.421,1.095,1.051V3.84h2.923V3.018
	c0-2.553-2.296-2.953-3.95-2.953c-2.089,0-3.799,0.681-4.102,2.605c-0.095,0.514-0.107,0.98,0.023,1.578
	C39.254,6.652,43.422,7.341,44.025,8.864 M78.688,10.326c-0.861,0-1.159-0.535-1.217-0.857c-0.015-0.134-0.021-0.303-0.021-0.453
	V3.598c0-0.192,0.007-0.404,0.044-0.563C77.563,2.75,77.819,2.18,78.67,2.18c0.905,0,1.137,0.601,1.187,0.855
	c0.042,0.168,0.042,0.454,0.042,0.454V4.15h2.987l-0.007-0.386c0,0,0.021-0.412-0.023-0.778c-0.21-2.234-2.059-2.93-4.162-2.93
	c-2.096,0-3.886,0.704-4.144,2.93c-0.03,0.192-0.056,0.566-0.056,0.778v4.983c0,0.223,0,0.386,0.047,0.783
	c0.192,2.145,2.057,2.925,4.152,2.925c2.104,0,3.977-0.78,4.173-2.925c0.033-0.397,0.042-0.561,0.042-0.783V5.565h-4.194v1.738
	h1.211v1.713c0.001,0.15-0.007,0.319-0.026,0.453C79.844,9.791,79.543,10.326,78.688,10.326"/>
</svg>