<svg version="1.1" xmlns="http://www.w3.org/2000/svg" xmlns:xlink="http://www.w3.org/1999/xlink" x="0px" y="0px"
	 width="150.388px" height="26.142px" viewBox="0 0 150.388 26.142" enable-background="new 0 0 150.388 26.142"
	 xml:space="preserve" focusable="false">
<path fill="#E8390F" d="M41.545,16.271c-2.454,0-5.445-0.106-5.445-3.833v-0.251h4.675v1.685h0.877V12.26
	c-0.77-0.269-1.666-0.52-2.561-0.823c-1.432-0.503-2.794-1.146-2.847-3.135c-0.054-2.651,1.845-3.725,4.996-3.725
	c4.101,0,5.033,1.558,5.033,3.403v0.43h-4.621V7.013h-0.877V8.41c0.591,0.178,1.451,0.429,2.417,0.716
	c1.648,0.465,3.314,1.165,3.314,3.313C46.506,15.359,44.375,16.271,41.545,16.271 M56.388,14.804
	c0.412-0.753,0.447-1.846,0.447-3.153c0-1.827-0.179-2.902-0.966-3.653c-0.483-0.465-1.093-0.717-1.934-0.717
	c-1.326-0.017-2.077,0.501-2.418,1.057V7.441h-4.244v11.425h4.28v-3.615c0.429,0.572,1.181,0.948,2.328,0.948
	C55.08,16.199,55.905,15.663,56.388,14.804 M52.466,13.566h-0.912V9.824h0.912V13.566z M65.446,15.627
	c1.003-0.501,1.755-1.523,1.755-2.598h-4.388v1.112h-0.914v-1.989h5.302v-0.627c0-1.521-0.251-2.167-0.537-2.65
	c-0.716-1.147-2.024-1.701-4.209-1.701c-3.653,0-4.961,1.486-4.961,4.53c0,2.723,0.914,4.514,4.8,4.514
	C63.207,16.218,64.389,16.165,65.446,15.627 M62.813,10.666h-0.914V9.054h0.914V10.666z M75.81,15.627
	c1.004-0.501,1.756-1.523,1.756-2.598h-4.387v1.112h-0.913v-1.989h5.3v-0.627c0-1.521-0.25-2.167-0.537-2.65
	c-0.717-1.147-2.024-1.701-4.208-1.701c-3.655,0-4.962,1.486-4.962,4.53c0,2.723,0.913,4.514,4.799,4.514
	C73.573,16.218,74.754,16.165,75.81,15.627 M73.178,10.666h-0.914V9.054h0.914V10.666z M87.733,15.947V4.898h-4.3v3.224
	c-0.501-0.537-1.217-0.859-2.292-0.859c-1.039,0-1.809,0.339-2.345,1.181c-0.449,0.699-0.591,1.81-0.574,3.439
	c0.02,1.38,0.145,2.775,0.95,3.546c0.59,0.573,1.217,0.698,1.915,0.698c1.112,0,1.863-0.447,2.346-0.985v0.805 M83.434,13.495
	h-0.896V9.806h0.896V13.495z M104.721,16.271v-2.344h-0.985c0.359-0.861,0.432-2.384,0.432-3.512c0-4.53-1.093-5.856-5.14-5.856
	c-4.049,0-5.141,1.326-5.141,5.856c0,2.131,0.144,3.726,1.184,4.675c0.805,0.733,1.933,1.181,3.796,1.181 M99.455,13.925h-0.877
	V7.101h0.877V13.925z M114.69,15.947V7.443h-4.299v6.088h-0.896V7.443h-4.333v5.409c0,1.075,0.215,1.664,0.431,2.039
	c0.394,0.701,1.217,1.219,2.257,1.238c1.108,0.036,1.916-0.396,2.542-1.022v0.841 M123.332,15.627
	c1.003-0.501,1.756-1.523,1.756-2.598H120.7v1.112h-0.913v-1.989h5.301v-0.627c0-1.521-0.252-2.167-0.539-2.65
	c-0.716-1.147-2.022-1.701-4.207-1.701c-3.653,0-4.961,1.486-4.961,4.53c0,2.723,0.912,4.514,4.799,4.514
	C121.094,16.218,122.276,16.165,123.332,15.627 M120.7,10.666h-0.913V9.054h0.913V10.666z M133.698,15.627
	c1.001-0.501,1.753-1.523,1.753-2.598h-4.388v1.112h-0.913v-1.989h5.301v-0.627c0-1.521-0.25-2.167-0.537-2.65
	c-0.716-1.147-2.024-1.701-4.209-1.701c-3.653,0-4.96,1.486-4.96,4.53c0,2.723,0.914,4.514,4.799,4.514
	C131.458,16.218,132.639,16.165,133.698,15.627 M131.063,10.666h-0.913V9.054h0.913V10.666z M145.671,15.947v-5.873
	c0-1.737-1.002-2.919-2.812-2.901c-1.38,0-2.222,0.608-2.562,1.093V7.443h-4.154v8.504h4.28V9.824h0.913v6.124 M146.897,14.575
	c0,0.997,0.802,1.729,1.75,1.729c0.938,0,1.741-0.731,1.741-1.729c0-0.987-0.804-1.718-1.741-1.718
	C147.699,12.857,146.897,13.588,146.897,14.575 M148.647,16.017c-0.788,0-1.403-0.612-1.403-1.441c0-0.815,0.615-1.43,1.403-1.43
	c0.779,0,1.394,0.614,1.394,1.43C150.041,15.404,149.427,16.017,148.647,16.017 M148.282,14.713h0.347l0.524,0.859h0.337
	l-0.564-0.874c0.292-0.036,0.515-0.19,0.515-0.547c0-0.392-0.233-0.563-0.702-0.563h-0.757v1.984h0.301V14.713z M148.282,14.457
	v-0.614h0.41c0.21,0,0.433,0.045,0.433,0.291c0,0.305-0.227,0.323-0.482,0.323H148.282z M23.785,20.965
	c-0.195,0.078-0.316,0.191-0.316,0.368c0.001,0.111,0.045,0.239,0.133,0.4c0.404,0.847,0.921,1.934,1.252,2.616
	c0.281,0.581,0.783,1.045,1.32,1.452c0.032,0.026,0.05,0.067,0.05,0.109c-0.001,0.088-0.074,0.192-0.286,0.193
	c-1.696,0.019-3.355,0-5.052,0.038c-2.229-0.022-2.858-1.49-3.193-2.139c-0.111-0.238-0.331-0.7-0.516-1.068
	c-0.167-0.35-0.264-0.407-0.609-0.407c-0.022,0-0.045,0-0.069,0.001v0.036l-0.002-0.036c-0.257,0.017-0.514,0.017-0.753,0.017
	c-4.335,0.001-8.272-1.27-11.126-3.313C1.766,17.189,0,14.374,0,11.282c0-3.101,1.767-5.92,4.619-7.966
	C7.472,1.271,11.409,0,15.744,0C20.077,0,24.016,1.271,26.868,3.316c2.854,2.046,4.62,4.865,4.62,7.966
	C31.489,15.374,28.386,18.978,23.785,20.965 M22.582,17.926c2.388-1.617,3.781-3.965,3.782-6.681
	c-0.011-4.822-4.773-8.774-10.619-8.774c-5.865,0-10.609,3.952-10.619,8.774c-0.001,4.749,4.588,8.665,10.343,8.757
	c0.017,0,0.034,0.001,0.049,0.001c0.166-0.005,0.218-0.046,0.222-0.146c0-0.063-0.027-0.152-0.082-0.263l0.031-0.018l-0.032,0.017
	c-1.42-2.895-2.839-5.787-4.24-8.646l-0.025-0.051h0.058c0.106,0,0.216-0.019,0.317-0.019c0.142,0.017,0.28,0.024,0.377,0.204
	c0.276,0.496,0.572,1.013,0.867,1.511c0.364,0.627,1.024,0.963,1.569,0.963c0.509-0.003,0.909-0.279,0.911-0.889
	c0-0.262-0.076-0.589-0.258-0.979c-0.129-0.241-0.258-0.499-0.369-0.74l-0.024-0.051h0.498c0.159-0.004,0.222,0.074,0.273,0.185
	c0.165,0.294,0.33,0.588,0.495,0.864c0.185,0.276,0.294,0.44,0.496,0.678c0.469,0.571,0.967,0.814,1.364,0.814
	c0.473-0.003,0.81-0.335,0.812-0.9c0-0.23-0.058-0.499-0.19-0.796c-0.129-0.259-0.258-0.536-0.387-0.794l-0.026-0.051h0.538
	c0.172-0.009,0.194,0.071,0.235,0.187c0.996,2.21,2.102,4.387,3.132,6.597c0.056,0.104,0.159,0.341,0.31,0.333
	C22.438,18.014,22.501,17.991,22.582,17.926 M17.717,8.056c-0.478,0-0.867,0.389-0.868,0.866c0.001,0.479,0.39,0.867,0.868,0.868
	c0.478-0.001,0.866-0.389,0.867-0.868C18.583,8.445,18.195,8.056,17.717,8.056 M14.362,8.056c-0.478,0-0.867,0.389-0.868,0.866
	c0.001,0.479,0.39,0.867,0.868,0.868c0.458-0.001,0.848-0.389,0.849-0.868C15.209,8.445,14.82,8.056,14.362,8.056 M10.914,8.056
	c-0.458,0-0.848,0.389-0.849,0.866c0.001,0.479,0.391,0.867,0.849,0.868c0.478-0.001,0.866-0.389,0.867-0.868
	C11.78,8.445,11.392,8.056,10.914,8.056"/>
</svg>