<svg version="1.1" xmlns="http://www.w3.org/2000/svg" xmlns:xlink="http://www.w3.org/1999/xlink" x="0px" y="0px"
	 width="102px" height="43.151px" viewBox="0 0 102 43.151" enable-background="new 0 0 102 43.151" xml:space="preserve" focusable="false">
<path fill="#F2BB00" d="M78.241,0.718c1.496,1.583,0.442,5.127-2.492,9.688c0.313,0.359,0.282,1.164-0.466,2.299
	c-2.592,3.933-6.797,8.362-12.332,13.578c-12.215,11.52-25.924,19.348-28.946,16.146c-1.739-1.844,0.613-6.95,4.953-12.867h1.134
	c-4.094,5.567-6.335,10.259-4.967,11.706c2.398,2.545,14.25-4.459,26.488-16c4.756-4.485,9.13-9.696,12.113-13.984
	c0.348-0.5,0.72-0.818,1.061-0.973c2.346-3.996,3.26-7.437,2.221-8.537c-2.04-2.165-10.893,2.453-20.296,10.303v-1.032
	C66.313,3.122,75.724-1.953,78.241,0.718"/>
<path d="M24.054,9.722L18.809,28.89h-3.048l-3.707-13.923L8.292,28.89H5.245L0,9.722h3.02l3.735,13.922l3.762-13.922h2.993
	l3.789,13.922l3.733-13.922H24.054z M25.452,28.889h3.021V18.317c0.769-0.22,1.509-0.412,2.388-0.412c1.4,0,2.636,0.33,2.636,2.856
	v8.127h3.021v-8.375c0-4.201-1.646-5.3-4.091-5.3c-1.372,0-2.498,0.246-3.898,0.77h-0.11l0.055-1.758V9.531l-3.021,0.247V28.889z
	 M40.662,9.969c-1.509,0-1.784,0.906-1.784,1.922s0.302,1.951,1.784,1.951c1.484,0,1.813-0.935,1.813-1.951
	S42.229,9.969,40.662,9.969 M39.153,28.889h3.021V15.406h-3.021V28.889z M44.726,28.889h3.021V18.592
	c0.796-0.359,1.455-0.549,2.278-0.549c0.577,0,1.154,0.082,1.703,0.164v-2.965c-0.221-0.028-0.44-0.028-0.632-0.028
	c-1.647,0-2.912,0.604-3.707,1.291h-0.193l-0.411-1.098h-2.06V28.889z M56.039,28.889V9.53l-3.021,0.247v19.112H56.039z
	 M77.51,15.214c-4.283,0-6.069,2.526-6.069,7.001c0,4.202,1.566,6.948,6.014,6.948c4.449,0,5.988-2.746,5.988-6.948
	C83.442,17.741,81.793,15.214,77.51,15.214 M80.365,22.215c0,2.555-0.55,4.559-2.965,4.559c-2.417,0-2.911-2.113-2.911-4.559
	c0-2.635,0.604-4.64,3.048-4.64C79.954,17.576,80.365,19.662,80.365,22.215 M91.046,15.214c-4.283,0-6.069,2.526-6.069,7.001
	c0,4.202,1.566,6.948,6.014,6.948c4.448,0,5.986-2.746,5.986-6.948C96.977,17.741,95.329,15.214,91.046,15.214 M93.902,22.215
	c0,2.555-0.551,4.559-2.967,4.559s-2.91-2.113-2.91-4.559c0-2.635,0.604-4.64,3.048-4.64C93.49,17.576,93.902,19.662,93.902,22.215
	 M102,28.889V9.53l-3.021,0.247v19.112H102z M61.502,18.51c0.742-0.247,1.482-0.385,2.251-0.385c1.56,0,2.567,0.448,2.928,1.954
	c0.782-0.867,1.539-1.735,2.269-2.6c-0.845-1.559-2.203-2.264-3.822-2.264c-1.512,0-3.048,0.685-3.954,1.18h-0.138l-0.247-0.99
	h-2.279v12.7c0.958-0.851,1.922-1.729,2.89-2.637C61.502,22.583,61.502,21.175,61.502,18.51 M66.792,22.571
	c-0.209,3.058-1.378,3.874-3.067,3.874c-0.339,0-0.643-0.004-0.936-0.011c-1.415,1.327-2.847,2.606-4.28,3.824v5.056l3.021-0.33
	v-6.178h0.083c0.85,0.165,1.784,0.273,2.636,0.273c3.515,0,5.629-2.332,5.629-7.056c0-0.905-0.071-1.709-0.204-2.42
	C68.774,20.563,67.815,21.55,66.792,22.571"/>
</svg>